<svg width="12" height="8" viewBox="0 0 12 8" fill="none" xmlns="http://www.w3.org/2000/svg">
<path d="M5.63463 6.95949L5.63461 6.95947L1.0164 1.67698C1.01639 1.67696 1.01638 1.67695 1.01637 1.67694C0.86034 1.4986 0.861265 1.21462 1.01885 1.03753C1.18284 0.853221 1.45364 0.85414 1.6162 1.04034C1.61622 1.04035 1.61624 1.04038 1.61626 1.04039L5.98232 6.03442L10.3862 1.08319C10.5501 0.898515 10.8209 0.899607 10.9835 1.08573C11.1396 1.26436 11.1388 1.54819 10.981 1.72536M5.63463 6.95949L10.9063 1.65884M5.63463 6.95949C5.70938 7.04496 5.80834 7.09275 5.91127 7.09912M5.63463 6.95949L5.91127 7.09912M10.981 1.72536L10.9063 1.65884M10.981 1.72536L10.981 1.7253L10.9063 1.65884M10.981 1.72536L6.32291 6.96248L6.24806 6.89616M10.9063 1.65884L6.24806 6.89616M6.24806 6.89616L6.32278 6.96262L6.32281 6.96259L6.24806 6.89616ZM5.91127 7.09912L5.91744 6.99931L5.91127 7.09912ZM5.98074 7.09689C5.98707 7.09612 5.9933 7.09521 5.99942 7.0942L5.98309 6.99554L5.96653 7.09416C5.96843 7.09448 5.96878 7.09456 5.96947 7.09471C5.97032 7.09491 5.97171 7.09522 5.97735 7.09628C5.97837 7.09647 5.9795 7.09667 5.98074 7.09689Z" fill="#111111" stroke="#111111" stroke-width="0.2"/>
</svg>
