<svg width="12" height="8" viewBox="0 0 12 8" fill="none" xmlns="http://www.w3.org/2000/svg">
<path d="M5.63463 1.04051L5.63461 1.04053L1.0164 6.32302C1.01639 6.32304 1.01638 6.32305 1.01637 6.32306C0.86034 6.5014 0.861265 6.78538 1.01885 6.96247C1.18284 7.14678 1.45364 7.14586 1.6162 6.95966C1.61622 6.95965 1.61624 6.95962 1.61626 6.95961L5.98232 1.96558L10.3862 6.91681C10.5501 7.10149 10.8209 7.10039 10.9835 6.91427C11.1396 6.73564 11.1388 6.45181 10.981 6.27464M5.63463 1.04051L10.9063 6.34116M5.63463 1.04051C5.70938 0.955043 5.80834 0.907246 5.91127 0.900884M5.63463 1.04051L5.91127 0.900884M10.981 6.27464L10.9063 6.34116M10.981 6.27464L10.981 6.2747L10.9063 6.34116M10.981 6.27464L6.32291 1.03752L6.24806 1.10384M10.9063 6.34116L6.24806 1.10384M6.24806 1.10384L6.32278 1.03738L6.32281 1.03741L6.24806 1.10384ZM5.91127 0.900884L5.91744 1.00069L5.91127 0.900884ZM5.98074 0.903111C5.98707 0.903883 5.9933 0.904788 5.99942 0.905802L5.98309 1.00446L5.96653 0.905841C5.96843 0.905522 5.96878 0.905441 5.96947 0.905287C5.97032 0.905092 5.97171 0.904779 5.97735 0.903723C5.97837 0.903533 5.9795 0.903325 5.98074 0.903111Z" fill="#111111" stroke="#111111" stroke-width="0.2"/>
</svg>
