<svg width="232" height="48" viewBox="0 0 232 48" fill="none" xmlns="http://www.w3.org/2000/svg">
<path d="M229.168 22.9214C230.057 22.9214 230.837 22.9214 231.949 22.9214C230.057 22.1124 228.278 22.7865 226.609 22.6516C225.72 22.2472 224.941 21.7078 223.606 21.9776C222.829 21.8427 222.049 21.8427 221.27 21.9776C221.048 21.7078 220.825 21.573 220.603 21.3033C220.493 21.1686 220.158 21.0338 220.048 20.8989C219.491 20.6292 218.936 20.4944 218.379 20.2246C218.713 20.09 218.936 19.9551 219.269 19.8202C219.936 19.8202 220.603 19.6854 221.16 19.2808C221.717 19.0113 222.384 18.7416 222.272 18.337V18.2022V18.0674C223.161 18.0674 224.163 18.0674 224.385 17.3932C224.273 17.1236 224.163 16.9887 224.051 16.7192C224.718 16.7192 225.385 16.9887 225.832 16.4494C226.277 15.9101 226.832 15.5056 227.389 15.1011C227.944 14.8315 228.501 14.6966 229.168 14.427C229.168 13.7528 229.613 13.2135 230.502 12.809C230.947 12.809 231.614 12.9438 231.949 12.6742C232.171 12.1348 231.614 12.1348 231.392 12.1348C230.725 12 229.947 12 229.278 11.8652C229.278 11.5955 229.278 11.3258 229.278 11.191C229.39 11.0562 229.613 10.9214 229.725 10.6517C229.725 10.5169 229.725 10.5169 229.725 10.382C230.169 10.2472 230.614 10.6517 231.169 10.5169C230.947 10.2472 230.614 10.1124 230.169 9.97754C229.947 9.70786 229.501 9.4382 228.945 9.30338C229.168 8.76405 227.721 8.62922 228.056 8.08989C228.723 8.22472 228.833 8.62922 229.725 8.62922C229.501 8.22472 229.056 8.08989 228.501 7.82022C228.166 7.55056 228.056 7.2809 227.389 7.2809C227.499 7.41573 227.611 7.6854 227.611 7.82022C227.054 7.82022 226.499 7.82022 225.942 7.82022C225.497 7.6854 225.053 7.55056 224.608 7.2809C224.608 7.14607 224.496 7.14606 224.385 7.01124C224.718 6.8764 225.163 6.8764 225.497 6.74157C226.499 6.60674 225.497 6.20224 225.832 6.06741C226.609 6.06741 227.054 5.66292 227.611 5.39326C228.389 5.25843 229.39 5.52808 230.28 4.98876C229.168 4.98876 228.278 5.1236 227.499 5.1236C227.389 4.98876 227.389 4.85393 227.277 4.7191C227.721 4.44944 228.611 4.44944 228.723 4.04494C228.611 4.04494 228.501 4.04494 228.389 4.04494C227.277 3.64046 226.054 3.91011 224.83 3.91011C223.496 3.91011 222.272 3.91011 220.937 3.91011C220.048 3.77527 219.158 3.77527 218.379 3.64046C218.269 3.64046 218.157 3.64046 218.046 3.64046C217.601 3.37078 215.933 3.64046 216.71 2.69662C214.821 1.75281 212.485 1.61797 210.149 1.48315C209.593 1.48315 209.037 1.48315 208.592 1.48315C206.478 1.34831 204.587 0.674157 202.475 1.07865C201.473 1.07865 200.584 0.539327 199.472 0.808989C198.805 0.808989 198.137 0.674157 197.693 0.943819C197.581 0.943819 197.47 0.943819 197.248 0.943819C196.469 0.539326 195.579 0.674157 194.689 0.674157C194.467 0.674157 194.133 0.674157 193.91 0.674157C192.131 0.269662 190.129 0.539326 188.238 0.269662C187.349 0.134831 186.569 0.134831 185.68 0.269662C184.68 0.269662 183.678 0.269662 182.677 0.269662C182.566 0.269662 182.454 0.269662 182.232 0.269662C181.232 0.269662 180.342 0.404495 179.341 0.404495C176.449 0.404495 173.557 0.269662 170.665 0.269662C170.553 0.269662 170.331 0.269662 170.221 0.269662C169.331 0.269662 168.441 0.269662 167.55 0.269662C167.44 0.404494 167.55 0.404495 167.662 0.539327H167.55C167.55 0.404495 167.55 0.404494 167.55 0.269662C167.328 0.269662 167.217 0.269662 166.995 0.269662C166.328 0 165.661 0 164.993 0C161.433 0 157.763 0 154.204 0C153.982 0.134831 153.982 0.134831 154.204 0.269662C157.763 0.269662 161.433 0.269662 164.993 0.269662C159.988 0.134831 154.872 0.134831 149.867 0.269662C149.756 0.404494 149.867 0.404495 149.978 0.404495H149.867C149.867 0.539326 149.867 0.539326 149.867 0.674157C149.978 0.539326 149.978 0.539326 149.867 0.404495V0.269662C149.422 0.269662 148.977 0.269662 148.532 0.269662C146.641 0.269662 144.639 0.134831 142.749 0.404495C142.637 0.404495 142.637 0.404495 142.637 0.404495C142.526 0.404495 142.415 0.404495 142.304 0.404495C141.414 0.269662 140.635 0.269662 139.746 0.404495C135.186 0.404495 130.625 0.269662 126.065 0.674157C124.731 0.674157 123.285 0.674157 121.95 0.674157C121.617 0.674157 121.394 0.674157 121.061 0.674157C121.505 0.539326 121.95 0.404495 122.395 0.404495C121.728 0.269662 121.061 0.134831 120.616 0.539327C119.726 0.539327 118.947 0.539327 118.057 0.539327C117.501 0.539327 117.056 0.539327 116.723 0.808989C114.721 0.808989 112.719 0.539326 110.828 0.943819C110.717 0.943819 110.717 0.943819 110.606 0.943819C106.379 0.943819 102.042 0.94382 97.8151 1.07865C97.4815 1.07865 97.2591 1.07865 96.9253 1.07865C93.0327 1.07865 89.1399 1.07865 85.2471 1.07865C82.689 1.07865 80.2421 1.21348 77.9065 1.21348C77.5729 1.21348 77.3505 1.21348 77.0167 1.21348C75.6822 1.21348 74.4586 1.21348 73.1241 1.21348C71.567 1.21348 69.8986 1.21348 68.3415 1.21348C67.6742 1.21348 66.8956 1.21348 66.2282 1.21348C65.3385 1.21348 64.4487 1.21348 63.6702 1.21348C63.3366 1.21348 63.114 1.21348 62.7804 1.21348C61.557 1.21348 60.3335 1.21348 58.9988 1.21348C57.5531 0.943821 56.1071 0.943819 54.55 0.943819C53.4379 0.943819 52.3255 0.94382 51.2134 0.808989C50.2124 0.674157 49.1003 0.674157 48.0991 0.808989C47.6543 0.808989 47.3206 0.808989 46.8758 0.808989C44.8737 0.404495 42.8718 0.539326 40.7585 0.404495C39.6464 0 38.3116 0.269662 36.9771 0.134831C36.3097 0 35.7536 -0.134831 35.6424 0.404495C34.8638 0.94382 34.975 1.75281 34.0852 2.29214C33.0843 2.83146 33.0843 3.50562 33.7516 4.04494C33.7516 4.17978 33.8628 4.17978 33.974 4.17978C34.3078 4.7191 34.7526 4.98876 35.1976 5.39326C33.7516 5.39326 32.8619 5.93259 31.9721 6.33708C31.6384 6.47192 31.3048 6.60674 31.1936 6.8764C30.8598 6.8764 30.5262 7.01124 30.415 7.14606C29.7476 7.2809 28.6355 6.8764 28.3017 7.55056H28.1905C27.5232 7.55056 26.856 7.55056 26.1886 7.55056C25.5213 7.2809 24.9651 7.2809 23.9641 7.2809C24.7427 7.6854 25.4101 7.82022 26.1886 7.82022C26.411 7.95506 26.6334 7.95506 26.856 8.08989C26.7446 8.76405 26.6334 9.30338 26.5222 9.97754C26.6334 9.97754 26.7446 10.1124 26.856 10.1124H26.7446C26.5222 10.1124 26.411 10.1124 26.1886 10.1124C25.7437 10.1124 25.2989 10.1124 24.9651 10.1124C24.4091 10.2472 23.8529 10.2472 23.1856 10.382C21.4061 10.6517 19.4041 10.7865 17.9582 11.5955C16.7347 11.7303 15.9562 12.4045 14.7328 12.6742C15.6225 12.9438 16.0675 12.5393 16.7347 12.5393C16.8459 12.6742 17.0685 12.6742 17.1797 12.809C16.8459 13.0786 16.5123 13.2135 16.2899 13.4831C14.9552 13.618 14.3991 14.1573 13.6205 14.6966C13.1757 14.8315 12.7308 15.1011 12.842 15.3708C13.1757 16.3146 11.0625 16.5843 10.9512 17.5281C11.5073 17.2584 11.9522 17.1236 12.3971 16.9887C12.3971 17.1236 12.3971 17.1236 12.3971 17.2584C12.0635 17.5281 11.841 17.7978 11.5073 17.9326C11.9522 18.337 11.7298 18.7416 11.0625 19.146C10.6176 19.2808 10.1727 19.5506 9.83903 19.6854C9.50537 19.6854 9.1717 19.6854 8.94925 19.9551C7.05849 20.4944 7.05849 20.6292 9.1717 21.3033C9.1717 21.4382 9.28292 21.573 9.28292 21.7078C7.6146 21.7078 6.16871 22.1124 4.72284 22.5168C3.94428 22.7865 4.27795 22.9214 4.94527 22.9214C4.61161 23.5954 3.4994 23.5954 2.72086 23.8652C2.27597 24.1348 1.83109 24.2697 1.27497 24.5394C2.05352 24.5394 2.72086 24.5394 3.38819 24.6741C3.72185 24.9438 3.61062 25.0787 2.94329 25.0787C2.05352 25.0787 1.27497 25.0787 0.162762 25.0787C2.05352 25.8876 3.83307 25.2135 5.50139 25.3483C6.39116 25.7527 7.1697 26.2922 8.50437 26.0225C9.28292 26.1573 10.0615 26.1573 10.84 26.0225C10.84 26.2922 11.1737 26.5618 11.2849 26.8314C11.3961 26.9662 11.7298 27.1011 11.9522 27.236C12.5083 27.5057 13.0644 27.6405 13.6205 27.9101C13.2869 28.0449 13.0644 28.1797 12.7308 28.4494C12.0635 28.4494 11.3961 28.5843 10.84 28.9887C10.2839 29.2584 9.61658 29.5281 9.7278 29.9326V30.0674V30.2022C8.83804 30.2022 7.83703 30.2022 7.6146 30.8764C7.72581 31.0113 7.83703 31.2808 7.94826 31.4157C7.28094 31.4157 6.61361 31.146 6.16871 31.6854C5.72383 32.2247 5.16772 32.6292 4.61161 33.0337C4.05552 33.4381 3.38819 33.573 2.83208 33.8427C2.83208 34.5168 2.38718 35.0562 1.49742 35.4606C1.05253 35.4606 0.385204 35.3259 0.0515396 35.5955C-0.170904 35.8652 0.385204 35.8652 0.607647 35.8652C1.27497 36 2.05352 36 2.72086 36.1348C2.72086 36.4045 2.72086 36.6741 2.72086 36.809C2.72086 37.0787 2.60963 37.2135 2.38718 37.3484C2.38718 37.4832 2.38718 37.4832 2.38718 37.618C1.9423 37.7528 1.49742 37.3484 0.941311 37.618C1.16375 37.8876 1.60864 38.0224 1.9423 38.1573C2.27597 38.427 2.72086 38.6967 3.27696 38.8314C3.05452 39.3708 4.50039 39.5056 4.16673 40.0449C3.4994 39.91 3.38819 39.5056 2.49841 39.5056C2.72086 39.91 3.16574 40.0449 3.72185 40.3146C4.05552 40.4495 4.16673 40.7191 4.83406 40.7191C4.72284 40.5843 4.72284 40.4495 4.61161 40.1798C5.16772 40.1798 5.72383 40.1798 6.27994 40.1798C6.72482 40.4495 7.1697 40.5843 7.6146 40.7191C7.6146 40.854 7.72581 40.854 7.83703 40.9887C7.50337 41.1236 7.05849 41.1236 6.72482 41.2584C5.72383 41.3932 6.72482 41.7978 6.39116 41.9326C5.61262 41.9326 5.16772 42.337 4.61161 42.6068C3.72185 42.7416 2.83208 42.4719 1.83109 42.8764C2.94329 42.8764 3.83307 42.7416 4.61161 42.7416C4.72284 43.0113 4.72284 43.146 4.83406 43.2809C5.05651 43.4157 5.16772 43.4157 5.39017 43.5506C5.39017 43.2809 5.27895 43.146 4.83406 43.2809C4.50039 43.5506 3.4994 43.5505 3.38819 43.9551C3.4994 43.9551 3.61062 43.9551 3.72185 43.9551C4.83406 44.3595 6.0575 44.09 7.28094 44.09C8.61559 44.09 9.83903 44.09 11.1737 44.09C11.9522 44.3595 12.842 44.3595 13.7318 44.4944C13.843 44.4944 13.9542 44.4944 14.0654 44.4944C14.5103 44.8989 16.1787 44.6292 15.4001 45.4382C17.2909 46.382 19.6265 46.5168 21.9622 46.6516C22.5182 46.6516 23.0744 46.6516 23.5193 46.6516C25.6325 46.7865 27.5232 47.4606 29.6364 47.0562C30.6374 47.0562 31.5272 47.5955 32.6395 47.3259C33.3067 47.3259 33.974 47.4606 34.419 47.191C34.5302 47.191 34.6414 47.191 34.8638 47.191C35.6424 47.5954 36.5321 47.5955 37.4219 47.4606C37.6444 47.4606 37.978 47.4606 38.2004 47.4606C39.98 47.8652 41.982 47.5955 43.8727 47.8652C44.7625 48 45.5411 48 46.4308 47.8652C47.4318 47.8652 48.4329 47.8652 49.4339 47.8652C49.5451 47.8652 49.7675 47.8652 49.8787 47.8652C50.8798 47.8652 51.7695 47.7303 52.7705 47.7303C55.6622 47.7303 58.554 47.8652 61.4457 47.8652C61.557 47.8652 61.7794 47.8652 61.8907 47.8652C62.7804 47.8652 63.6702 47.8652 64.5599 47.8652C64.6711 47.7303 64.5599 47.7303 64.4487 47.5955H64.5599C64.5599 47.7303 64.5599 47.7303 64.5599 47.8652C64.7823 47.8652 64.8937 47.8652 65.1161 47.8652C65.6722 48 66.3394 48 67.118 48C70.6772 48 74.3474 48 77.9065 48C78.129 47.8652 78.129 47.8652 77.9065 47.7303C74.3474 47.7303 70.6772 47.7303 67.118 47.7303C72.123 47.8652 77.2393 47.8652 82.2442 47.7303C82.3554 47.5955 82.2442 47.5955 82.1329 47.5955H82.2442C82.2442 47.4606 82.2442 47.4606 82.2442 47.3259C82.1329 47.4606 82.1329 47.4606 82.2442 47.5955V47.7303C82.689 47.7303 83.134 47.7303 83.5788 47.7303C85.4697 47.7303 87.4716 47.8652 89.3623 47.5955H89.4735C89.5849 47.5955 89.6961 47.5955 89.8073 47.5955C90.697 47.7303 91.4756 47.7303 92.3653 47.5955C96.9253 47.5955 101.485 47.7303 106.045 47.3259C107.38 47.3259 108.826 47.3259 110.161 47.3259C110.494 47.3259 110.717 47.3259 111.05 47.3259C110.606 47.4606 110.161 47.5955 109.716 47.7303C110.383 47.8652 111.051 48 111.495 47.5955C112.385 47.5955 113.164 47.5955 114.053 47.5955C114.165 47.4606 114.165 47.4606 114.053 47.3259C114.053 47.4606 114.053 47.4606 114.053 47.5955C114.61 47.5955 115.054 47.5955 115.388 47.3259C117.39 47.1911 119.503 47.5954 121.505 47.191C125.732 47.191 130.069 47.1911 134.296 47.0562C134.629 47.0562 134.852 47.0562 135.186 47.0562C139.078 47.0562 142.971 47.0562 146.864 47.0562C149.311 46.9213 151.646 46.9213 154.093 46.7865C154.427 46.7865 154.649 46.7865 154.983 46.7865C156.318 46.7865 157.541 46.7865 158.876 46.7865C160.433 46.7865 162.101 46.7865 163.659 46.7865C164.326 46.7865 165.104 46.7865 165.771 46.7865C166.661 46.7865 167.44 46.7865 168.329 46.7865C168.664 46.7865 168.886 46.7865 169.219 46.7865C170.443 46.7865 171.665 46.7865 173.001 46.7865C173.001 46.7865 173.001 46.7865 173.112 46.7865C174.558 47.0562 176.005 47.0562 177.449 46.9213C178.561 46.9213 179.673 46.9213 180.787 47.0562C181.787 47.3259 182.899 47.191 183.901 47.191C184.345 47.191 184.68 47.191 185.125 47.191C187.126 47.5954 189.128 47.3259 191.129 47.4606C192.353 47.8652 193.688 47.5955 194.912 47.7303C195.579 48 196.134 48.1348 196.357 47.4606C197.136 46.9213 197.025 46.1124 197.915 45.573C198.805 45.0337 198.805 44.4944 198.248 43.8202C198.248 43.6854 198.137 43.6854 198.025 43.6854C197.581 43.2808 197.136 42.8764 196.803 42.4719C198.248 42.6068 199.027 42.0673 199.917 41.5281C200.361 41.3932 200.584 41.2584 200.696 40.9887C201.029 40.9887 201.363 40.854 201.473 40.7191C202.141 40.5843 203.253 40.9887 203.587 40.3146H203.697C204.365 40.3146 205.033 40.3146 205.701 40.3146C206.368 40.5843 206.923 40.5843 207.925 40.5843C207.145 40.1797 206.478 40.0449 205.701 40.0449C205.478 39.91 205.144 39.91 204.921 39.7753C205.033 39.1011 205.144 38.5619 205.256 37.8876C205.144 37.7528 205.033 37.7528 204.921 37.7528H205.033C205.256 37.7528 205.366 37.7528 205.589 37.7528C206.033 37.7528 206.478 37.7528 206.813 37.7528C207.368 37.618 207.925 37.618 208.592 37.4832C210.371 37.2135 212.373 37.0787 213.819 36.2697C215.043 36.1348 215.821 35.4606 217.045 35.191C216.155 34.9213 215.71 35.3259 215.043 35.3259C214.931 35.1911 214.709 35.1911 214.598 35.0562C214.931 34.7865 215.265 34.6516 215.488 34.382C216.71 34.2472 217.379 33.7079 218.157 33.1686C218.601 33.0337 218.936 32.764 218.936 32.4944C218.713 31.5506 220.715 31.2809 220.825 30.3371C220.27 30.6068 219.825 30.7416 219.381 30.8764C219.381 30.7416 219.381 30.7416 219.381 30.6067C219.713 30.337 219.936 30.2022 220.27 29.9326C219.825 29.5281 220.048 29.1235 220.715 28.7191C221.16 28.5843 221.605 28.3146 221.939 28.1798C222.272 28.1798 222.606 28.1798 222.829 27.9101C224.718 27.236 224.718 27.236 222.494 26.427C222.494 26.2922 222.384 26.1573 222.384 26.0225C224.051 26.0225 225.497 25.618 226.944 25.2135C227.721 24.9438 227.389 24.809 226.721 24.809C227.054 24.1349 228.166 24.1348 228.945 23.8652C229.39 23.5954 229.947 23.4606 230.502 23.191C229.725 23.191 229.056 23.191 228.389 23.0562C228.389 23.0562 228.501 22.9214 229.168 22.9214ZM5.50139 43.8202C5.39017 43.8202 5.39017 43.8202 5.27895 43.8202C5.27895 43.8202 5.39017 43.8202 5.50139 43.8202ZM85.6921 1.61797H85.5809C85.6921 1.61797 85.6921 1.61797 85.6921 1.61797ZM36.1985 7.6854C36.1985 7.82022 36.3097 7.82022 36.1985 7.6854V7.6854ZM86.3594 26.5618C86.2481 26.5618 86.2481 26.5618 86.3594 26.5618V26.5618ZM183.789 41.7978C183.901 41.7978 184.011 41.7978 184.123 41.9326C184.011 41.9326 183.901 41.9327 183.789 41.7978ZM65.7834 4.3146C65.8946 4.3146 66.0058 4.3146 66.117 4.3146H66.0058C65.8946 4.3146 65.7834 4.3146 65.7834 4.3146ZM68.1191 4.04494C68.0078 3.91011 68.3415 4.04494 68.1191 4.04494V4.04494ZM50.4348 4.17978C50.3236 4.17978 50.2124 4.17978 50.2124 4.17978C50.3236 4.17978 50.4348 4.17978 50.4348 4.17978ZM15.845 22.2472C15.7338 22.2472 15.7338 22.2472 15.6225 22.2472C15.6225 22.2472 15.6225 22.2472 15.7338 22.2472C15.7338 22.2472 15.7338 22.2472 15.845 22.2472ZM166.216 43.8202C166.105 43.8202 165.993 43.8202 165.883 43.8202H165.993C166.105 43.8202 166.216 43.6854 166.216 43.8202ZM163.881 43.9551C163.659 43.9551 163.992 44.2247 163.881 43.9551V43.9551ZM181.565 43.8202C181.677 43.8202 181.677 43.8202 181.787 43.8202C181.677 43.8202 181.677 43.9551 181.565 43.8202ZM216.265 25.7528C216.377 25.7528 216.377 25.7528 216.488 25.7528C216.488 25.7528 216.488 25.7528 216.377 25.7528C216.265 25.7528 216.265 25.7528 216.265 25.7528ZM218.936 11.8652C218.824 11.8652 218.824 11.8652 218.936 11.8652V11.8652ZM13.2869 21.8427C13.2869 21.7078 13.2869 21.7078 13.2869 21.8427V21.8427ZM13.0644 36.1348C13.1757 36.1348 13.1757 36.2697 13.0644 36.1348C13.1757 36.2697 13.1757 36.2697 13.0644 36.1348C13.1757 36.2697 13.0644 36.2697 13.0644 36.1348ZM213.597 28.5843C213.709 28.5843 213.709 28.5843 213.597 28.5843C213.709 28.7192 213.709 28.7192 213.597 28.5843C213.709 28.7192 213.597 28.7192 213.597 28.5843ZM56.3295 3.10113C56.4407 2.9663 56.4407 2.9663 56.5521 2.9663C56.4407 3.10113 56.3295 3.10113 56.3295 3.10113ZM175.781 44.8989C175.67 45.0337 175.67 45.0337 175.558 45.0337C175.558 44.8989 175.67 44.8989 175.781 44.8989ZM213.819 18.7416H213.709C213.709 18.6068 213.709 18.6068 213.819 18.7416ZM193.355 2.29214C193.133 2.1573 192.91 2.29214 192.798 2.29214C192.91 2.29214 193.133 2.29214 193.355 2.29214ZM45.986 2.9663C45.8748 3.10113 45.986 3.10113 45.986 2.9663C45.8748 2.9663 45.8748 3.10113 45.986 2.9663ZM18.1806 29.3933H18.2918C18.403 29.3933 18.2918 29.3933 18.1806 29.3933C18.2918 29.3933 18.2918 29.3933 18.1806 29.3933ZM38.6454 45.7079C38.8678 45.8427 39.0902 45.7079 39.2016 45.7079C39.0902 45.7079 38.979 45.7079 38.6454 45.7079ZM47.8767 46.5168C47.7655 46.382 47.6543 46.382 47.4318 46.382C47.6543 46.382 47.7655 46.5168 47.8767 46.5168ZM214.376 20.8989H214.486C214.486 20.8989 214.486 20.8989 214.376 20.8989ZM163.659 1.48315C163.659 1.34831 163.659 1.34831 163.659 1.48315C163.769 1.48315 163.881 1.48315 163.881 1.48315C163.769 1.48315 163.659 1.48315 163.659 1.48315ZM34.6414 9.4382C34.5302 9.4382 34.3078 9.4382 34.1964 9.4382C34.419 9.4382 34.5302 9.4382 34.6414 9.4382ZM68.4527 46.6516C68.3415 46.6516 68.3415 46.6516 68.4527 46.6516V46.6516ZM128.512 1.21348C128.624 1.21348 128.624 1.21348 128.512 1.21348V1.21348ZM14.5103 19.8202C14.5103 19.9551 14.5103 19.9551 14.5103 19.8202V19.8202ZM148.421 45.9775C148.421 45.8427 148.421 45.8427 148.421 45.9775H148.532C148.532 45.9775 148.532 45.8427 148.421 45.9775ZM177.339 46.7865C177.449 46.7865 177.449 46.7865 177.339 46.7865C177.339 46.9213 177.449 46.9213 177.339 46.7865ZM226.499 22.7865V22.9214C226.499 22.9214 226.499 22.9214 226.499 22.7865V22.9214C226.387 22.7865 226.387 22.7865 226.499 22.7865C226.387 22.7865 226.387 22.7865 226.499 22.7865ZM223.941 4.3146C223.829 4.17978 223.829 4.17978 223.941 4.3146V4.3146ZM111.495 1.48315C111.495 1.34831 111.495 1.34831 111.495 1.21348C111.384 1.21348 111.384 1.34831 111.495 1.48315ZM104.044 1.21348C104.155 1.21348 104.155 1.21348 104.044 1.21348V1.21348ZM82.9114 1.48315H82.8002H82.689C82.689 1.48315 82.8002 1.48315 82.9114 1.48315ZM81.5769 1.48315C81.6881 1.34831 81.6881 1.34831 81.7993 1.34831C81.6881 1.48315 81.5769 1.48315 81.5769 1.48315ZM45.5411 0.808989C45.4299 0.808989 45.4299 0.808989 45.4299 0.808989C45.5411 0.808989 45.5411 0.808989 45.5411 0.808989ZM5.61262 25.3483V25.2135C5.61262 25.2135 5.61262 25.2135 5.61262 25.3483V25.2135C5.61262 25.2135 5.72383 25.2135 5.61262 25.3483ZM8.05948 43.8202C8.17071 43.8202 8.17071 43.8202 8.05948 43.8202V43.8202ZM120.616 46.9213C120.727 46.7865 120.616 46.7865 120.616 46.6516C120.616 46.6516 120.616 46.7865 120.616 46.9213ZM127.956 46.7865C127.956 46.9213 127.956 46.9213 127.956 46.7865V46.7865ZM149.422 46.6516C149.311 46.6516 149.311 46.6516 149.2 46.6516H149.311H149.422C149.756 46.6516 149.978 46.6516 150.312 46.6516C150.312 46.6516 150.423 46.6516 150.534 46.5168C150.534 46.5168 150.423 46.5168 150.423 46.6516H150.312C149.978 46.5168 149.756 46.5168 149.422 46.6516ZM186.459 47.191C186.569 47.191 186.569 47.191 186.569 47.191H186.459Z" fill="white"/>
</svg>
