<svg viewBox="0 0 403 19" fill="none" xmlns="http://www.w3.org/2000/svg">
<path d="M399.338 11.8226C399.436 11.9543 399.495 12.108 399.488 12.2945C400.109 12.1637 400.27 11.7978 400.664 11.5122L400.966 11.4418C401.52 11.9652 401.952 12.322 402.598 11.5854C402.177 11.4843 401.831 11.3929 401.535 11.3083L401.586 11.2964L401.418 11.2734C400.126 10.894 399.918 10.6699 399.037 10.4658C398.95 10.428 398.877 10.3906 398.843 10.3514L398.755 10.4058C398.46 10.3482 398.1 10.2913 397.623 10.2314C397.629 10.2039 397.639 10.1809 397.651 10.1604C397.714 10.129 397.78 10.0934 397.845 10.056C397.983 10.0343 398.166 10.0554 398.35 10.0795L396.547 9.48887C396.538 9.6123 396.506 9.72209 396.465 9.8257C395.87 9.74132 395.373 9.6636 394.954 9.59231C394.918 9.43464 394.844 9.27803 394.693 9.13474L393.824 9.38332C392.319 9.07958 391.865 8.89614 388.547 8.68069C388.642 8.4439 389.287 8.48336 389.927 8.52641L386.536 7.94128C386.413 8.71103 384.916 9.06422 384.316 9.38559C384.182 9.32507 384.053 9.264 383.928 9.2051L384.392 8.8584C384.003 8.99234 383.873 9.09151 383.872 9.17893C383.555 9.03148 383.253 8.90758 382.936 8.87001C383.698 8.50084 383.831 7.99679 383.041 7.59284L378.801 8.23783C378.282 8.07031 377.686 7.93341 376.975 7.83759L376.816 8.37015C376.583 8.43074 376.356 8.46469 376.13 8.4865C375.73 8.35625 375.919 8.0517 375.24 7.80815C375.53 8.00505 375.421 8.24774 375.213 8.49834C374.929 8.48121 374.637 8.45091 374.33 8.41347C374.256 8.39131 374.18 8.37249 374.104 8.35395L374.246 8.28224C372.802 6.91114 371.614 8.4045 370.163 8.60407C370.077 8.52592 369.98 8.44885 369.837 8.37638L369.135 8.49405C369.333 8.39812 369.182 8.25788 369.571 8.0617L369.084 8.11189C369.16 8.09037 369.241 8.06646 369.316 8.04644C368.834 8.12886 368.386 8.18529 367.963 8.22444L367.868 7.84963C367.889 7.99012 367.867 8.11673 367.824 8.2364C367.677 8.24856 367.533 8.25894 367.392 8.26662C366.922 8.19227 366.322 8.12027 365.456 8.04349C365.526 7.8067 366.013 7.84756 366.496 7.89172L365.048 7.55743C365.256 7.53022 365.463 7.49877 365.669 7.45424C365.041 7.34852 364.695 7.35702 364.528 7.43723L363.937 7.3007C363.919 7.45133 363.858 7.58413 363.774 7.70573C363.509 7.73254 363.245 7.75479 362.98 7.77128C362.534 7.6602 362.113 7.55366 361.691 7.47535C361.663 7.2932 361.544 7.11145 361.301 6.94639L357.799 7.64533C357.043 7.5866 356.286 7.52391 355.528 7.46789C355.856 7.34594 356.195 7.23718 356.543 7.14584L355.191 7.44313C354.158 7.37038 353.126 7.32041 352.094 7.32538L351.121 6.50549C349.208 7.01203 347.651 7.07613 345.931 7.00803C345.321 6.80631 344.756 6.64125 344.119 6.67201C343.784 6.52434 343.455 6.42015 343.13 6.3503C343.057 6.32877 342.987 6.31546 342.92 6.30949C342.637 6.2611 342.357 6.23854 342.078 6.23543L342.091 6.23165C342.087 6.23281 342.082 6.23456 342.077 6.23542C341.243 6.22582 340.423 6.39244 339.589 6.58741L339.486 6.48841C339.463 6.53215 339.449 6.5787 339.431 6.62432C339.033 6.7187 338.631 6.81698 338.222 6.90333L337.237 5.80283C335.287 6.48315 333.829 6.35694 331.891 6.18539L332.169 6.08803C330.746 5.12512 329.47 5.57389 328.12 5.99565C326.327 5.84411 325.781 5.95943 325.795 6.19058C326.549 6.137 327.305 6.09617 328.056 6.01551C327.746 6.11189 327.432 6.20517 327.111 6.27925C326.8 6.1683 326.347 6.25502 325.894 6.36785C325.837 6.30372 325.798 6.24344 325.795 6.19058C325.528 6.21008 325.26 6.22108 324.993 6.23723C325.107 6.14574 325.058 6.02404 325.509 5.86566L324.36 5.94842C324.38 5.87278 324.402 5.79535 324.438 5.7029C324.067 5.84739 323.636 5.91315 323.185 5.94192L323.086 5.65298C323.107 5.75886 323.086 5.85451 323.053 5.9482C321.623 6.01719 320.021 5.75751 319.385 6.37619C319.274 6.37544 319.163 6.37377 319.051 6.37271C318.611 6.02797 318.157 5.67276 318.144 5.4404C310.232 6.19129 302.242 4.26808 294.271 5.59889C294.383 5.65793 294.494 5.7209 294.592 5.78675C294.087 5.87831 293.832 5.96017 293.731 6.03785C293.007 5.99166 292.342 5.98685 292.484 5.51114L292.765 5.41412C290.683 5.71735 288.686 4.07572 287.434 4.09045C286.668 4.99073 283.105 3.71602 284.084 5.23864C284.079 5.23918 284.073 5.23942 284.068 5.23997L282.653 4.27443C282.419 4.58783 282.391 4.95416 282.28 5.2715C281.482 5.25627 280.775 5.2555 280.508 5.4477C280.426 5.22421 280.68 4.96386 281.254 4.76207C277.296 4.32571 272.838 4.28418 268.561 4.46827C268.564 4.45616 268.562 4.44643 268.566 4.43373C268.558 4.44759 268.545 4.45593 268.536 4.46918C267.442 4.51649 266.362 4.57703 265.303 4.65179C264.967 4.60578 264.665 4.64154 264.381 4.72183C264.106 4.74336 263.826 4.76178 263.555 4.78487L265.025 4.05983C263.643 3.69447 260.154 5.33875 261.212 3.47956C258.591 4.1896 253.996 3.03094 253.605 4.69584C253.535 4.70955 253.462 4.72233 253.393 4.73665C251.471 3.1527 247.218 3.95022 243.619 4.26583C243.574 4.241 243.529 4.21677 243.487 4.19076C243.495 4.2206 243.507 4.24654 243.516 4.27427C243.351 4.28834 243.184 4.303 243.022 4.31468C243.082 4.44744 243.103 4.55575 243.107 4.65414C242.558 4.67383 242.064 4.71635 241.635 4.7891C240.887 4.73502 240.13 4.68781 239.359 4.65015C240.265 4.16314 242.052 3.96436 242.06 3.37471C238.53 5.19696 232.175 2.44116 230.017 4.53698C229.968 4.53791 229.92 4.53853 229.871 4.53945C229.911 4.49502 229.951 4.45059 229.984 4.39393C229.899 4.44206 229.795 4.49208 229.689 4.54238C229.177 4.55372 228.668 4.56843 228.158 4.58436C227.632 4.40733 227.089 4.17911 226.643 4.09442C226.482 4.31312 226.628 4.48731 226.766 4.63105C226.232 4.65183 225.705 4.67695 225.178 4.70206C225.017 4.37138 225.147 3.93953 224.771 3.68452C224.086 3.87039 223.297 4.02888 222.493 4.18355C220.638 4.01333 216.792 5.42012 218.035 3.6485C215.824 4.1365 212.475 3.76012 210.407 3.99401C208.317 2.68603 203.791 4.56044 200.425 3.64143L199.816 4.17699C199.073 4.23861 198.328 4.30597 197.592 4.36921C197.49 4.36159 197.388 4.35305 197.284 4.34782C197.19 4.04133 197.508 3.67159 198.218 3.46782C194.518 2.72228 192.622 3.46062 189.827 3.45797C189.686 3.3403 189.735 3.16758 190.003 3.13504L186.192 3.09416C185.945 3.28509 185.281 3.60081 184.922 4.00194C184.523 3.97915 184.132 3.9607 183.753 3.94999C184.919 2.82847 181.079 3.13749 181.531 2.22032C180.89 3.00376 178.982 2.74516 177.797 3.08396L177.546 2.55458C175.275 2.00015 174.111 3.33386 172.089 3.3082C171.899 3.15593 171.863 3.04593 171.891 2.95581C171.386 3.40765 170.878 3.93382 170.133 4.25675C170.094 4.20589 170.053 4.15561 169.987 4.11292C168.725 4.42437 167.142 4.65508 165.708 4.92163C165.917 4.75937 166.267 4.60946 166.753 4.50403C166.025 4.39404 165.355 4.31998 164.72 4.26819C165.203 4.01793 165.786 3.84993 166.499 3.81009L166.786 3.22295C165.358 2.70496 163.264 3.34343 162.423 4.17815C162.021 4.17961 161.632 4.1885 161.253 4.20419L163.191 2.24529C160.871 2.30976 158.801 2.72667 156.954 3.02731C152.323 3.78164 148.276 3.90662 145.22 3.81882C144.764 3.69669 144.478 3.53779 144.65 3.28007C144.393 3.51488 143.975 3.65061 143.489 3.74269C140.826 3.58322 139.26 3.29149 139.26 3.29149L133.184 3.41348C133.167 3.39749 133.157 3.3831 133.128 3.36545C133.085 3.37979 133.048 3.40119 133.006 3.41706L132.65 3.42425C132.694 3.40232 132.752 3.38816 132.822 3.38053L128.749 3.31761C128.695 3.35519 128.623 3.39801 128.538 3.44493L126.001 3.4257C125.212 3.10342 123.45 3.03328 123.802 2.41658C123.154 3.11951 121.444 2.97262 120.174 3.17985C119.994 3.14122 119.822 3.10026 119.679 3.05268L119.528 2.72698C119.427 2.70328 119.332 2.68754 119.235 2.67027C119.239 2.63208 119.243 2.59358 119.27 2.5499C119.23 2.58887 119.171 2.61455 119.124 2.64858C117.326 2.36523 116.14 3.1344 114.611 3.37642L114.331 2.88857C114.205 2.86396 114.085 2.84701 113.964 2.82974C114.359 2.72865 114.784 2.65948 114.505 2.43996C114.273 2.53273 114.063 2.66675 113.854 2.81201C111.442 2.50081 110.025 3.581 107.817 3.6426L107.996 3.32852C107.828 3.26971 107.65 3.22958 107.466 3.1979C107.516 3.16512 107.565 3.13051 107.614 3.09863C107.532 3.12555 107.467 3.15632 107.416 3.19151C106.13 2.98819 104.541 3.40461 103.618 4.00642L102.303 4.03281L104.198 2.32804C101.715 2.37748 99.4836 2.78087 97.4958 3.06916C96.8996 3.15535 96.3185 3.22898 95.7418 3.2981C95.7252 3.29395 95.7076 3.28979 95.691 3.28564L96.5514 2.59109C93.6767 2.65697 91.1072 3.07503 88.8142 3.37689C87.5322 3.54544 86.298 3.67511 85.094 3.78572C81.02 3.66088 78.5701 3.20899 78.5701 3.20899L29.6991 3.7465C28.119 3.84735 26.8532 3.90591 25.7978 4.01228C23.9526 4.07801 22.5346 4.14383 21.3472 4.33508L20.118 4.35372C20.2338 4.30475 20.3479 4.2415 20.4554 4.15084C20.9855 3.2246 18.7445 3.80088 18.05 3.58689C17.9745 3.72134 18.4472 4.17574 19.0576 4.36988L16.2447 4.41284C16.4299 4.36655 16.6137 4.29261 16.7909 4.17913C17.5203 3.26413 14.7832 3.79974 13.9763 3.57375C13.862 3.72017 14.5006 4.26613 15.3197 4.42701L10.2805 4.50373C4.3807 4.86342 2.23956 4.7583 0.0735619 7.25802C1.20469 7.7138 4.2112 7.57819 3.98771 8.16855C4.76824 7.38954 6.83754 6.97173 9.65948 7.04756C10.0431 7.95585 6.85845 7.4898 7.67166 7.70403L8.26429 7.76713C7.97904 8.23137 7.46525 8.54955 6.51026 8.57155C9.69082 9.80152 15.1964 9.69196 18.0005 8.41901C17.9845 8.43672 17.9694 8.45141 17.9533 8.46912C18.3276 8.63032 18.9261 8.72051 19.537 8.79476C18.7659 9.23545 16.5628 9.5979 15.6816 10.0542C19.9373 10.3522 23.598 10.495 27.1778 10.5683C28.5418 10.7395 30.0115 10.7575 31.3863 10.6271C32.297 10.6349 33.2174 10.6407 34.1518 10.6452C34.0255 10.691 33.9098 10.7375 33.8108 10.7855C34.0233 10.7993 34.2263 10.8109 34.4362 10.8241C33.8249 10.9908 33.2418 11.1613 32.8816 11.3496C42.4593 12.1018 48.9268 11.9795 58.5885 12.1138C58.6031 11.8475 58.6408 11.6458 58.6955 11.4829L58.9357 11.4719L58.8223 11.3967C59.9704 11.402 61.1501 11.4082 62.3807 11.4178C62.4356 9.81012 63.3954 10.3998 64.7988 9.29908L65.7542 9.89142C65.5814 9.7861 65.6525 9.57602 65.7161 9.33489C66.8534 9.36278 68.1007 9.30126 69.5856 9.0144C69.3578 9.38252 68.4552 9.71718 67.3696 9.99467L65.1607 10.0377L65.8631 10.3271C64.6145 10.5662 63.3984 10.7252 62.8273 10.7707C63.4134 10.7994 64.1392 10.7516 64.8651 10.7001L64.0141 10.778C64.2707 10.7826 64.4468 10.9007 64.6142 11.0211L66.6729 10.6071C67.4615 10.6047 68.0502 10.6993 68.1383 11.0467L68.4242 9.88161C70.5335 9.7839 69.7477 10.2727 69.2513 10.8293L68.6376 11.119L69.0475 11.1C69.0457 11.1024 69.0457 11.1048 69.0439 11.1072L68.1381 11.2027C68.1423 11.1484 68.1509 11.0924 68.1383 11.0467L68.0976 11.2068L66.3116 11.3949C66.5771 11.3954 66.7726 11.5107 66.9593 11.6284L68.0514 11.3935L68.0061 11.5762C68.0509 11.5042 68.0674 11.4462 68.0911 11.3848L69.0078 11.1875C68.9334 11.369 68.9541 11.5466 69.1887 11.7021C74.4561 11.5845 72.8413 9.8513 73.3872 8.55617C74.0947 8.5797 74.7706 8.6587 75.4615 8.73636C74.7741 9.52106 73.9572 10.5464 72.6662 11.0129C75.3963 10.2611 77.2802 10.5528 79.3648 10.7501L79.2668 11.1453C79.3575 10.9876 79.3871 10.8639 79.3938 10.7526C79.6335 10.7749 79.8759 10.7952 80.1227 10.8134C80.075 10.9767 80.1047 11.1355 80.2832 11.2776C80.8266 11.2673 81.2798 11.2309 81.6682 11.1768C82.3625 11.1914 83.1966 11.1375 83.9891 11.0984C82.9597 11.5292 81.228 11.8753 79.8751 12.0827L78.87 11.4585L76.5927 12.3506L78.38 12.2739C78.3404 12.2773 78.2946 12.2822 78.2603 12.2848C80.0367 12.3834 83.1797 11.7256 83.367 12.5832L83.6713 11.4199C84.1815 11.3973 84.5013 11.4139 84.7074 11.4559C84.5261 11.4749 84.3597 11.4911 84.233 11.5005C84.4316 11.5096 84.6478 11.5095 84.8712 11.5056C85.4822 11.7905 83.5366 12.6602 84.3629 13.2428C86.8066 13.1959 87.719 12.7676 88.0751 12.1925C88.775 12.1792 89.3549 12.1366 89.8331 12.0684L89.7687 12.3064C89.8313 12.2137 89.8622 12.1355 89.8868 12.0602C90.2823 12.001 90.6138 11.9261 90.8821 11.835C90.7556 12.045 90.7451 12.2531 91.0331 12.4324C94.5724 12.3586 95.2088 11.6467 95.3404 10.8066C95.4685 10.6844 95.5929 10.5763 95.7128 10.4837C96.1975 10.3804 96.7078 10.2816 97.2128 10.1776C96.4647 10.6055 96.543 11.3179 95.5981 11.806C97.866 12.3983 99.7204 11.0111 98.4871 10.3547L98.5238 10.299C99.239 10.5527 100.098 10.8646 101.298 10.9394C101.144 11.1072 100.914 11.2831 100.539 11.4694C100.883 11.3016 101.283 11.1292 101.715 10.9542C102.065 10.9591 102.44 10.9442 102.848 10.9022C102.984 11.6663 100.783 11.782 100.566 12.6277C102.007 12.289 103.899 12.0445 105.336 11.645C105.309 11.6863 105.266 11.7216 105.251 11.7669C106.833 11.4424 108.897 11.2185 110.47 10.8307C109.836 11.0703 109.131 11.3151 109.015 11.7523C110.655 11.3978 112.827 11.1409 114.43 10.714C115.45 10.7575 116.391 10.7705 117.267 10.7014C116.524 10.8271 116.115 10.9693 115.885 11.1283C115.83 11.0793 115.759 11.0299 115.644 10.9796C115.717 11.0394 115.799 11.0835 115.876 11.1336C115.629 11.3082 115.598 11.5035 115.59 11.7202C115.257 11.9416 114.923 12.136 115.501 12.293C115.464 12.3821 115.409 12.4737 115.33 12.5684C115.26 12.6094 115.188 12.6495 115.106 12.6876C115.136 12.6959 115.166 12.6996 115.196 12.7073C115.047 12.8423 114.844 12.9825 114.555 13.1283C114.806 13.0039 115.09 12.8768 115.389 12.7488C116.936 13.0621 118.303 12.5107 118.546 11.9315C119.029 11.8321 119.569 11.7558 120.137 11.6981C120 11.8072 119.919 11.9082 119.991 12.0014C119.824 12.1918 119.612 12.3768 119.28 12.5366C120.954 12.9459 122.418 12.409 122.732 11.8219C123.154 11.7175 123.628 11.6371 124.13 11.578C124.204 11.5807 124.275 11.5843 124.347 11.5873C124.367 11.6528 124.41 11.7192 124.503 11.7853C124.548 11.7118 124.592 11.6537 124.635 11.5999C124.907 11.6148 125.157 11.6345 125.393 11.6565C125.23 11.8285 124.977 12.0087 124.565 12.1997C124.912 12.0419 125.314 11.8802 125.744 11.7161C126.062 11.9704 126.42 12.1903 126.915 11.8148C127.133 11.6775 127.103 11.5597 126.971 11.4452C127.726 11.4572 128.426 11.5031 128.973 11.5753L128.585 10.7398C128.873 10.6477 129.17 10.5548 129.471 10.4617C129.433 10.5796 129.388 10.7056 129.334 10.8476C129.93 10.9596 130.397 11.0239 130.784 11.0584L130.374 11.2744L132.415 11.1564C132.725 11.389 133.083 11.5604 133.598 11.2152C134.154 10.9042 133.329 10.6813 132.887 10.3779C132.859 10.3745 132.831 10.376 132.802 10.3732C133.115 10.0519 133.676 9.78017 135.659 9.95894L133.391 9.69868C134.225 9.54195 134.758 9.2583 135.139 8.91694C135.626 8.99818 136.062 9.03449 136.418 8.98724L135.681 9.1576L136.575 9.38921C136.535 9.57993 136.461 9.79362 136.345 10.0584C135.586 10.1912 135.099 10.5133 135.59 10.8201C135.886 10.3745 136.138 10.3048 136.386 10.3864C136.281 10.4003 136.186 10.4125 136.108 10.42C136.226 10.4269 136.353 10.4282 136.482 10.4267C136.703 10.5323 136.925 10.7329 137.173 10.8783C136.492 11.0378 136.186 11.2384 137.571 11.7179C137.161 11.1929 138.13 11.1799 138.709 10.5205C138.629 10.5517 138.536 10.5793 138.438 10.6061C138.43 10.5796 138.415 10.5536 138.392 10.5278C138.512 10.5287 138.615 10.523 138.713 10.5157C138.712 10.5172 138.71 10.519 138.709 10.5205C138.714 10.519 138.716 10.5169 138.72 10.5151C139.127 10.4843 139.369 10.3907 139.537 10.2653C139.874 10.2889 140.136 10.3589 140.278 10.5039C139.418 10.8603 137.294 10.8625 139.282 11.6842C138.949 11.1626 139.764 11.1477 140.287 10.5125C140.335 10.5644 140.374 10.6225 140.39 10.6949L140.437 10.4317C140.667 10.518 140.909 10.5975 141.164 10.6701C141.036 10.9083 140.998 11.1479 141.248 11.3507C142.177 11.3251 142.835 11.2205 143.306 11.0612C143.811 11.108 144.335 11.1245 144.871 11.1092C145.292 11.1298 145.722 11.132 146.164 11.0943C146.364 10.8546 146.884 10.7137 147.564 10.6243C148.173 10.7532 148.718 10.8242 149.146 10.7669L148.434 10.9349L149.92 11.3416C148.527 11.3852 147.068 11.7225 145.687 11.9963L145.613 11.8546C144.421 11.7614 143.128 11.9772 141.86 12.2224C141.555 12.1503 141.269 12.0397 141.007 11.8853C141.205 12.0905 140.931 12.2829 140.647 12.4579C139.839 12.6122 139.06 12.7417 138.348 12.7679L138.13 12.3622C137.573 12.3192 136.995 12.3567 136.411 12.434C136.326 12.392 136.246 12.3418 136.166 12.2905C136.214 12.3478 136.236 12.4039 136.223 12.4584C133.654 12.8352 130.993 13.9484 129.36 12.8679C129.854 13.447 126.89 13.9137 130.317 14.1981C131.244 13.6094 133.372 13.3514 135.397 13.3024C135.533 13.4227 135.997 13.531 137.119 13.6276C137.307 13.5216 137.544 13.4282 137.81 13.3441C138.131 13.3644 138.432 13.3896 138.697 13.4205L138.553 13.1532C139.071 13.0441 139.656 12.9606 140.279 12.9005C140.418 13.0221 140.902 13.1276 142.091 13.2122C142.393 13.0372 142.813 12.8909 143.312 12.7698C144.393 12.7742 145.405 12.8285 146.167 12.9164L145.894 12.3941C147.709 12.2469 149.71 12.2641 151.096 12.381C150.63 12.5155 149.983 12.6014 149.599 12.7238L147.622 12.7974L148.698 12.9811L149.409 13.1273C149.547 13.2295 149.797 13.3509 150.204 13.4998C149.975 13.1874 150.215 13.0555 150.564 12.8637C151.015 12.9727 151.534 13.1655 151.94 13.0272C152.279 13.0234 152.58 12.9236 152.775 12.6052L150.883 12.6758C151.003 12.5984 151.122 12.5033 151.233 12.3926C151.284 12.3972 151.341 12.4013 151.389 12.4061L151.327 12.3046C151.579 12.2045 151.676 12.0654 151.579 11.8857C151.515 12.0479 151.43 12.1859 151.326 12.303L150.9 11.6094L151.557 11.7893C151.591 11.8255 151.561 11.853 151.578 11.8857C151.625 11.7828 151.674 11.6826 151.701 11.5555C152.361 12.0185 153.309 12.4108 154.422 12.6563C154.267 12.9136 154.219 13.2047 154.33 13.5396L155.057 13.3522C155.07 13.3939 155.062 13.4311 155.08 13.4742L157.567 12.9018C157.669 12.8964 157.77 12.8979 157.873 12.8898C157.889 12.8721 157.921 12.8585 157.941 12.8417C158.089 12.9131 158.275 12.9909 158.529 13.0799C158.325 12.8033 158.505 12.6699 158.812 12.5127C159.809 12.3131 161.382 12.2735 162.911 12.2287C163.307 12.3201 163.729 12.3896 164.165 12.4441C164.168 12.4451 164.17 12.446 164.173 12.4469C164.172 12.446 164.172 12.4457 164.172 12.4448C164.995 12.5475 165.875 12.5853 166.792 12.5218C167.179 12.1441 168.498 12.0109 170.062 11.9472C170.037 12.3302 170.119 12.748 170.184 13.0733C168.251 13.4575 166.57 14.1256 167.028 15.3114L169.871 14.6438L168.381 14.5949C168.977 13.9979 169.434 13.6626 170.213 13.2211C170.225 13.2823 170.236 13.3389 170.242 13.3884C170.524 13.1937 170.875 13.0571 170.861 12.9486C171.3 12.8757 171.738 12.81 172.156 12.7638C171.916 12.6037 171.601 12.4705 171.012 12.7841C170.935 12.8254 170.871 12.8598 170.81 12.893C170.74 12.8503 170.594 12.8115 170.322 12.7751L171.183 11.9124C171.874 11.895 172.578 11.8821 173.248 11.8621C173.252 12.3638 173.45 12.9093 173.513 13.2175C174.027 12.9009 174.762 12.7332 173.582 12.6034L174.463 11.8089C175.538 11.7456 176.404 11.6324 176.755 11.3917C176.067 11.5381 175.436 11.6005 174.73 11.5673L175.059 11.2708C175.703 11.2216 176.421 11.1913 177.162 11.1676C177.345 11.1801 177.54 11.1904 177.759 11.1946L175.483 11.9292C177.222 13.1439 177.542 12.1902 178.31 11.7686C178.33 11.9191 178.656 12.0479 179.713 12.1491C179.792 12.0873 179.91 12.0389 180.01 11.984C180.158 12.0368 180.321 12.088 180.523 12.1348C180.382 12.0502 180.251 11.9809 180.127 11.919C181.64 11.1884 184.97 11.1168 186.706 11.3512L186.413 10.7333C186.82 10.8402 187.384 10.9136 188.204 10.9321L185.738 11.6544C185.935 11.7855 186.108 11.8835 186.273 11.9681C184.168 12.3609 182.369 13.0352 182.89 14.2034L184.545 13.8479C184.562 14.3225 184.726 14.8211 184.777 15.1101C185.276 14.7951 185.987 14.6295 184.853 14.4964L185.871 13.5627L186.038 13.5269L185.914 13.5235L186.778 12.731C186.173 12.6134 185.729 12.6089 185.4 12.678C185.709 12.4735 186.046 12.2819 186.473 12.0637C187.552 12.5362 187.974 12.0135 188.552 11.6406C188.777 11.7693 188.954 11.9162 189.189 11.8757C189.037 12.0529 188.622 12.1832 187.865 12.2037C188.572 13.1205 190.114 11.8193 191.411 12.2447C191.168 11.9685 191.563 11.6556 191.452 11.3741C191.558 12.377 194.628 11.816 195.767 11.1115C195.893 11.1965 196.074 11.2928 196.337 11.4056C196.101 11.0346 196.423 10.9165 196.794 10.6494C197.04 10.7696 197.358 10.8845 197.837 10.9833C197.472 10.7888 197.162 10.6639 196.887 10.5801C197.013 10.4818 197.14 10.3647 197.249 10.21C197.041 10.3097 196.742 10.3832 196.452 10.4531C196.082 10.206 195.901 9.96523 195.356 9.82197C195.427 9.77458 195.492 9.72773 195.548 9.68197C195.846 9.65344 196.14 9.63277 196.432 9.61753C196.472 9.65261 196.506 9.68794 196.558 9.72165C196.908 9.7918 197.191 9.82289 197.437 9.83197C197.388 9.97615 197.327 10.1035 197.249 10.2103C197.442 10.1189 197.507 9.99035 197.456 9.83311C197.679 9.84009 197.863 9.82413 198.014 9.78957C198.572 10.1388 199.278 10.4215 200.07 10.6036C199.512 10.5819 198.94 10.5336 198.397 10.4626C200.014 10.6745 201.032 11.4097 200.276 11.772C200.258 11.7769 200.238 11.7812 200.22 11.7864C200.225 11.7877 200.228 11.7884 200.233 11.7896C199.993 11.892 199.608 11.9629 199.029 11.9758C199.543 12.6159 200.516 12.1819 201.528 12.0043C201.85 12.0186 202.169 12.0079 202.485 11.979C202.122 12.5664 202.515 13.5027 202.61 13.9467C203.16 13.6299 203.948 13.4623 202.686 13.3327L204.653 11.682C204.993 11.6543 205.351 11.5997 205.705 11.5261C205.893 11.5144 206.082 11.5067 206.274 11.5103C206.192 11.4883 206.103 11.476 206.018 11.4568C206.183 11.4166 206.342 11.3727 206.498 11.3258C206.955 11.4342 207.537 11.2714 208.156 11.1318C208.599 11.1247 209.034 11.0721 209.452 10.9819C209.617 10.9918 209.779 11.0144 209.938 11.0607C209.88 11.002 209.858 10.9413 209.852 10.88C210.079 10.8135 210.3 10.7388 210.507 10.6464C210.886 10.7484 211.43 10.7478 212.012 10.683C211.473 11.0443 210.497 11.3644 210.075 11.7553C210.363 11.7919 210.628 11.817 210.907 11.8493C210.477 12.2019 210.264 12.6369 210.452 13.1874L212.819 12.5156L211.571 12.469C211.725 12.2815 211.866 12.1208 212.009 11.9739C216.646 12.4395 220.19 12.3445 225.194 12.4342C225.194 12.4321 225.194 12.4306 225.194 12.4288C225.237 12.6366 225.282 12.8232 225.305 12.961C225.719 12.6452 226.311 12.4792 225.36 12.347L226.759 10.7849C226.816 10.9271 226.93 11.0638 227.162 11.1887C229.688 11.6066 229.746 10.8182 229.796 10.0694C230.136 9.99036 230.485 9.95912 230.816 10.0876C230.608 9.8116 230.933 9.4984 230.837 9.21676C230.925 10.0619 232.758 9.79392 233.899 9.26639C234.268 9.41053 234.527 9.58519 234.613 9.7978C234.307 10.3874 233.938 10.9733 233.427 11.2951C236.189 9.96915 237.527 11.8364 240.547 10.8086C240.235 11.7363 237.503 12.449 236.75 12.5533C237.796 12.6471 239.622 11.9811 239.758 12.8384L239.903 11.674C241.731 11.5297 239.721 12.7541 240.362 13.4956C243.932 13.3657 241.882 10.899 243.06 9.65687C243.614 9.92802 244.088 10.2322 244.401 10.5845C245.375 10.5421 246.038 10.4139 246.499 10.2323C246.504 10.5562 246.609 10.8886 246.688 11.1209C247.541 9.6058 248.046 10.2454 249.014 10.7587C249.016 10.8152 249.015 10.8689 249.027 10.9322C249.081 10.8994 249.13 10.8749 249.183 10.8445C249.685 11.0859 250.309 11.2657 251.152 11.1142C251.252 11.8782 249.964 11.9987 249.86 12.8449C251.303 12.2552 253.55 11.9464 253.807 10.6362C256.312 10.6201 258.119 11.0927 259.616 10.8855C257.832 11.4082 259.354 12.1956 258.089 13.3174C259.286 12.277 261.532 11.0938 263.66 9.85654C264.283 9.80498 264.909 9.72948 265.519 9.63436C264.934 9.82327 264.545 10.0984 264.677 10.7392C265.508 10.2646 266.192 10.0302 266.842 9.90491C266.848 10.197 266.805 10.523 266.708 11.0093C269.095 11.7588 268.265 10.5424 269.129 10.1651L269.537 10.2004L269.373 10.0934C269.614 10.0466 269.936 10.0408 270.401 10.1106L269.062 9.85378C269.176 9.81693 269.267 9.76462 269.363 9.7148C270.235 9.67024 271.251 9.56642 272.6 9.19472L272.411 9.09225L272.491 9.05985C272.873 9.27213 272.882 9.50626 272.084 9.73961C272.565 9.76402 272.953 9.75845 273.299 9.73961C273.273 9.96421 273.209 10.1653 273.214 10.2989C273.128 10.3239 273.051 10.3494 272.949 10.373C273.047 10.3818 273.136 10.3753 273.224 10.3618C273.248 10.4438 273.322 10.4841 273.499 10.4602C273.56 10.3468 273.628 10.2508 273.702 10.1698C273.73 10.1516 273.758 10.1359 273.786 10.1159C273.771 10.1208 273.757 10.1255 273.743 10.1305C273.816 10.0565 273.897 9.99674 273.982 9.94982C273.919 10.0098 273.854 10.066 273.786 10.1159C274.085 10.0169 274.329 9.91339 274.548 9.80772C275.771 9.77899 277.488 11.0982 278.349 10.8981L277.934 11.0672L279.791 11.9177C279.812 11.954 279.795 11.9814 279.806 12.0141C279.831 11.9112 279.856 11.8107 279.869 11.6837C280.641 12.5761 282.03 13.2147 283.529 13.0091C284.047 11.9931 288.278 12.682 288.925 11.817C288.306 12.069 287.767 12.0909 286.962 11.813L287.017 10.5859C288.438 10.6106 287.17 11.7266 288.489 10.9916C288.156 9.31779 286.525 10.9851 285.52 10.7928C285.86 10.4097 286.342 10.0765 286.95 9.90885C284.952 9.8413 283.009 9.26298 281.725 10.9285C281.213 10.6141 281.322 10.0491 281.629 9.79485C281.024 10.1538 280.769 9.91181 280.531 9.67365C282.426 9.81068 284.273 9.4378 286.105 9.15549L286.04 9.20599L288.447 9.37143L287.674 8.94978C288.343 8.88361 289.012 8.85476 289.681 8.88966C289.593 9.08314 289.503 9.26841 289.421 9.44467C289.403 9.44991 289.392 9.45524 289.373 9.46077C289.388 9.46125 289.399 9.46079 289.414 9.46127C289.22 9.88869 289.124 10.2648 289.519 10.5713C291.579 11.3384 291.508 9.96162 292.618 9.30896C292.715 9.33595 292.799 9.36855 292.875 9.40439C292.734 9.44455 292.587 9.48402 292.407 9.52128C292.614 9.53596 292.795 9.50844 292.961 9.45432C293.099 9.53462 293.201 9.62904 293.277 9.73438L293.211 9.74754C293.252 9.77111 293.288 9.7849 293.327 9.80572C293.54 10.1543 293.556 10.5831 293.869 10.8905L293.155 11.4548L294.666 11.5683L293.85 12.0248C295.257 13.648 295.075 11.3872 296.095 11.7181C295.742 11.298 295.719 10.884 294.576 10.9255C294.427 10.3312 295.289 10.0932 295.703 10.0248L295.432 9.97688C295.503 9.84965 295.565 9.72142 295.625 9.5968C296.082 9.3784 296.608 9.20485 297.389 9.37618C297.652 9.54816 298.204 9.60167 298.607 9.71557C298.315 9.83522 298.047 9.96063 297.834 10.0986C297.929 10.134 298.007 10.1565 298.093 10.1846C297.361 10.1793 296.472 10.1368 295.897 10.4157C296.772 10.4908 297.363 10.5195 297.801 10.5094C297.697 10.5792 297.594 10.655 297.494 10.743L297.937 10.5041C298.303 10.487 298.556 10.4385 298.776 10.3614C299.578 10.4835 299.77 10.1426 300.039 9.90064C300.472 9.87377 300.875 9.86534 301.203 9.81503C301.272 9.83832 301.346 9.86625 301.423 9.89693L301.404 10.0023C301.443 9.98278 301.48 9.95955 301.516 9.93602C301.587 9.96572 301.65 9.98895 301.728 10.0248C301.44 10.2532 301.195 10.5397 300.954 10.8148C300.879 10.8005 300.803 10.7893 300.729 10.7723C300.802 10.789 300.872 10.809 300.939 10.8322C300.705 11.0989 300.472 11.3541 300.204 11.5335C300.708 11.3824 301.086 11.2222 301.401 11.057C302.081 11.5012 302.238 12.2298 301.133 12.283C301.571 13.199 302.444 11.8957 303.217 12.3195C303.066 12.0435 303.291 11.7303 303.218 11.4487C303.326 12.6774 305.988 11.5527 305.984 10.6991L304.63 11.3792C304.581 11.0744 304.714 10.8059 304.896 10.5593C305.477 10.3187 305.874 10.0039 306.285 9.71668C306.887 9.82998 307.706 9.55165 308.442 9.40313C308.886 9.74457 309.05 10.143 310.278 9.81048C310.166 10.1606 309.651 10.2839 311.836 10.0587C311.209 9.49164 311.472 9.36313 312.117 9.38499C312.833 9.73037 313.326 9.70119 313.767 9.5436C313.793 9.54634 313.818 9.54908 313.844 9.55152C313.82 9.61679 313.789 9.68591 313.741 9.76333C313.941 9.75819 314.121 9.73733 314.302 9.71709L314.77 9.96958L314.899 9.62817C315.396 9.64367 315.853 9.61465 316.201 9.50206C316.519 10.066 315.914 10.8477 316.5 11.4052C317.758 11.7775 317.888 11.1715 317.905 10.4997L319.028 9.90212C319.348 10.0253 319.601 10.158 319.818 10.2921L319.63 10.4725L319.935 10.3652C320.027 10.4285 320.101 10.4904 320.167 10.5535C319.985 10.7503 319.797 10.932 319.584 11.0702C319.883 10.9831 320.131 10.893 320.359 10.8017C320.365 10.8142 320.368 10.8267 320.373 10.8392C320.377 10.824 320.374 10.8082 320.379 10.7934C320.891 10.586 321.254 10.3695 321.549 10.1491C322.388 10.3597 323.175 10.6407 323.113 11.1932C324.234 11.0449 324.4 10.5679 325.306 10.281C326.135 10.8187 326.766 11.2279 327.753 10.6017L328.457 10.7099L327.755 11.2203L328.495 11.0224C328.565 11.0269 328.628 11.0231 328.687 11.0162C328.976 11.9868 326.179 11.2116 324.869 11.7866C328.914 12.092 327.608 11.6258 330.615 10.7579C331.509 10.8283 332.76 10.4147 333.9 10.0435C333.905 10.0478 333.909 10.0518 333.912 10.0561C333.386 10.2809 333.667 10.4021 334.25 10.5049C334.267 10.5336 334.291 10.5594 334.307 10.5888C334.4 10.5817 334.473 10.5659 334.557 10.5545C335.43 10.6839 336.678 10.8063 337.197 11.1119C337.153 11.0431 337.099 10.9796 337.051 10.9134C337.265 10.6896 337.46 10.5226 337.646 10.3932C338.549 10.447 338.856 10.7571 339.177 10.9993L338.858 11.2157C338.974 11.1783 339.135 11.1271 339.301 11.0858C339.439 11.1752 339.593 11.2466 339.807 11.275L339.036 12.2095L341.511 11.5812L341.705 11.6794L341.762 11.5178L342.265 11.3901L341.835 11.3104L341.956 10.9668L341.177 11.1889L341.013 11.1586C341.012 11.1492 341.006 11.1412 341.004 11.1321C341.073 11.1141 341.135 11.1009 341.209 11.0794C340.894 10.8977 340.512 10.6477 340.086 10.4288C340.077 10.4202 340.064 10.4116 340.059 10.4027L340.048 10.4099C339.654 10.2102 339.223 10.0395 338.771 9.97595C338.885 9.96339 339.003 9.95543 339.123 9.9484L339.2 10.0006L339.218 9.94258C339.62 9.91957 340.067 9.89075 340.631 9.7037C340.915 9.87048 341.097 10.0369 341.171 10.1963C341.296 9.60986 341.943 9.0769 342.811 8.65683C342.992 8.65054 343.175 8.65158 343.363 8.65933C343.059 8.8356 343.022 9.00421 343.585 9.22539C343.222 9.25008 342.877 9.3087 342.61 9.45051C343.054 9.48903 343.418 9.51413 343.726 9.52762C343.422 9.58641 343.123 9.64285 342.864 9.71282C343.12 9.80854 343.445 9.86989 343.808 9.90073L342.146 10.1727C343.542 10.1649 345.227 10.0741 344.872 10.9114L344.585 10.8585L342.967 12.4255C345.64 12.4169 344.417 11.332 347.091 11.322L345.587 11.0437C347.12 10.8491 347.957 10.2399 347.608 9.68288L349.918 9.98615C349.984 10.0698 350.031 10.1439 350.065 10.2117C349.792 10.466 349.389 10.6596 349.014 10.8231C348.088 10.8488 346.808 10.7639 346.048 11.0922C347.084 11.1537 347.786 11.1739 348.308 11.1587C347.949 11.3819 348.007 11.5954 349.208 11.9364L351.399 10.8854C351.8 11.4027 355.358 11.4335 355.229 12.5249C356.478 12.3754 356.66 11.8983 357.668 11.6105C358.642 12.1733 359.368 12.598 360.559 11.8329C355.944 11.1638 356.472 10.888 353.754 10.5962L353.759 10.582L355.087 10.6638L355.603 10.0828L353.821 10.4306L354.001 9.98879L353.067 10.2366L352.026 10.0308C352.065 10.0194 352.097 10.0086 352.138 9.99694C352.761 10.0358 353.531 9.87012 354.319 9.64394C354.67 9.73443 355.026 9.74122 355.426 9.61013C356.524 9.76653 357.581 9.41707 358.631 9.12973C358.611 9.15924 358.583 9.18986 358.573 9.21826C358.907 9.26909 359.199 9.28937 359.466 9.2905C359.296 9.35945 359.127 9.44358 358.96 9.55749C360.069 9.48455 360.587 9.67454 360.956 9.89426C360.047 9.89405 358.942 9.85684 358.239 10.1399C359.941 10.2485 360.79 10.2501 361.368 10.1624C361.762 10.4146 362.206 10.5697 363.515 10.1957C363.262 10.0676 362.968 9.904 362.647 9.74254C362.946 9.61659 363.321 9.46852 363.858 9.30086C363.903 9.30628 363.947 9.31198 363.995 9.31742L362.962 9.67082C363.739 10.4106 364.038 9.71678 364.557 9.38136C365.053 9.4372 365.568 9.50088 366.014 9.58587L365.693 9.64385L366.081 9.66955C365.934 9.77792 365.796 9.89006 365.687 10.0138C366.592 10.5767 366.756 10.1996 366.932 9.88788C367.016 9.98361 367.109 10.074 367.168 10.1782C367.184 10.0585 367.088 9.95991 366.94 9.87371C366.969 9.82307 366.998 9.77426 367.031 9.73248L367.456 9.76044C367.469 9.87352 367.435 10.0088 367.327 10.1768C367.512 10.1703 367.673 10.1492 367.844 10.1334C367.762 10.2729 367.687 10.4237 367.613 10.5752C367.112 10.461 366.559 10.3635 365.925 10.2896L365.647 11.0016C364.152 11.0088 364.92 10.5802 363.855 10.2533C364.216 10.4641 364.042 10.7242 363.754 10.9902L363.456 10.7061L362.98 11.3796L363.266 11.4153C363.125 11.5401 363.008 11.6616 362.963 11.774C365.383 12.1718 365.768 10.9539 367.419 10.9759C367.326 11.1545 367.231 11.319 367.124 11.4452C367.395 11.3034 367.604 11.1539 367.777 11C367.939 11.0181 368.109 11.0435 368.296 11.0859C367.668 11.2348 367.308 11.3512 367.12 11.4482C367.121 11.4473 367.122 11.4464 367.123 11.4455C367.116 11.449 367.11 11.4526 367.103 11.4565C367.081 11.468 367.054 11.4798 367.039 11.4909C366.902 11.5654 366.77 11.6397 366.585 11.7069C366.733 11.726 366.855 11.6774 366.967 11.5929C366.993 11.9247 370.011 11.9434 370.94 12.4331C370.4 11.6774 369.525 11.0918 368.075 10.6938C368.253 10.4807 368.39 10.2627 368.532 10.0456C368.833 9.99129 369.1 9.92383 369.333 9.84382C369.547 9.95116 369.556 10.1613 369.563 10.3726L369.062 10.9223L370.984 10.4863C371.088 10.6199 371.427 10.7655 372.162 10.9466L374.42 9.8639C374.49 9.93974 374.64 10.0032 374.834 10.0611L373.626 11.1117C375.536 11.0956 375.715 10.6802 376.297 10.357C377.45 10.5618 378.691 10.8228 378.668 11.449C379.993 11.2816 380.146 10.8018 381.2 10.4993C382.136 10.9691 382.871 11.3375 383.818 10.9454L383.86 10.9684C383.918 11.7774 382.347 11.087 381.623 11.643C383.481 11.8728 383.421 11.6411 384.126 11.114L384.375 11.2509C384.815 10.913 386.795 10.5608 386.279 10.2826L386.064 10.3127C386.533 10.0863 387.022 9.7787 387.441 9.56681C386.957 9.72266 386.533 9.79062 386.154 9.80177L387.702 9.11805C387.743 9.16347 387.818 9.20385 387.907 9.24228C388.115 9.64669 387.015 10.1787 386.882 10.5859C387.011 10.6035 387.126 10.6125 387.244 10.6231L386.665 11.2476C388.118 11.2354 388.328 10.8652 388.741 10.5531C389.016 10.4924 389.255 10.4104 389.477 10.3196C390.128 10.642 389.986 11.5029 391.201 10.8919C390.975 10.6779 390.692 10.3685 390.378 10.1285C390.414 10.1277 390.444 10.125 390.482 10.1246L390.333 10.096C390.292 10.0652 390.249 10.0355 390.206 10.0077C390.354 9.94726 390.504 9.89113 390.665 9.84515C390.974 9.92208 391.255 10.0102 391.48 10.1162C390.818 10.3664 391.214 10.4835 391.984 10.5776C391.999 10.6288 392.011 10.6814 392.005 10.7381C392.222 10.7138 392.403 10.6793 392.568 10.6406C392.818 10.6652 393.08 10.6903 393.347 10.7175C393.334 10.7766 393.316 10.8395 393.291 10.9078C393.539 10.8962 393.755 10.8482 393.956 10.786C394.164 10.8116 394.363 10.8411 394.553 10.8731L395.335 11.4048C395.344 11.3952 395.365 11.3857 395.376 11.3761C395.476 11.479 395.645 11.5919 395.928 11.725L397.182 10.6667C397.254 10.8139 397.478 10.9205 397.757 11.0234L397.491 11.1883C397.6 11.156 397.746 11.1141 397.901 11.0753C398.111 11.1483 398.342 11.223 398.561 11.3113L397.811 12.179L399.338 11.8226ZM84.6264 10.7517C83.7357 10.9019 82.8622 11.0151 82.1897 11.0861C82.5133 11.0132 82.7702 10.9217 82.9781 10.8159C83.5501 10.7676 84.1577 10.6858 84.8151 10.5576C84.773 10.6236 84.7063 10.688 84.6264 10.7517ZM88.4553 10.8683C88.4147 10.877 88.3733 10.8856 88.3327 10.8942C88.3394 10.7828 88.3495 10.6725 88.3658 10.5628C88.4345 10.5503 88.5033 10.5381 88.572 10.5256C88.6536 10.6128 88.5879 10.731 88.4553 10.8683ZM89.7422 3.76978C90.0262 3.55199 90.7739 3.44003 92.5118 3.52596C92.6408 3.54484 92.7478 3.56497 92.8451 3.58528C91.7662 3.67102 90.7255 3.73386 89.7422 3.76978ZM95.5518 9.26914C95.5744 9.22085 95.6013 9.17353 95.6309 9.12684C95.7681 9.12215 95.9062 9.11929 96.0425 9.11064C95.8486 9.15501 95.6844 9.20733 95.5518 9.26914ZM100.763 4.06344L100.685 4.06492L100.994 3.56637C100.266 3.35257 99.3941 3.34099 98.5452 3.45413C98.4821 3.44152 98.4189 3.42678 98.3558 3.41296C98.6525 3.23326 99.3137 3.15121 100.681 3.23867C101.911 3.45648 101.365 3.77002 100.763 4.06344ZM107.272 10.6498C107.322 10.5809 107.364 10.5095 107.393 10.4339C107.472 10.4337 107.543 10.4364 107.621 10.4364C107.528 10.5133 107.413 10.5847 107.272 10.6498ZM121.519 10.7174C121.164 10.8138 120.92 10.9447 120.737 11.0963C120.694 11.0688 120.656 11.0297 120.615 10.9989C120.654 11.051 120.672 11.1025 120.667 11.1525C120.652 11.1663 120.641 11.1807 120.626 11.1948C119.904 11.3517 119.203 11.4949 118.543 11.5669C118.542 11.566 118.543 11.5648 118.542 11.5639C119.17 11.3482 119.825 11.1288 120.499 10.9067C120.536 10.9393 120.575 10.9696 120.615 10.9989C120.59 10.967 120.557 10.9347 120.513 10.9023C120.897 10.7759 121.285 10.648 121.677 10.5199C121.605 10.583 121.552 10.6486 121.519 10.7174ZM123.122 10.0456C123.151 10.0359 123.18 10.0262 123.21 10.0166C123.243 10.0146 123.278 10.0153 123.311 10.013C123.239 10.0233 123.187 10.0348 123.122 10.0456ZM125.689 10.8221C125.524 10.8602 125.359 10.8997 125.195 10.9396L125.084 10.747C125.294 10.6837 125.505 10.6202 125.719 10.5563C125.698 10.641 125.691 10.7299 125.689 10.8221ZM154.412 9.9718C154.428 9.96077 154.453 9.95256 154.466 9.94119C154.451 9.94496 154.437 9.94752 154.423 9.95129C154.443 9.92362 154.474 9.89941 154.499 9.87332C154.591 9.89629 154.681 9.91894 154.771 9.94129C154.645 9.96554 154.52 9.98587 154.396 10.0035C154.402 9.99323 154.405 9.98204 154.412 9.9718ZM151.685 9.32196L151.691 9.26558C151.744 9.27259 151.795 9.2796 151.848 9.28753C151.797 9.29541 151.741 9.30869 151.685 9.32196ZM152.756 9.45344C153.262 9.56101 153.773 9.68958 154.272 9.8159C153.468 9.96934 153.141 9.66789 152.756 9.45344ZM154.898 10.8058C154.419 10.6296 154.276 10.3762 154.333 10.1423C154.564 10.0963 154.749 10.0391 154.898 9.9732C155.03 10.0058 155.159 10.0365 155.286 10.0669C155.034 10.2283 154.827 10.4146 154.781 10.6702C154.953 10.6207 155.135 10.5734 155.321 10.5268C155.177 10.6122 155.036 10.7046 154.898 10.8058ZM159.515 4.30797C158.937 4.35037 158.363 4.39525 157.777 4.43207C157.578 3.70118 156.955 2.99302 159.939 3.17767C161.515 3.46285 160.033 3.94644 159.515 4.30797ZM167.186 7.86996C167.216 7.86638 167.246 7.8628 167.276 7.85922C167.291 7.86638 167.299 7.87317 167.315 7.88064L167.186 7.86996ZM167.917 8.77156C167.851 8.76256 167.787 8.75268 167.728 8.73799C167.82 8.73638 167.91 8.73385 168 8.7307C167.971 8.74339 167.944 8.75885 167.917 8.77156ZM168.59 8.71547C168.483 8.73965 168.375 8.76352 168.285 8.78883C168.188 8.79371 168.1 8.79171 168.016 8.78523L168.212 8.71812C168.344 8.71124 168.478 8.70589 168.606 8.69441C168.6 8.70162 168.595 8.70855 168.59 8.71547ZM175.357 8.18185C175.158 8.10959 174.96 8.01946 174.773 7.92338C175.044 7.91334 175.308 7.90473 175.562 7.89691C175.47 7.98685 175.395 8.08033 175.357 8.18185ZM178.815 11.216C178.771 11.1833 178.72 11.1532 178.67 11.1235C178.745 11.1211 178.82 11.1183 178.895 11.1159C178.874 11.1497 178.847 11.183 178.815 11.216ZM179.348 11.1008C181.012 11.0393 182.456 10.9325 182.929 10.6035C181.752 10.8574 180.731 10.881 179.218 10.6054L179.246 10.3599C179.697 10.4018 180.07 10.3973 180.393 10.3597C180.486 10.4443 180.63 10.5213 180.883 10.596C180.734 10.4831 180.576 10.4135 180.419 10.3573C180.895 10.299 181.261 10.1681 181.59 10.0016C182.246 10.0045 183.062 9.85905 183.762 9.64483C184.029 9.69332 184.248 9.75277 184.366 9.83587L183.737 10.0352C184.164 9.95966 184.597 9.91183 185.023 9.8785C184.715 9.94849 184.417 10.0247 184.148 10.11C184.483 10.2261 184.812 10.2896 185.135 10.3194C183.063 10.5563 180.864 11.728 179.348 11.1008ZM184.575 13.4895L184.389 13.4845C184.474 13.4057 184.557 13.333 184.638 13.2626C184.609 13.3348 184.589 13.4105 184.575 13.4895ZM189.067 9.65635C189.791 9.26001 190.319 8.69282 191.343 8.59852C191.52 8.76306 191.622 8.94339 191.738 9.12085C191.615 9.23135 191.486 9.34602 191.368 9.45809C190.702 9.55527 190.071 9.68564 189.527 9.83833C189.35 9.78639 189.167 9.74347 188.979 9.70839C189.087 9.69606 189.19 9.68579 189.28 9.67839L189.067 9.65635ZM188.264 4.19582C188.267 4.20162 188.268 4.20681 188.27 4.21229C188.259 4.21186 188.25 4.21113 188.239 4.2107C188.247 4.20564 188.257 4.2009 188.264 4.19582ZM185.688 4.04926C186.2 3.88828 186.935 3.87148 188.027 4.07485C187.921 4.11301 187.814 4.14934 187.704 4.182C187.026 4.14182 186.35 4.09287 185.688 4.04926ZM188.56 11.6401C188.719 11.5373 188.893 11.4496 189.095 11.3956C189.158 11.4565 189.199 11.5174 189.226 11.5775C189.011 11.5955 188.789 11.6159 188.56 11.6401ZM189.129 10.8348C188.79 10.6634 188.271 10.5502 187.155 10.5657C187.084 10.3815 187.199 10.236 187.399 10.1161C188.095 9.98319 188.794 9.84362 189.52 9.8516C190.026 9.9959 190.515 10.0553 190.995 10.0642C191.056 10.1852 191.308 10.2435 191.899 10.1879C191.715 10.6801 190.508 10.858 189.129 10.8348ZM196.387 10.4717C195.986 10.5685 195.625 10.663 195.567 10.815L194.715 11.0622C195.155 10.7577 195.563 10.3699 196.387 10.4717ZM202.916 11.3025C202.921 11.2543 202.921 11.2064 202.902 11.1594C202.907 11.212 202.932 11.2548 202.954 11.2991C202.94 11.2998 202.928 11.3015 202.916 11.3025ZM205.486 11.1003C205.45 10.9429 205.505 10.7958 205.608 10.6556C205.821 10.7474 206.043 10.826 206.273 10.8911L205.486 11.1003ZM226.318 10.4921C226.358 10.4398 226.399 10.3838 226.44 10.3212L226.613 10.5212C226.507 10.5056 226.41 10.4969 226.318 10.4921ZM226.29 9.17991C226.456 9.24234 226.611 9.29039 226.763 9.3308C226.851 9.44115 226.886 9.55873 226.885 9.68103C226.808 9.47218 226.647 9.28657 226.29 9.17991ZM232.854 9.14918C232.842 9.09136 232.841 9.03489 232.845 8.97909C232.95 8.99981 233.054 9.02111 233.153 9.04418L232.854 9.14918ZM247.584 9.14526C247.615 9.05701 247.645 8.96845 247.672 8.87955C247.791 8.90528 247.907 8.9322 248.016 8.96116C247.868 9.00882 247.724 9.07049 247.584 9.14526ZM251.893 9.17616C251.746 9.15554 251.597 9.13278 251.447 9.10757C251.504 9.0679 251.551 9.02295 251.59 8.97335L252.239 8.64862L252.573 8.63693C252.386 8.86956 252.15 9.04 251.893 9.17616ZM255.355 9.68446C255.692 9.61544 256.05 9.53119 256.443 9.41732L256.202 9.27506C256.397 9.14055 256.628 9.03471 256.884 8.95134C257.134 9.02937 257.373 9.11365 257.607 9.20028C257.591 9.21405 257.583 9.22669 257.566 9.24106C257.647 9.24994 257.706 9.2537 257.778 9.26035C257.847 9.2873 257.908 9.31718 257.975 9.34502C258.049 9.57296 258.254 9.81435 258.642 10.0774L255.355 9.68446ZM279.894 5.59498C279.746 5.55887 279.602 5.52767 279.463 5.50077L279.005 5.266C279.187 5.20206 279.39 5.14597 279.648 5.10815C280.183 5.30077 280.37 5.4624 280.372 5.60751C280.212 5.60343 280.053 5.59966 279.894 5.59498ZM295.172 11.288L295.023 11.3711L294.836 11.2629C294.94 11.2745 295.049 11.2843 295.172 11.288ZM294.613 6.1564C294.484 6.12174 294.346 6.09697 294.203 6.07883L294.598 5.7932C294.664 5.83771 294.712 5.88535 294.75 5.93528C294.721 6.01234 294.679 6.08649 294.613 6.1564ZM301.675 10.9083C302.141 10.6248 302.445 10.3292 302.792 10.0372L302.908 10.0474C302.897 10.2291 303.028 10.3309 303.453 10.2614C303.35 10.7877 302.554 10.9607 301.675 10.9083ZM309.575 9.09254L309.534 9.03102C309.54 9.0317 309.544 9.03175 309.55 9.03244C309.973 9.21547 310.166 9.38023 310.248 9.52571C310.043 9.38631 309.818 9.23392 309.575 9.09254ZM313.3 8.48617C313.36 8.46656 313.42 8.44848 313.479 8.42856C313.496 8.43394 313.511 8.43957 313.529 8.44495L313.3 8.48617ZM315.1 5.67996C315.289 5.80824 315.525 5.91978 315.775 6.02362C315.539 6.0365 315.297 6.05752 315.053 6.08368L315.1 5.67996ZM316.374 8.53048C316.349 8.34927 316.229 8.16781 315.975 8.00262L315.574 8.0751C315.438 7.99331 315.313 7.91316 315.193 7.834C315.514 7.72713 315.839 7.62762 316.17 7.53879C316.458 7.71442 316.701 7.79023 316.915 7.79559C316.733 8.03891 316.572 8.30799 316.374 8.53048ZM317.337 9.46589L316.684 9.60237C316.759 9.51831 316.84 9.44524 316.924 9.37645C317.076 9.39955 317.228 9.42146 317.373 9.44903C317.361 9.45464 317.349 9.46027 317.337 9.46589ZM323.514 9.5582C323.266 9.4978 323 9.44083 322.671 9.38581C323.15 9.36647 323.461 9.39425 323.658 9.45403L323.514 9.5582ZM326.23 9.06058C326.29 9.02186 326.354 8.9847 326.417 8.94813L327.561 9.02892C327.6 9.04244 327.637 9.05627 327.674 9.07068C327.219 8.99954 326.749 8.98257 326.23 9.06058ZM328.049 6.80581C328.404 6.69451 328.846 6.6471 329.433 6.69831C328.967 6.72841 328.506 6.76496 328.049 6.80581ZM330.242 9.60414C330.234 9.63744 330.233 9.67354 330.238 9.71276C329.963 9.65081 329.704 9.58238 329.454 9.51346L330.15 8.86515C330.571 9.26124 329.98 9.53599 330.242 9.60414ZM332.074 8.81616C332.078 8.81772 332.081 8.81898 332.084 8.82053C331.947 8.9515 331.817 9.08801 331.689 9.22363C331.427 8.92418 331.626 8.82433 332.074 8.81616ZM332.466 9.68114C332.189 9.68231 332.012 9.66163 331.876 9.63053C332.168 9.50813 332.408 9.38237 332.617 9.25472L332.466 9.68114ZM332.777 9.96632C333.016 9.853 333.26 9.7534 333.543 9.69828C333.622 9.76359 333.695 9.83127 333.768 9.90105C333.416 9.93833 333.087 9.95889 332.777 9.96632ZM337.057 10.3669C337.042 10.3767 337.027 10.3832 337.013 10.3936C337.026 10.3929 337.036 10.3936 337.049 10.3929C337.02 10.5273 337.013 10.6896 337.036 10.8871C336.748 10.506 336.37 10.1727 335.872 9.88948C336.049 9.62363 336.12 9.31188 336.171 8.9941C336.523 8.94803 336.824 8.8649 337.019 8.7128C337.056 8.71689 337.088 8.72366 337.124 8.72774C337.123 8.73561 337.117 8.74282 337.116 8.7507L337.234 8.74335C337.805 8.81316 338.338 8.90833 338.814 9.02524C338.214 9.7421 337.25 9.60252 337.057 10.3669ZM345.464 8.94729C345.297 9.02539 345.125 9.11222 344.948 9.20748C344.903 9.20875 344.857 9.20939 344.809 9.21002L345.551 8.85852C345.521 8.88729 345.497 8.92099 345.464 8.94729ZM353.447 10.563L353.452 10.5654C353.433 10.5634 353.411 10.5616 353.391 10.5595L353.447 10.563ZM352.936 10.2741L352.897 10.2843L353.365 10.5216L353.243 10.5456C352.923 10.5153 352.578 10.4849 352.171 10.4536C352.238 10.2847 352.553 10.2588 352.936 10.2741ZM352.565 8.71917C352.574 8.70106 352.582 8.68295 352.591 8.66516C352.647 8.6959 352.709 8.7267 352.758 8.75766C352.695 8.74475 352.625 8.73144 352.565 8.71917ZM352.915 9.13746C352.969 9.11931 353.018 9.10018 353.077 9.0833C353.118 9.10535 353.157 9.12677 353.198 9.14821C353.2 9.15249 353.201 9.15675 353.204 9.16133C353.105 9.15436 353.009 9.14621 352.915 9.13746ZM354.158 9.00759C353.871 8.96129 353.617 8.9175 353.385 8.8755C353.533 8.64209 353.752 8.42016 354.043 8.21429C354.092 8.23978 354.14 8.26617 354.182 8.2943L354.158 9.00759ZM362.45 9.64544C361.922 9.39282 361.332 9.16766 360.721 9.11374C360.908 9.05593 361.081 8.99006 361.246 8.92015L361.615 8.96928C361.802 9.02955 361.99 9.1062 362.18 9.20687L362.183 9.15318C362.242 9.2049 362.338 9.26011 362.459 9.31804C362.52 9.4584 362.512 9.56485 362.45 9.64544ZM366.004 9.01936C365.978 9.00175 365.949 8.98531 365.923 8.96799C365.968 8.95944 366.013 8.95089 366.059 8.94143C366.114 8.95455 366.17 8.96828 366.226 8.98172L366.004 9.01936ZM366.484 9.4001C366.44 9.35888 366.389 9.32063 366.343 9.28061C366.444 9.28731 366.54 9.29668 366.631 9.30811C366.582 9.33877 366.533 9.36943 366.484 9.4001ZM371.682 9.91295L371.313 9.85652C371.311 9.83464 371.296 9.81625 371.288 9.79552C371.659 9.86259 372.049 9.77114 372.522 9.39844C371.973 9.30612 371.513 9.22127 371.118 9.14267C371.437 8.91165 371.859 8.79206 372.544 8.92156C372.708 9.03982 372.814 9.15069 372.885 9.25415C372.568 9.52951 372.09 9.73704 371.682 9.91295ZM376.169 9.48133C376.384 9.44115 376.567 9.35841 376.683 9.19563C377.142 9.29019 377.549 9.45057 377.897 9.63846C377.446 9.58408 376.892 9.53267 376.169 9.48133ZM381.633 9.25046C381.454 9.37241 381.263 9.52912 381.059 9.72178C380.962 9.59281 380.855 9.46919 380.739 9.35121C381.059 9.33085 381.358 9.29657 381.633 9.25046ZM380.474 9.10909C380.392 9.04131 380.314 8.97237 380.222 8.90933C380.29 8.86342 380.357 8.81749 380.427 8.77646C380.5 8.86294 380.516 8.97393 380.474 9.10909ZM380.404 8.75676L380.148 8.86319C379.932 8.7191 379.685 8.58951 379.413 8.47024C379.876 8.50778 380.241 8.58964 380.404 8.75676ZM378.732 9.45169L378.704 9.40916C378.736 9.4141 378.765 9.41902 378.798 9.42397L378.732 9.45169ZM378.336 8.83706L378.132 8.52133C378.375 8.51247 378.648 8.53797 378.976 8.62455C378.701 8.70465 378.502 8.77324 378.336 8.83706ZM383.348 10.5578C382.567 10.4554 381.961 10.3639 381.454 10.2796C381.454 10.1552 381.375 10.0486 381.232 9.96095C381.301 10.0692 381.387 10.1665 381.444 10.278C380.437 10.1106 379.849 9.97558 379.269 9.85952C379.342 9.74357 379.426 9.63382 379.518 9.52749C380.036 9.60273 380.566 9.69329 380.944 9.83056C380.938 9.83685 380.932 9.84224 380.925 9.84854L381.082 9.8884C381.135 9.91181 381.19 9.93433 381.233 9.96066C381.224 9.94629 381.212 9.93339 381.202 9.91901L383.406 10.4802L383.348 10.5578ZM389.689 9.77584C389.655 9.77633 389.636 9.77397 389.604 9.77419C389.574 9.77139 389.543 9.77193 389.514 9.77248C388.646 9.76519 388.593 9.59184 388.376 9.38704C388.754 9.47665 389.237 9.55692 389.73 9.64795L389.689 9.77584ZM395.759 10.6305L395.12 10.7398C394.982 10.618 394.831 10.5014 394.666 10.3907C394.808 10.2543 394.908 10.1038 394.952 9.94285C395.337 10.1357 395.694 10.2986 396.059 10.3813C395.96 10.4727 395.858 10.5546 395.759 10.6305Z" fill="#4DA627"/>
</svg>
