<svg width="118" height="44" viewBox="0 0 118 44" fill="none" xmlns="http://www.w3.org/2000/svg">
<path d="M117.523 21.0112C117.987 21.0112 118.393 21.0112 118.973 21.0112C117.987 20.2697 117.059 20.8876 116.188 20.764C115.725 20.3933 115.318 19.8989 114.622 20.1461C114.217 20.0225 113.81 20.0225 113.404 20.1461C113.288 19.8989 113.172 19.7752 113.056 19.528C112.998 19.4046 112.824 19.2809 112.766 19.1573C112.476 18.9101 112.186 18.7865 111.896 18.5393C112.07 18.4158 112.186 18.2922 112.36 18.1686C112.708 18.1686 113.056 18.045 113.346 17.6741C113.637 17.427 113.985 17.1798 113.926 16.809V16.6854V16.5617C114.39 16.5617 114.913 16.5617 115.029 15.9438C114.97 15.6966 114.913 15.573 114.854 15.3259C115.202 15.3259 115.55 15.573 115.783 15.0787C116.015 14.5842 116.304 14.2135 116.595 13.8427C116.884 13.5955 117.175 13.4719 117.523 13.2247C117.523 12.6067 117.755 12.1124 118.219 11.7416C118.451 11.7416 118.799 11.8652 118.973 11.618C119.089 11.1236 118.799 11.1236 118.683 11.1236C118.335 11 117.929 11 117.58 10.8764C117.58 10.6292 117.58 10.382 117.58 10.2584C117.639 10.1348 117.755 10.0112 117.813 9.76404C117.813 9.64046 117.813 9.64046 117.813 9.51686C118.045 9.39326 118.277 9.76404 118.567 9.64046C118.451 9.39326 118.277 9.26966 118.045 9.14607C117.929 8.89888 117.696 8.65168 117.407 8.52809C117.523 8.03371 116.768 7.91011 116.943 7.41573C117.291 7.53933 117.348 7.91011 117.813 7.91011C117.696 7.53933 117.464 7.41573 117.175 7.16854C117 6.92135 116.943 6.67415 116.595 6.67415C116.652 6.79775 116.711 7.04495 116.711 7.16854C116.42 7.16854 116.131 7.16854 115.841 7.16854C115.609 7.04495 115.377 6.92135 115.145 6.67415C115.145 6.55057 115.086 6.55056 115.029 6.42697C115.202 6.30337 115.434 6.30337 115.609 6.17977C116.131 6.05617 115.609 5.68539 115.783 5.56179C116.188 5.56179 116.42 5.19101 116.711 4.94383C117.116 4.82023 117.639 5.06741 118.103 4.57303C117.523 4.57303 117.059 4.69663 116.652 4.69663C116.595 4.57303 116.595 4.44943 116.536 4.32585C116.768 4.07865 117.232 4.07865 117.291 3.70787C117.232 3.70787 117.175 3.70787 117.116 3.70787C116.536 3.33708 115.899 3.58427 115.261 3.58427C114.565 3.58427 113.926 3.58427 113.23 3.58427C112.766 3.46067 112.302 3.46067 111.896 3.33708C111.838 3.33708 111.78 3.33708 111.722 3.33708C111.49 3.08989 110.62 3.33708 111.026 2.47191C110.04 1.60674 108.822 1.48314 107.603 1.35955C107.314 1.35955 107.023 1.35955 106.791 1.35955C105.689 1.23595 104.703 0.617977 103.601 0.988764C103.079 0.988764 102.615 0.494383 102.035 0.741573C101.687 0.741573 101.339 0.617977 101.107 0.865168C101.048 0.865168 100.991 0.865168 100.875 0.865168C100.469 0.494383 100.005 0.617977 99.5406 0.617977C99.4246 0.617977 99.2502 0.617977 99.1342 0.617977C98.2062 0.247191 97.1623 0.494383 96.1759 0.247191C95.712 0.123595 95.3056 0.123595 94.8416 0.247191C94.3201 0.247191 93.7977 0.247191 93.2753 0.247191C93.2177 0.247191 93.1593 0.247191 93.0433 0.247191C92.5218 0.247191 92.0578 0.370787 91.5354 0.370787C90.0275 0.370787 88.5187 0.247191 87.0108 0.247191C86.9524 0.247191 86.8364 0.247191 86.7788 0.247191C86.3149 0.247191 85.8509 0.247191 85.3861 0.247191C85.3285 0.370787 85.3861 0.370787 85.4445 0.494383H85.3861C85.3861 0.370787 85.3861 0.370787 85.3861 0.247191C85.2701 0.247191 85.2125 0.247191 85.0965 0.247191C84.7486 0 84.4006 0 84.0526 0C82.1959 0 80.2818 0 78.4256 0C78.3095 0.123595 78.3095 0.123595 78.4256 0.247191C80.2818 0.247191 82.1959 0.247191 84.0526 0.247191C81.442 0.123595 78.7737 0.123595 76.1632 0.247191C76.1052 0.370787 76.1632 0.370787 76.2213 0.370787H76.1632C76.1632 0.494383 76.1632 0.494383 76.1632 0.617977C76.2213 0.494383 76.2213 0.494383 76.1632 0.370787V0.247191C75.9313 0.247191 75.6992 0.247191 75.4672 0.247191C74.4811 0.247191 73.4369 0.123595 72.4508 0.370787C72.3928 0.370787 72.3928 0.370787 72.3928 0.370787C72.3348 0.370787 72.2767 0.370787 72.2187 0.370787C71.7547 0.247191 71.3486 0.247191 70.8846 0.370787C68.5063 0.370787 66.1279 0.247191 63.7497 0.617977C63.0535 0.617977 62.2994 0.617977 61.6034 0.617977C61.4293 0.617977 61.3133 0.617977 61.1393 0.617977C61.3713 0.494383 61.6034 0.370787 61.8354 0.370787C61.4873 0.247191 61.1393 0.123595 60.9072 0.494383C60.4432 0.494383 60.0371 0.494383 59.5731 0.494383C59.283 0.494383 59.051 0.494383 58.8769 0.741573C57.8328 0.741573 56.7887 0.494383 55.8026 0.865168C55.7446 0.865168 55.7446 0.865168 55.6866 0.865168C53.4823 0.865168 51.22 0.865168 49.0156 0.988764C48.8416 0.988764 48.7256 0.988764 48.5516 0.988764C46.5214 0.988764 44.4911 0.988764 42.4608 0.988764C41.1266 0.988764 39.8504 1.11236 38.6323 1.11236C38.4583 1.11236 38.3423 1.11236 38.1682 1.11236C37.4722 1.11236 36.834 1.11236 36.138 1.11236C35.3259 1.11236 34.4558 1.11236 33.6436 1.11236C33.2956 1.11236 32.8895 1.11236 32.5415 1.11236C32.0774 1.11236 31.6133 1.11236 31.2073 1.11236C31.0333 1.11236 30.9172 1.11236 30.7432 1.11236C30.1052 1.11236 29.4671 1.11236 28.7709 1.11236C28.0169 0.865169 27.2628 0.865168 26.4507 0.865168C25.8706 0.865168 25.2905 0.865168 24.7104 0.741573C24.1884 0.617977 23.6083 0.617977 23.0862 0.741573C22.8542 0.741573 22.6801 0.741573 22.4481 0.741573C21.404 0.370787 20.3599 0.494383 19.2577 0.370787C18.6776 0 17.9815 0.247191 17.2855 0.123595C16.9374 0 16.6473 -0.123595 16.5893 0.370787C16.1833 0.865168 16.2413 1.60674 15.7772 2.10112C15.2552 2.5955 15.2552 3.21349 15.6032 3.70787C15.6032 3.83147 15.6612 3.83147 15.7192 3.83147C15.8933 4.32585 16.1253 4.57303 16.3573 4.94383C15.6032 4.94383 15.1392 5.43821 14.6751 5.80899C14.501 5.93259 14.3271 6.05617 14.2691 6.30337C14.095 6.30337 13.921 6.42697 13.863 6.55056C13.5149 6.67415 12.9349 6.30337 12.7608 6.92135H12.7028C12.3548 6.92135 12.0068 6.92135 11.6587 6.92135C11.3107 6.67415 11.0206 6.67415 10.4985 6.67415C10.9046 7.04495 11.2527 7.16854 11.6587 7.16854C11.7747 7.29213 11.8907 7.29213 12.0068 7.41573C11.9487 8.03371 11.8907 8.52809 11.8327 9.14607C11.8907 9.14607 11.9487 9.26966 12.0068 9.26966H11.9487C11.8327 9.26966 11.7747 9.26966 11.6587 9.26966C11.4266 9.26966 11.1947 9.26966 11.0206 9.26966C10.7306 9.39326 10.4405 9.39326 10.0925 9.51686C9.16436 9.76404 8.12026 9.88764 7.36614 10.6292C6.72801 10.7528 6.32199 11.3708 5.6839 11.618C6.14796 11.8652 6.38003 11.4944 6.72801 11.4944C6.78601 11.618 6.90208 11.618 6.96008 11.7416C6.78601 11.9888 6.61202 12.1124 6.49603 12.3595C5.79992 12.4831 5.50988 12.9775 5.10382 13.4719C4.87179 13.5955 4.63976 13.8427 4.69777 14.0899C4.87179 14.955 3.76965 15.2023 3.71164 16.0674C4.00168 15.8202 4.2337 15.6966 4.46574 15.573C4.46574 15.6966 4.46574 15.6966 4.46574 15.8202C4.29172 16.0674 4.1757 16.3146 4.00168 16.4383C4.2337 16.809 4.11769 17.1798 3.76965 17.5505C3.53761 17.6741 3.30559 17.9213 3.13156 18.045C2.95754 18.045 2.78352 18.045 2.6675 18.2922C1.68137 18.7865 1.68137 18.9101 2.78352 19.528C2.78352 19.6516 2.84152 19.7752 2.84152 19.8989C1.97141 19.8989 1.2173 20.2697 0.463207 20.6404C0.0571477 20.8876 0.231171 21.0112 0.579216 21.0112C0.405194 21.6292 -0.17488 21.6292 -0.58093 21.8764C-0.812966 22.1236 -1.04499 22.2472 -1.33503 22.4944C-0.928984 22.4944 -0.58093 22.4944 -0.232885 22.6179C-0.0588619 22.8652 -0.116875 22.9888 -0.464921 22.9888C-0.928984 22.9888 -1.33503 22.9888 -1.91511 22.9888C-0.928984 23.7303 -0.000857115 23.1124 0.869257 23.236C1.33332 23.6067 1.73937 24.1011 2.43547 23.8539C2.84152 23.9775 3.24757 23.9775 3.65363 23.8539C3.65363 24.1011 3.82765 24.3484 3.88566 24.5954C3.94367 24.7191 4.11769 24.8427 4.2337 24.9663C4.52375 25.2135 4.81379 25.3371 5.10382 25.5842C4.9298 25.7078 4.81379 25.8314 4.63976 26.0787C4.29172 26.0787 3.94367 26.2023 3.65363 26.573C3.36359 26.8202 3.01554 27.0674 3.07355 27.4383V27.5617V27.6854C2.60949 27.6854 2.08742 27.6853 1.97141 28.3034C2.02941 28.427 2.08742 28.6741 2.14543 28.7977C1.79738 28.7977 1.44934 28.5505 1.2173 29.045C0.985275 29.5393 0.695234 29.9101 0.405194 30.2809C0.115161 30.6516 -0.232885 30.7752 -0.522925 31.0225C-0.522925 31.6404 -0.754961 32.1348 -1.21902 32.5056C-1.45105 32.5056 -1.7991 32.3821 -1.97312 32.6292C-2.08914 32.8764 -1.7991 32.8764 -1.68308 32.8764C-1.33503 33 -0.928984 33 -0.58093 33.1236C-0.58093 33.3708 -0.58093 33.6179 -0.58093 33.7415C-0.58093 33.9888 -0.638943 34.1124 -0.754961 34.236C-0.754961 34.3596 -0.754961 34.3596 -0.754961 34.4832C-0.986989 34.6067 -1.21902 34.236 -1.50906 34.4832C-1.39304 34.7303 -1.16101 34.8539 -0.986989 34.9775C-0.812966 35.2248 -0.58093 35.472 -0.290898 35.5955C-0.406908 36.0899 0.347188 36.2135 0.173166 36.7078C-0.17488 36.5842 -0.232885 36.2135 -0.696948 36.2135C-0.58093 36.5842 -0.348903 36.7078 -0.0588619 36.9551C0.115161 37.0787 0.173166 37.3259 0.521211 37.3259C0.463207 37.2023 0.463207 37.0787 0.405194 36.8314C0.695234 36.8314 0.985275 36.8314 1.27532 36.8314C1.50734 37.0787 1.73937 37.2023 1.97141 37.3259C1.97141 37.4495 2.02941 37.4495 2.08742 37.573C1.91339 37.6966 1.68137 37.6966 1.50734 37.8202C0.985275 37.9438 1.50734 38.3146 1.33332 38.4383C0.92727 38.4383 0.695234 38.809 0.405194 39.0562C-0.0588619 39.1798 -0.522925 38.9326 -1.04499 39.3034C-0.464921 39.3034 -0.000856996 39.1798 0.405194 39.1798C0.463207 39.427 0.463207 39.5505 0.521211 39.6741C0.637229 39.7977 0.695234 39.7977 0.811252 39.9213C0.811252 39.6741 0.753247 39.5505 0.521211 39.6741C0.347189 39.9213 -0.17488 39.9213 -0.232885 40.2922C-0.17488 40.2922 -0.116875 40.2922 -0.0588619 40.2922C0.521211 40.6629 1.1593 40.4158 1.79738 40.4158C2.49348 40.4158 3.13156 40.4158 3.82765 40.4158C4.2337 40.6629 4.69777 40.6629 5.16183 40.7865C5.21984 40.7865 5.27784 40.7865 5.33585 40.7865C5.56788 41.1573 6.43803 40.9101 6.03195 41.6516C7.01808 42.5168 8.23625 42.6404 9.45443 42.764C9.74441 42.764 10.0345 42.764 10.2665 42.764C11.3686 42.8876 12.3548 43.5056 13.4569 43.1348C13.979 43.1348 14.443 43.6292 15.0232 43.3821C15.3712 43.3821 15.7192 43.5056 15.9513 43.2585C16.0093 43.2585 16.0673 43.2585 16.1833 43.2585C16.5893 43.6292 17.0534 43.6292 17.5174 43.5056C17.6335 43.5056 17.8075 43.5056 17.9235 43.5056C18.8516 43.8764 19.8958 43.6292 20.8819 43.8764C21.346 44 21.752 44 22.2161 43.8764C22.7381 43.8764 23.2603 43.8764 23.7823 43.8764C23.8403 43.8764 23.9563 43.8764 24.0143 43.8764C24.5364 43.8764 25.0005 43.7528 25.5225 43.7528C27.0307 43.7528 28.5389 43.8764 30.0471 43.8764C30.1052 43.8764 30.2212 43.8764 30.2792 43.8764C30.7432 43.8764 31.2073 43.8764 31.6713 43.8764C31.7293 43.7528 31.6713 43.7528 31.6133 43.6292H31.6713C31.6713 43.7528 31.6713 43.7528 31.6713 43.8764C31.7873 43.8764 31.8454 43.8764 31.9614 43.8764C32.2515 44 32.5994 44 33.0055 44C34.8618 44 36.776 44 38.6323 44C38.7483 43.8764 38.7483 43.8764 38.6323 43.7528C36.776 43.7528 34.8618 43.7528 33.0055 43.7528C35.6159 43.8764 38.2843 43.8764 40.8946 43.7528C40.9526 43.6292 40.8946 43.6292 40.8365 43.6292H40.8946C40.8946 43.5056 40.8946 43.5056 40.8946 43.3821C40.8365 43.5056 40.8365 43.5056 40.8946 43.6292V43.7528C41.1266 43.7528 41.3587 43.7528 41.5907 43.7528C42.5769 43.7528 43.621 43.8764 44.6071 43.6292H44.6651C44.7231 43.6292 44.7811 43.6292 44.8391 43.6292C45.3032 43.7528 45.7092 43.7528 46.1733 43.6292C48.5516 43.6292 50.9299 43.7528 53.3082 43.3821C54.0043 43.3821 54.7584 43.3821 55.4545 43.3821C55.6286 43.3821 55.7446 43.3821 55.9185 43.3821C55.6866 43.5056 55.4545 43.6292 55.2225 43.7528C55.5706 43.8764 55.9186 44 56.1506 43.6292C56.6147 43.6292 57.0207 43.6292 57.4848 43.6292C57.5428 43.5056 57.5428 43.5056 57.4848 43.3821C57.4848 43.5056 57.4848 43.5056 57.4848 43.6292C57.7748 43.6292 58.0068 43.6292 58.1809 43.3821C59.225 43.2585 60.3272 43.6292 61.3713 43.2585C63.5756 43.2585 65.8379 43.2585 68.0422 43.1348C68.2162 43.1348 68.3322 43.1348 68.5063 43.1348C70.5365 43.1348 72.5668 43.1348 74.5971 43.1348C75.8733 43.0112 77.0914 43.0112 78.3676 42.8876C78.5416 42.8876 78.6576 42.8876 78.8317 42.8876C79.5277 42.8876 80.1658 42.8876 80.8619 42.8876C81.6743 42.8876 82.5439 42.8876 83.3566 42.8876C83.7046 42.8876 84.1102 42.8876 84.4582 42.8876C84.9221 42.8876 85.3285 42.8876 85.7925 42.8876C85.9669 42.8876 86.0829 42.8876 86.2565 42.8876C86.8948 42.8876 87.5324 42.8876 88.2292 42.8876C88.2292 42.8876 88.2292 42.8876 88.2868 42.8876C89.0411 43.1348 89.7955 43.1348 90.549 43.0112C91.129 43.0112 91.709 43.0112 92.2898 43.1348C92.8113 43.3821 93.3913 43.2585 93.9137 43.2585C94.1457 43.2585 94.3201 43.2585 94.552 43.2585C95.596 43.6292 96.6399 43.3821 97.6839 43.5056C98.3222 43.8764 99.0182 43.6292 99.6566 43.7528C100.005 44 100.294 44.1236 100.41 43.5056C100.816 43.0112 100.759 42.2697 101.223 41.7752C101.687 41.2809 101.687 40.7865 101.396 40.1686C101.396 40.0449 101.339 40.0449 101.28 40.0449C101.048 39.6741 100.816 39.3034 100.643 38.9326C101.396 39.0562 101.803 38.5617 102.267 38.0674C102.499 37.9438 102.615 37.8202 102.673 37.573C102.847 37.573 103.021 37.4495 103.079 37.3259C103.427 37.2023 104.007 37.573 104.181 36.9551H104.239C104.587 36.9551 104.936 36.9551 105.283 36.9551C105.631 37.2023 105.921 37.2023 106.443 37.2023C106.037 36.8314 105.689 36.7078 105.283 36.7078C105.167 36.5842 104.993 36.5842 104.877 36.4607C104.936 35.8427 104.993 35.3484 105.051 34.7303C104.993 34.6067 104.936 34.6067 104.877 34.6067H104.936C105.051 34.6067 105.109 34.6067 105.225 34.6067C105.457 34.6067 105.689 34.6067 105.863 34.6067C106.153 34.4832 106.443 34.4832 106.791 34.3596C107.719 34.1124 108.763 33.9888 109.518 33.2472C110.156 33.1236 110.562 32.5056 111.2 32.2585C110.736 32.0112 110.504 32.3821 110.156 32.3821C110.098 32.2585 109.982 32.2585 109.924 32.1348C110.098 31.8876 110.272 31.764 110.388 31.5168C111.026 31.3933 111.374 30.8989 111.78 30.4046C112.012 30.2809 112.186 30.0337 112.186 29.7865C112.07 28.9213 113.114 28.6741 113.172 27.809C112.882 28.0562 112.65 28.1798 112.418 28.3034C112.418 28.1798 112.418 28.1798 112.418 28.0562C112.592 27.809 112.708 27.6853 112.882 27.4383C112.65 27.0674 112.766 26.6966 113.114 26.3259C113.346 26.2023 113.578 25.9551 113.753 25.8314C113.926 25.8314 114.101 25.8314 114.217 25.5842C115.202 24.9663 115.202 24.9663 114.042 24.2248C114.042 24.1011 113.985 23.9775 113.985 23.8539C114.854 23.8539 115.609 23.4832 116.363 23.1124C116.768 22.8652 116.595 22.7415 116.247 22.7415C116.42 22.1236 117 22.1236 117.407 21.8764C117.639 21.6292 117.929 21.5056 118.219 21.2585C117.813 21.2585 117.464 21.2585 117.116 21.1348C117.116 21.1348 117.175 21.0112 117.523 21.0112ZM0.869257 40.1686C0.811252 40.1686 0.811252 40.1686 0.753247 40.1686C0.753247 40.1686 0.811252 40.1686 0.869257 40.1686ZM42.6928 1.48314H42.6348C42.6928 1.48314 42.6928 1.48314 42.6928 1.48314ZM16.8794 7.04495C16.8794 7.16854 16.9374 7.16854 16.8794 7.04495V7.04495ZM43.0409 24.3484C42.9828 24.3484 42.9828 24.3484 43.0409 24.3484V24.3484ZM93.8552 38.3147C93.9137 38.3147 93.9712 38.3146 94.0297 38.4383C93.9712 38.4383 93.9137 38.4383 93.8552 38.3147ZM32.3095 3.95505C32.3675 3.95505 32.4255 3.95505 32.4835 3.95505H32.4255C32.3675 3.95505 32.3095 3.95505 32.3095 3.95505ZM33.5276 3.70787C33.4696 3.58427 33.6436 3.70787 33.5276 3.70787V3.70787ZM24.3044 3.83147C24.2464 3.83147 24.1884 3.83147 24.1884 3.83147C24.2464 3.83147 24.3044 3.83147 24.3044 3.83147ZM6.26397 20.3933C6.20597 20.3933 6.20597 20.3933 6.14796 20.3933C6.14796 20.3933 6.14796 20.3933 6.20597 20.3933C6.20597 20.3933 6.20597 20.3933 6.26397 20.3933ZM84.6901 40.1686C84.6326 40.1686 84.5742 40.1686 84.5166 40.1686H84.5742C84.6326 40.1686 84.6901 40.0449 84.6901 40.1686ZM83.4726 40.2922C83.3566 40.2922 83.5302 40.5393 83.4726 40.2922V40.2922ZM92.6953 40.1686C92.7537 40.1686 92.7537 40.1686 92.8113 40.1686C92.7537 40.1686 92.7537 40.2922 92.6953 40.1686ZM110.794 23.6067C110.852 23.6067 110.852 23.6067 110.91 23.6067C110.91 23.6067 110.91 23.6067 110.852 23.6067C110.794 23.6067 110.794 23.6067 110.794 23.6067ZM112.186 10.8764C112.128 10.8764 112.128 10.8764 112.186 10.8764V10.8764ZM4.9298 20.0225C4.9298 19.8989 4.9298 19.8989 4.9298 20.0225V20.0225ZM4.81379 33.1236C4.87179 33.1236 4.87179 33.2472 4.81379 33.1236C4.87179 33.2472 4.87179 33.2472 4.81379 33.1236C4.87179 33.2472 4.81379 33.2472 4.81379 33.1236ZM109.402 26.2023C109.46 26.2023 109.46 26.2023 109.402 26.2023C109.46 26.3259 109.46 26.3259 109.402 26.2023C109.46 26.3259 109.402 26.3259 109.402 26.2023ZM27.3788 2.8427C27.4368 2.7191 27.4368 2.7191 27.4948 2.7191C27.4368 2.8427 27.3788 2.8427 27.3788 2.8427ZM89.6787 41.1573C89.6211 41.2809 89.6211 41.2809 89.5627 41.2809C89.5627 41.1573 89.6211 41.1573 89.6787 41.1573ZM109.518 17.1798H109.46C109.46 17.0562 109.46 17.0562 109.518 17.1798ZM98.8446 2.10112C98.7286 1.97752 98.6126 2.10112 98.5542 2.10112C98.6126 2.10112 98.7286 2.10112 98.8446 2.10112ZM21.9841 2.7191C21.9261 2.8427 21.9841 2.8427 21.9841 2.7191C21.9261 2.7191 21.9261 2.8427 21.9841 2.7191ZM7.48213 26.9438H7.54013C7.59813 26.9438 7.54013 26.9438 7.48213 26.9438C7.54013 26.9438 7.54013 26.9438 7.48213 26.9438ZM18.1556 41.8989C18.2716 42.0225 18.3876 41.8989 18.4456 41.8989C18.3876 41.8989 18.3296 41.8989 18.1556 41.8989ZM22.9702 42.6404C22.9122 42.5168 22.8542 42.5168 22.7381 42.5168C22.8542 42.5168 22.9122 42.6404 22.9702 42.6404ZM109.808 19.1573H109.866C109.866 19.1573 109.866 19.1573 109.808 19.1573ZM83.3566 1.35955C83.3566 1.23595 83.3566 1.23595 83.3566 1.35955C83.4142 1.35955 83.4726 1.35955 83.4726 1.35955C83.4142 1.35955 83.3566 1.35955 83.3566 1.35955ZM16.0673 8.65168C16.0093 8.65168 15.8933 8.65168 15.8352 8.65168C15.9513 8.65168 16.0093 8.65168 16.0673 8.65168ZM33.7016 42.764C33.6436 42.764 33.6436 42.764 33.7016 42.764V42.764ZM65.0258 1.11236C65.0838 1.11236 65.0838 1.11236 65.0258 1.11236V1.11236ZM5.56788 18.1686C5.56788 18.2922 5.56788 18.2922 5.56788 18.1686V18.1686ZM75.4092 42.1461C75.4092 42.0225 75.4092 42.0225 75.4092 42.1461H75.4672C75.4672 42.1461 75.4672 42.0225 75.4092 42.1461ZM90.4915 42.8876C90.549 42.8876 90.549 42.8876 90.4915 42.8876C90.4915 43.0112 90.549 43.0112 90.4915 42.8876ZM116.131 20.8876V21.0112C116.131 21.0112 116.131 21.0112 116.131 20.8876V21.0112C116.072 20.8876 116.072 20.8876 116.131 20.8876C116.072 20.8876 116.072 20.8876 116.131 20.8876ZM114.797 3.95505C114.738 3.83147 114.738 3.83147 114.797 3.95505V3.95505ZM56.1506 1.35955C56.1506 1.23595 56.1506 1.23595 56.1506 1.11236C56.0926 1.11236 56.0926 1.23595 56.1506 1.35955ZM52.2641 1.11236C52.3221 1.11236 52.3221 1.11236 52.2641 1.11236V1.11236ZM41.2426 1.35955H41.1846H41.1266C41.1266 1.35955 41.1846 1.35955 41.2426 1.35955ZM40.5466 1.35955C40.6045 1.23595 40.6045 1.23595 40.6625 1.23595C40.6045 1.35955 40.5466 1.35955 40.5466 1.35955ZM21.752 0.741573C21.694 0.741573 21.694 0.741573 21.694 0.741573C21.752 0.741573 21.752 0.741573 21.752 0.741573ZM0.92727 23.236V23.1124C0.92727 23.1124 0.92727 23.1124 0.92727 23.236V23.1124C0.92727 23.1124 0.985275 23.1124 0.92727 23.236ZM2.20343 40.1686C2.26145 40.1686 2.26145 40.1686 2.20343 40.1686V40.1686ZM60.9072 43.0112C60.9652 42.8876 60.9072 42.8876 60.9072 42.764C60.9072 42.764 60.9072 42.8876 60.9072 43.0112ZM64.7358 42.8876C64.7358 43.0112 64.7358 43.0112 64.7358 42.8876V42.8876ZM75.9313 42.764C75.8733 42.764 75.8733 42.764 75.8153 42.764H75.8733H75.9313C76.1052 42.764 76.2213 42.764 76.3953 42.764C76.3953 42.764 76.4533 42.764 76.5113 42.6404C76.5113 42.6404 76.4533 42.6404 76.4533 42.764H76.3953C76.2213 42.6404 76.1052 42.6404 75.9313 42.764ZM95.248 43.2585C95.3056 43.2585 95.3056 43.2585 95.3056 43.2585H95.248Z" fill="#4DA627"/>
</svg>
