<svg width="490" height="557" viewBox="0 0 490 557" fill="none" xmlns="http://www.w3.org/2000/svg">
<path d="M401.529 41.685C401.419 41.5681 401.309 41.4519 401.201 41.3361C401.224 41.3395 401.248 41.3513 401.27 41.3547C401.251 41.4852 401.436 41.5768 401.529 41.685ZM439.142 64.0456C438.939 63.8908 438.715 63.757 438.504 63.6137C438.663 63.731 438.878 63.7518 439.029 63.8806C439.087 63.933 439.083 63.9932 439.142 64.0456ZM398.85 38.3837C398.848 38.3827 398.848 38.3827 398.846 38.3817C399.294 38.3306 399.322 38.0561 399.235 37.7174C399.105 37.9415 398.979 38.1592 398.85 38.3837ZM351.747 27.0355C351.755 27.0318 351.772 27.0399 351.783 27.03C351.746 27.0428 351.742 27.0797 351.707 27.0935C351.727 27.0798 351.723 27.055 351.747 27.0355ZM452.83 74.9253C452.843 74.9318 452.858 74.9389 452.871 74.9455C453.278 75.0532 453.723 75.2961 453.657 75.5594C453.648 75.6016 453.738 75.6385 453.729 75.6806C453.488 75.4058 453.127 75.1576 452.83 74.9253ZM268.24 62.4827C268.031 62.3093 267.906 62.38 267.764 62.4188C267.822 62.3539 267.866 62.3291 267.918 62.2844C267.918 62.2299 267.921 62.1691 267.924 62.1083C268.294 61.9718 268.704 61.8707 268.961 61.6315C269.842 60.8052 269.951 59.6131 270.171 58.4833C270.928 54.6055 272.126 50.9066 272.891 47.0323C273.146 45.7334 274.403 44.8432 273.916 43.2401C273.695 42.9598 273.743 42.8119 273.602 42.5864C273.61 42.5593 273.616 42.539 273.625 42.5124C273.562 42.4191 273.673 42.3879 273.628 42.2959C273.769 42.3574 273.657 42.5438 273.91 42.5361C275.237 41.5097 275.968 40.1886 275.675 38.393C275.432 38.1015 275.496 37.8372 275.399 37.5557C276.176 36.5534 276.913 35.5233 278.004 34.7074C278.859 34.0704 279.421 34.1765 280.307 35.323C280.581 35.676 280.733 36.0551 280.929 36.4243C280.916 36.5112 280.854 36.5897 280.842 36.6775C281.054 38.6898 281.144 40.6655 280.642 42.4735C280.031 44.6636 279.551 46.9029 279.064 49.1468C278.965 49.5964 279.181 50.1311 279.321 50.6364C279.253 51.9034 279.17 53.1704 279.15 54.4535C279.073 54.7813 278.997 55.1097 278.913 55.4423C278.543 55.8903 278.101 56.2949 277.822 56.7877C277.622 57.1407 277.294 57.4071 277.04 57.7174C276.046 58.9477 275.173 60.2531 273.647 61.1268C271.404 61.5921 270.091 62.8592 268.473 63.8671C268.719 63.5133 268.832 63.1098 268.24 62.4827ZM267.427 62.3536C267.43 62.3552 267.431 62.3634 267.434 62.3649C267.423 62.3593 267.414 62.3703 267.402 62.3647C267.395 62.3612 267.431 62.3557 267.427 62.3536ZM267.834 60.1717C267.831 60.1857 267.828 60.1998 267.824 60.2133C267.756 60.242 267.749 60.348 267.59 60.2769C267.761 60.3224 267.768 60.217 267.834 60.1717ZM463.089 129.488C462.937 129.514 463.075 129.66 463.011 129.722C462.749 129.491 462.533 129.252 462.544 128.985C462.639 128.923 462.423 128.707 462.676 128.708C462.618 128.975 462.946 129.223 463.165 129.478C463.116 129.462 463.142 129.506 463.089 129.488ZM281.427 32.3798C281.426 32.3793 281.424 32.3783 281.424 32.3783C281.426 32.3793 281.425 32.371 281.427 32.372L281.427 32.3798ZM288.377 45.1491C288.346 45.6322 288.564 46.1524 288.441 46.6213C288.359 46.7675 288.3 46.9176 288.266 47.0877C288.151 47.4279 288.343 47.8419 288.482 48.2455C288.548 48.4961 288.223 48.6239 288.399 48.9056C288.502 49.0733 288.456 49.2062 288.531 49.3679C288.569 49.6905 288.731 50.043 288.467 50.2865C288.014 50.4596 287.42 50.3611 286.845 50.2873C286.573 50.1217 286.256 50.2302 285.992 49.9909C285.699 49.7212 285.385 49.4651 285.033 49.2365C284.758 48.1198 284.48 47.0011 284.207 45.885C284.144 45.8306 284.189 45.7984 284.144 45.7449C284.264 45.7733 284.339 45.9112 284.477 45.886C285.611 45.1766 285.339 43.9369 285.061 42.7014C284.683 40.9336 285.283 39.5249 285.883 38.1157C286.046 38.0093 286.205 38.0332 286.367 38.0352C286.719 38.6532 286.974 39.2541 287.249 39.865C287.768 41.6475 288.112 43.4062 288.377 45.1491ZM274.225 34.4609C274.315 34.4195 274.296 34.3242 274.408 34.294C274.383 34.4297 274.362 34.567 274.324 34.7044C274.277 34.6187 274.287 34.5459 274.225 34.4609ZM274.135 39.1198C274.043 39.1757 274.09 39.331 274.016 39.3956C274.039 39.345 274.05 39.2956 274.071 39.244C274.108 39.1923 274.093 39.1768 274.135 39.1198ZM279.871 51.5697C279.809 51.5002 279.858 51.4546 279.815 51.3865C279.882 51.3962 279.909 51.3706 279.966 51.3752C279.903 51.422 279.944 51.528 279.871 51.5697C279.85 51.6608 279.827 51.7509 279.806 51.8414C279.277 52.9431 279.844 54.4925 278.916 55.4355L278.913 55.4423C280.05 54.5787 280.395 53.1912 279.871 51.5697ZM260.256 81.0605C259.604 81.9297 259.434 83.0139 259.415 84.1724C259.402 84.8672 259.543 85.7073 258.295 86.2361C256.774 82.9693 256.142 80.0722 255.26 77.1443C255.281 77.0382 255.165 76.9184 255.17 76.8041C256.242 75.9085 257.651 75.4674 259.822 76.0646C261.216 78.0378 261.297 79.6589 260.256 81.0605ZM146.898 46.1481C146.883 46.2266 146.839 46.267 146.757 46.273C146.552 46.273 146.413 46.1892 146.351 46.0335C146.268 45.876 146.182 45.7086 146.078 45.5487C146.049 45.4638 146.021 45.3722 145.988 45.2858C145.988 44.9665 145.952 44.6294 145.947 44.308C146.095 43.7812 146.425 43.3289 146.221 42.6757C145.871 42.0976 145.987 41.6334 145.981 41.1241C145.953 38.595 146.192 36.1354 145.59 33.4551C145.864 32.103 146.019 30.7002 146.452 29.411C146.712 28.6515 147.215 29.048 147.696 29.5116C147.708 29.5328 147.718 29.5534 147.725 29.5804C147.915 30.0868 147.728 30.4775 147.693 30.9118C147.846 34.367 147.719 37.7538 147.815 41.1966C148.117 42.911 147.465 44.2787 147.122 45.7601C147.057 45.8994 146.982 46.0185 146.898 46.1481ZM133.635 9.251C133.622 9.18985 133.659 9.14589 133.65 9.08677C133.801 9.06817 133.896 9.01376 134.007 8.96749C133.928 9.12299 133.766 9.24552 133.781 9.44735C133.73 9.38345 133.654 9.30689 133.635 9.251ZM151.038 17.7289C151.05 17.7351 151.061 17.7402 151.073 17.7463C151.07 17.7525 151.07 17.7603 151.064 17.7728C151.052 17.7673 151.043 17.7627 151.032 17.7571C151.03 17.7482 151.041 17.7383 151.038 17.7289ZM160.231 14.4898C160.264 14.5061 160.238 14.5396 160.269 14.5549C159.996 14.3037 159.737 14.0742 159.339 13.9166C159.658 14.0822 159.935 14.3432 160.231 14.4898ZM156.74 12.9836C156.584 12.9145 156.448 12.894 156.299 12.8435C156.382 12.8381 156.46 12.8217 156.545 12.825C156.636 12.8309 156.662 12.9527 156.74 12.9836ZM147.048 23.9975C147.031 24.0044 147.046 24.0277 147.031 24.0356C147.156 23.482 147.335 22.8541 147.213 22.5448C147.182 22.4672 147.283 22.4548 147.259 22.3725C147.328 22.8505 147.274 23.1745 147.668 24.1244C147.916 24.7143 147.392 23.8477 147.048 23.9975ZM173.407 10.0635C173.752 9.94584 174.099 10.1252 174.443 10.2636C173.934 10.2929 173.455 10.3599 173.041 10.5057C173.122 10.3357 173.164 10.1463 173.407 10.0635ZM174.976 14.6854C174.901 14.656 174.781 14.5346 174.712 14.5161C174.72 14.4812 174.785 14.49 174.791 14.4463C174.824 14.5405 174.95 14.5948 174.976 14.6854ZM190.543 19.274C190.441 19.317 190.333 19.3575 190.235 19.4027C190.33 19.3482 190.438 19.316 190.543 19.274ZM211.233 40.6359C211.224 40.6392 211.21 40.6325 211.202 40.6362C211.1 40.6715 210.96 40.5166 210.929 40.3533L210.93 40.346C210.921 40.4977 211.119 40.5254 211.233 40.6359ZM226.12 33.6909C226.101 33.6506 226.063 33.6083 226.032 33.5697C226.099 33.5873 226.086 33.5261 226.155 33.5446C226.141 33.5998 226.133 33.6352 226.12 33.6909ZM241.543 46.5176C241.283 46.3971 241.011 46.3094 240.724 46.2219C240.963 46.2309 241.227 46.1822 241.319 46.3137C241.369 46.3848 241.485 46.4424 241.543 46.5176ZM144.253 30.3344C144.383 30.344 144.434 30.2911 144.527 30.2668C144.513 30.2835 144.515 30.378 144.5 30.3937C144.458 30.4273 144.339 30.4078 144.26 30.4153C144.262 30.3852 144.256 30.3588 144.253 30.3344ZM143.907 19.1599C143.833 19.1933 143.726 19.078 143.644 19.0612C143.758 19.0393 143.935 19.0802 144.01 19.0083C143.972 19.044 143.959 19.1386 143.907 19.1599ZM143.937 11.7768C143.922 11.7614 143.905 11.7845 143.89 11.769C143.926 11.7791 143.9 11.743 143.929 11.7495C143.931 11.7582 143.934 11.7676 143.937 11.7768ZM135.047 24.2455C135.061 24.2449 135.054 24.2257 135.072 24.2188C135.044 24.244 135.095 24.3007 135.06 24.3145C135.043 24.2903 135.062 24.2687 135.047 24.2455ZM131.149 85.7012C130.562 85.832 129.904 86.1141 129.19 85.6289C128.143 84.9097 128.504 84.1923 128.488 83.5149C128.479 83.0041 128.627 82.5401 128.607 82.0237C128.613 81.8633 128.536 81.8328 128.532 81.6911C129.229 81.5836 129.846 81.3819 130.524 81.2496C131.386 82.1814 132.052 83.1333 132.399 84.1148C132.755 85.0848 132.098 85.4925 131.149 85.7012ZM50.9446 129.92C50.9353 129.9 50.9518 129.893 50.9394 129.879C50.9673 129.877 50.9673 129.854 50.9951 129.852C50.9787 129.875 50.959 129.896 50.9446 129.92ZM49.2895 155.362C49.6308 156.278 49.3454 157.071 49.7784 158.009C49.9537 158.431 50.0969 158.844 50.1722 159.255C50.2001 159.417 50.23 159.564 50.2764 159.727C50.3001 159.933 50.2857 160.129 50.1414 160.268C50.0363 160.317 49.896 160.318 49.7528 160.309C49.694 160.28 49.6775 160.226 49.6147 160.202C49.5013 160.193 49.4085 160.132 49.3136 160.085C49.2703 160.063 49.2302 160.036 49.1909 160.009C49.3301 160.023 49.4827 160.067 49.559 159.988C49.6352 159.862 49.6456 159.711 49.6012 159.549C49.5002 159.297 49.3651 159.036 49.2301 158.782C48.9444 157.924 49.2928 157.131 48.2969 156.211C47.6216 155.223 47.0278 154.213 46.0021 153.294C45.7485 153.044 45.5114 152.787 45.3001 152.527C44.7556 150.848 44.6101 149.383 47.2211 149.411C47.9469 150.003 47.9315 150.587 48.0697 151.161C48.4058 152.55 48.541 153.917 49.2895 155.362ZM487.242 345.015C487.312 344.964 487.384 344.906 487.468 344.869C487.478 344.898 487.487 344.926 487.498 344.954C487.365 344.935 487.343 345.01 487.242 345.015ZM476.475 369.071C476.646 368.945 476.693 368.75 476.818 368.601C476.721 368.686 476.789 368.852 476.658 368.904C476.561 368.95 476.561 369.028 476.475 369.071ZM21.777 215.862C21.8121 215.716 21.909 215.592 21.9522 215.45C22.014 215.255 22.148 214.784 22.382 215.032C22.6532 215.329 22.78 215.189 22.9686 215.243C22.5119 215.407 22.0976 215.592 21.777 215.862ZM21.03 219.246C20.7547 218.815 20.6609 218.418 20.8815 218.075C20.8898 218.461 20.8877 218.826 21.03 219.246ZM422.301 484.098C422.203 484.026 422.236 483.926 422.095 483.864C422.102 483.86 422.103 483.853 422.111 483.849C422.174 483.934 422.238 484.013 422.301 484.098ZM313.29 504.804C313.267 504.794 313.276 504.783 313.252 504.773C313.254 504.766 313.257 504.762 313.258 504.754C313.277 504.771 313.272 504.788 313.29 504.804ZM246.875 539.809C246.912 539.753 246.805 539.679 246.822 539.621C246.848 539.677 246.875 539.73 246.894 539.787C246.881 539.792 246.886 539.804 246.875 539.809ZM222.677 525.644C222.706 525.652 222.73 525.675 222.764 525.683C222.758 525.69 222.742 525.686 222.735 525.693C222.714 525.677 222.696 525.659 222.677 525.644ZM194.583 519.306C194.508 519.3 194.427 519.263 194.358 519.271C194.363 519.254 194.365 519.239 194.368 519.222C194.439 519.25 194.511 519.278 194.583 519.306ZM193.6 515.034C193.659 515.059 193.722 515.084 193.783 515.107C193.782 515.111 193.779 515.116 193.778 515.118C193.717 515.093 193.657 515.061 193.595 515.05C193.596 515.045 193.599 515.039 193.6 515.034ZM148.802 459.695C148.923 459.766 149.05 459.84 149.171 459.909C149.17 459.911 149.172 459.912 149.172 459.914C149.041 459.846 148.948 459.725 148.791 459.696C148.793 459.696 148.798 459.695 148.802 459.695ZM103.565 435.111C103.387 435.286 103.439 435.673 103.322 435.904C103.43 435.647 103.719 435.476 103.565 435.111C103.551 435.088 103.515 435.077 103.5 435.055C103.576 435.062 103.63 435.049 103.692 435.043C103.654 435.068 103.608 435.09 103.565 435.111ZM99.3992 427.646C99.3815 427.65 99.3647 427.651 99.3474 427.654C99.3487 427.647 99.3502 427.641 99.3518 427.632C99.3678 427.636 99.3818 427.642 99.3992 427.646ZM73.125 416.118C72.9019 416.038 72.5546 415.759 72.5212 415.617C72.5108 415.57 72.4649 415.52 72.4521 415.473C73.0456 416.279 73.7619 417.043 75.31 417.523C75.5546 417.596 75.7216 417.865 75.9139 418.089C75.0562 417.377 74.3258 416.553 73.125 416.118ZM65.8274 407.514C65.8226 407.534 65.8181 407.554 65.8129 407.574C65.7906 407.549 65.7615 407.528 65.7326 407.506C65.7644 407.496 65.7792 407.51 65.8121 407.501L65.8274 407.514ZM54.946 390.767C54.9594 390.784 54.9469 390.796 54.9603 390.813C54.9431 390.804 54.9526 390.79 54.9361 390.782C54.9393 390.778 54.9424 390.772 54.946 390.767ZM4.21998 232.352C4.30551 232.41 4.25193 232.453 4.31993 232.51C4.26838 232.5 4.26323 232.466 4.20654 232.454C4.222 232.423 4.19932 232.38 4.21998 232.352ZM4.60264 203.058C4.54904 203.148 4.52227 203.244 4.46868 203.335C4.38828 203.264 4.47174 203.211 4.42331 203.141C4.50679 203.128 4.52537 203.082 4.60264 203.058ZM4.57281 171.1C4.58004 171.104 4.5852 171.106 4.59546 171.103C4.60268 171.107 4.59446 171.095 4.60373 171.092C5.18204 171.479 6.33964 171.856 5.87687 172.274C5.86142 172.289 5.87378 172.311 5.85832 172.327C5.71606 171.797 5.53865 171.281 4.57281 171.1ZM27.609 158.741C27.4626 158.762 27.3513 158.824 27.2492 158.906C27.2265 158.856 27.2276 158.81 27.2049 158.76C27.3925 158.814 27.4358 158.702 27.609 158.741ZM32.6845 157.3C32.6887 157.302 32.6886 157.302 32.6938 157.304C32.6917 157.303 32.6845 157.308 32.6825 157.307C32.6845 157.3 32.6845 157.3 32.6845 157.3ZM38.8265 151.02C38.8935 151.084 38.9584 151.069 39.0316 151.105C38.9409 151.107 38.8718 151.128 38.7914 151.135C38.7997 151.1 38.8141 151.06 38.8265 151.02ZM22.8098 204.162C22.8036 204.166 22.7882 204.174 22.7789 204.185C22.7861 204.173 22.8036 204.166 22.8098 204.162ZM17.0261 216.023C17.0498 216.05 17.0673 216.043 17.091 216.071C17.0683 216.067 17.0426 216.055 17.023 216.053C17.024 216.045 17.024 216.03 17.0261 216.023ZM461.084 468.069C461.12 468.111 461.083 468.131 461.112 468.169C461.037 468.186 460.974 468.217 460.928 468.265C460.921 468.238 460.924 468.209 460.918 468.182C460.946 468.126 461.059 468.135 461.081 468.068C461.078 468.066 461.08 468.067 461.08 468.06C461.082 468.068 461.08 468.067 461.084 468.069ZM434.754 483.279C434.304 483.719 433.647 483.308 433.049 482.826C433.04 482.822 433.033 482.811 433.025 482.807C433.579 483.026 434.173 483.132 434.754 483.279ZM348.384 492.567C348.364 492.556 348.341 492.546 348.321 492.536C348.364 492.517 348.358 492.471 348.393 492.448C348.39 492.487 348.388 492.528 348.384 492.567ZM227.692 535.025C227.68 535.019 227.668 535.013 227.658 535.008C227.671 535.009 227.688 535.011 227.703 535.013C227.703 535.018 227.692 535.02 227.692 535.025ZM226.051 530.306C226.03 530.222 226.155 530.219 226.206 530.175C226.18 530.226 226.068 530.251 226.051 530.306ZM195.464 519.652C195.457 519.681 195.45 519.711 195.443 519.741C195.423 519.701 195.408 519.662 195.386 519.621C195.41 519.63 195.439 519.642 195.464 519.652ZM191.275 512.257C191.281 512.258 191.28 512.265 191.286 512.266C191.219 512.326 191.118 512.367 191.164 512.484L191.161 512.484C191.222 512.42 191.27 512.35 191.275 512.257ZM190.651 512.333C190.696 512.351 190.742 512.368 190.787 512.386C190.739 512.378 190.694 512.35 190.647 512.349C190.648 512.344 190.65 512.339 190.651 512.333ZM140.492 451.24C140.593 451.232 140.694 451.223 140.796 451.221C140.953 451.218 141.109 451.362 141.271 451.372C140.972 451.385 140.662 451.252 140.382 451.317C140.42 451.293 140.457 451.267 140.492 451.24ZM110.219 437.331C110.072 437.213 110.138 437.105 110.076 436.991C110.15 437.026 110.175 437.106 110.269 437.118C110.251 437.189 110.235 437.26 110.219 437.331ZM110.29 433.503C110.133 433.327 110.065 433.127 109.856 432.958C110.081 433.098 110.125 433.332 110.29 433.503ZM44.4181 308.07C44.4068 308.041 44.3975 308.006 44.3841 307.976C44.4109 308.004 44.3995 308.038 44.4181 308.07ZM43.2401 299.102C43.2586 299.197 43.4607 299.257 43.4359 299.362L43.4442 299.358L43.4421 299.365C43.4401 299.364 43.438 299.363 43.4359 299.362C43.2731 299.227 43.1061 299.098 42.9401 298.969C42.938 298.945 42.9329 298.919 42.9287 298.893C43.0102 298.988 43.1205 299.05 43.2401 299.102ZM405.749 511.898C406.026 511.932 406.341 511.994 406.58 511.992C406.552 512.03 406.481 512.045 406.459 512.086C406.257 512.46 406.003 512.061 405.749 511.898ZM369.912 499.915C369.924 499.925 369.943 499.927 369.956 499.938C369.819 499.939 369.795 500.044 369.677 500.06C369.729 499.991 369.893 500.011 369.912 499.915ZM60.2073 370.471C60.1716 370.447 60.1268 370.439 60.0946 370.408C60.1546 370.412 60.1452 370.366 60.2128 370.374C60.2175 370.365 60.2131 370.366 60.2167 370.356C60.2267 370.369 60.2327 370.383 60.2393 370.396C60.2313 370.389 60.2219 370.382 60.2128 370.374C60.2119 370.407 60.2106 370.438 60.2073 370.471ZM58.7382 371.6C58.8193 371.236 58.9617 370.913 59.2203 370.673C58.9117 370.908 58.4566 371.069 58.7556 371.606C58.7481 371.603 58.7463 371.601 58.7382 371.6ZM58.2905 377.447C58.218 377.692 58.1902 377.944 58.1641 378.196C58.1557 377.993 58.1748 377.611 58.2905 377.447ZM83.1977 398.091C83.1714 398.121 83.1595 398.155 83.1291 398.183C83.1565 398.156 83.172 398.119 83.1977 398.091ZM312.889 506.278C312.86 506.266 312.83 506.255 312.801 506.243C312.801 506.24 312.802 506.236 312.803 506.234C312.83 506.255 312.859 506.252 312.887 506.269C312.888 506.272 312.889 506.274 312.889 506.278ZM227.164 524.836C227.254 524.915 227.335 524.993 227.419 525.077C227.4 525.092 227.352 525.074 227.337 525.096C227.189 525.514 227.478 525.993 227.737 526.467C227.766 526.525 227.75 526.575 227.777 526.633C227.585 527.122 227.44 527.657 226.159 527.095C226.844 526.509 226.794 525.573 227.164 524.836ZM190.604 512.305C190.707 512.057 190.87 511.855 191.255 511.82L191.257 511.821C190.546 511.609 190.391 511.817 190.606 512.306L190.604 512.305ZM168.382 490.871C168.399 490.923 168.448 490.973 168.47 491.025C168.455 490.973 168.395 490.922 168.382 490.871ZM160.727 471.474C160.728 471.474 160.73 471.474 160.733 471.474L160.73 471.475C160.721 471.518 160.716 471.563 160.707 471.606C160.654 471.586 160.646 471.614 160.594 471.594C160.686 471.587 160.621 471.471 160.727 471.474ZM90.1415 418.521C90.3256 418.26 90.5966 417.997 91.0955 418.272C91.3259 418.4 91.3848 418.19 91.5914 418.278C90.857 418.139 90.4462 418.351 90.0758 418.613C90.0987 418.582 90.1196 418.552 90.1415 418.521ZM57.1178 383.524C57.1369 383.537 57.1169 383.549 57.135 383.562C57.1251 383.559 57.1184 383.551 57.1082 383.549C57.1122 383.54 57.1138 383.532 57.1178 383.524ZM45.0635 358.883C45.0891 358.876 45.0577 358.843 45.0874 358.838C45.0947 358.836 45.1001 358.845 45.1075 358.844C45.0953 358.858 45.0757 358.869 45.0635 358.883ZM40.6054 342.437C40.565 342.475 40.5626 342.529 40.5394 342.576C40.5228 342.534 40.5049 342.493 40.4883 342.451C40.5501 342.466 40.5466 342.424 40.6054 342.437ZM40.753 328.567C40.77 328.579 40.788 328.592 40.805 328.604C40.7866 328.598 40.7695 328.591 40.7513 328.583C40.7525 328.578 40.7515 328.572 40.753 328.567ZM72.9665 392.479C73.0393 392.529 73.0032 392.572 73.0329 392.62C72.9525 392.575 73.0608 392.528 72.9665 392.479ZM295.158 540.562C295.192 540.418 295.225 540.273 295.259 540.129C295.265 540.132 295.272 540.134 295.277 540.136C295.108 540.225 295.137 540.394 295.164 540.564C295.162 540.563 295.161 540.564 295.158 540.562ZM237.33 539.647C237.301 539.639 237.274 539.63 237.246 539.622C237.272 539.627 237.304 539.641 237.33 539.647ZM229.651 529.044C229.688 529.054 229.697 529.077 229.738 529.087C229.716 529.115 229.711 529.151 229.69 529.181C229.635 529.13 229.692 529.093 229.651 529.044ZM212.748 522.085C212.715 522.088 212.763 522.14 212.719 522.136C212.664 522.13 212.61 522.117 212.556 522.112C212.617 522.097 212.691 522.101 212.748 522.085ZM58.5885 391.435C58.5635 391.084 58.6508 390.769 58.6617 390.43C58.6067 390.754 58.5853 391.091 58.5885 391.435ZM49.0487 381.971C48.885 382.027 48.8073 382.182 48.6307 382.22C48.5271 382.243 48.4271 382.113 48.3227 382.109C48.5712 382.109 48.8033 382.011 49.0487 381.971ZM52.0272 347.457C52.446 347.941 52.6369 348.336 52.5783 348.637C52.5799 348.301 52.2496 347.864 52.0272 347.457ZM45.1559 340.436C44.8733 340.393 44.6036 340.399 44.4205 340.481C44.4834 340.344 44.5797 340.237 44.6431 340.101C44.8474 340.175 44.9855 340.321 45.1559 340.436ZM41.2386 335.586C41.3383 335.706 41.1582 335.769 41.1435 335.866C41.176 335.622 41.0534 335.322 41.0615 335.067C41.185 335.255 41.0721 335.388 41.2386 335.586ZM41.2962 328.796C41.2874 328.793 41.2788 328.79 41.2692 328.786C41.2846 328.783 41.2895 328.773 41.3028 328.77C41.3009 328.779 41.2989 328.788 41.2962 328.796ZM51.3663 319.916C51.3356 320.046 51.3171 320.179 51.4256 320.339C51.326 320.322 51.2436 320.242 51.1447 320.227C51.1326 320.205 51.1358 320.183 51.1255 320.162C51.2219 320.092 51.2651 319.986 51.3663 319.916ZM46.6936 302.668C46.7132 302.725 46.708 302.769 46.7266 302.825C46.4029 302.034 45.5967 301.449 44.7112 300.895C45.2638 301.542 45.8679 302.159 46.6936 302.668ZM59.0541 324.848C59.0556 324.83 59.082 324.825 59.084 324.809C59.0908 324.826 59.1308 324.849 59.1389 324.866C59.111 324.85 59.0826 324.871 59.0541 324.848ZM55.0347 316.318C55.0446 316.321 55.0562 316.326 55.0661 316.33C54.9628 316.313 54.8551 316.248 54.7554 316.26C53.6263 316.511 53.8826 317.88 51.8573 318.021C52.5509 316.331 52.8723 314.893 52.8413 313.344C53.3217 314.368 53.3309 315.466 55.0347 316.318ZM56.6809 381.392C56.774 381.406 56.8629 381.457 56.9561 381.465C56.9467 381.487 56.9674 381.515 56.9569 381.536C56.875 381.471 56.7651 381.455 56.6809 381.392ZM54.7544 361.437C54.4941 361.46 54.1966 361.447 54.0973 361.646C54.1735 361.442 54.4766 361.451 54.7544 361.437ZM50.3556 353.869C50.4012 353.881 50.4201 353.851 50.4681 353.865C50.5302 353.955 50.4967 353.95 50.5551 354.034C50.4894 353.991 50.4198 353.906 50.3556 353.869ZM50.4916 345.177C50.5201 345.166 50.5858 345.178 50.6069 345.161C50.6179 345.196 50.5879 345.218 50.5872 345.248C50.5558 345.223 50.525 345.202 50.4916 345.177ZM58.1164 354.31C58.1471 354.383 58.0548 354.354 57.9872 354.348C57.9765 354.341 57.9759 354.327 57.9642 354.32C58.011 354.313 58.0746 354.324 58.1164 354.31ZM55.4651 359.816C55.5876 359.882 55.6186 359.851 55.7176 359.894C55.5985 359.899 55.6627 360.008 55.4828 359.977C55.4827 359.897 55.465 359.892 55.4651 359.816ZM53.7989 362.04C53.8074 362.059 53.834 362.075 53.8306 362.095C53.8019 362.07 53.7618 362.068 53.7325 362.044C53.7504 362.037 53.7818 362.048 53.7989 362.04ZM50.8274 362.586C50.6772 362.48 50.5346 362.496 50.3902 362.305C50.4855 362.294 50.5818 362.289 50.6808 362.283C50.6332 362.379 50.7418 362.481 50.8274 362.586ZM51.7091 363.218C51.6359 363.249 51.5462 363.22 51.4532 363.185C51.4719 363.181 51.504 363.186 51.523 363.182C51.5831 363.187 51.6419 363.17 51.7091 363.218ZM51.9065 375.509C51.8227 375.5 51.7486 375.504 51.6674 375.5C51.6714 375.43 51.725 375.401 51.7217 375.325C51.8442 375.376 51.8122 375.451 51.9065 375.509ZM54.7422 376.554C54.7655 376.611 54.8526 376.66 54.8776 376.716C54.8151 376.671 54.7233 376.639 54.6589 376.596C54.7101 376.606 54.6765 376.529 54.7422 376.554ZM68.4564 401.84C68.5504 401.915 68.656 401.986 68.7494 402.062C68.5239 402.025 68.1279 402.121 67.8519 402.153C68.0258 402.024 68.0887 401.806 68.4564 401.84ZM76.6759 411.553C76.9792 411.653 76.7861 411.722 76.7791 411.801C76.7746 411.8 76.7724 411.802 76.7679 411.8C76.6175 411.819 76.6185 411.75 76.5103 411.746C76.5063 411.645 76.6971 411.663 76.6759 411.553ZM307.313 512.126C307.263 512.041 307.32 511.975 307.243 511.886C307.276 511.885 307.262 511.849 307.295 511.847C307.267 511.931 307.336 512.04 307.313 512.126ZM306.318 517.944C306.415 517.956 306.577 518.048 306.596 517.978C306.613 517.9 306.426 517.854 306.325 517.791C306.324 517.787 306.327 517.783 306.326 517.778C306.323 517.771 306.324 517.762 306.321 517.755C306.496 517.86 306.651 517.992 306.847 518.072C306.666 518.011 306.496 518.015 306.316 517.974C306.316 517.964 306.319 517.954 306.318 517.944ZM280.6 528.777C280.613 528.787 280.631 528.785 280.641 528.795L280.613 528.842C280.606 528.836 280.597 528.836 280.59 528.832C280.604 528.817 280.594 528.792 280.6 528.777ZM302.392 524.733C302.362 524.748 302.331 524.767 302.298 524.78C302.34 524.774 302.354 524.743 302.392 524.733ZM287.116 531.913C287.238 531.783 287.333 531.63 287.587 531.585C287.396 531.667 287.255 531.797 287.116 531.913ZM247.942 528.249C247.943 528.247 247.949 528.249 247.949 528.246C247.949 528.249 247.943 528.248 247.943 528.251L247.942 528.249ZM245.693 533.546C245.757 533.559 245.836 533.566 245.894 533.578C245.896 533.603 245.878 533.624 245.878 533.648C245.811 533.599 245.758 533.586 245.693 533.546ZM179.648 514.386C179.571 514.428 179.514 514.484 179.438 514.524C179.14 514.68 178.741 514.569 178.342 514.451C178.848 514.54 179.276 514.499 179.648 514.386ZM174.389 497.418C174.408 497.425 174.428 497.433 174.448 497.441C174.293 497.505 174.08 497.531 174.156 497.746C174.057 497.537 174.246 497.491 174.381 497.412C174.383 497.414 174.387 497.416 174.389 497.418ZM240.607 532.372C240.434 532.485 240.194 532.368 239.979 532.378C240.199 532.388 240.401 532.378 240.607 532.372ZM195.218 509.4C195.109 509.341 195.211 509.344 195.158 509.301C195.203 509.339 195.311 509.367 195.372 509.404C195.322 509.394 195.259 509.422 195.218 509.4ZM243.193 522.409C243.218 522.426 243.247 522.437 243.272 522.454C243.261 522.453 243.254 522.455 243.243 522.454C243.229 522.437 243.197 522.429 243.193 522.409ZM242.426 523.306L242.429 523.306C242.418 523.276 242.4 523.251 242.388 523.222C242.568 523.288 242.463 523.093 242.602 523.122C242.47 523.135 242.631 523.337 242.429 523.306C242.43 523.308 242.428 523.307 242.427 523.308L242.426 523.306ZM234.956 525.358C235.193 525.298 235.328 525.175 235.536 525.096C235.482 525.152 235.486 525.237 235.432 525.293C235.265 525.468 235.104 525.416 234.956 525.358ZM224.52 520.055C224.383 520.099 224.461 520.297 224.306 520.323C224.185 520.343 224.065 520.359 223.956 520.394C224.178 520.315 224.331 520.162 224.52 520.055ZM196.015 501.143C195.652 500.805 195.281 500.482 194.966 500.138C195.273 500.477 195.395 500.92 196.008 501.129C196.011 501.133 196.009 501.139 196.015 501.143ZM244.156 520.291C244.189 520.357 244.262 520.369 244.295 520.431C244.278 520.459 244.283 520.489 244.272 520.519C244.247 520.443 244.166 520.368 244.156 520.291ZM236.496 520.591C236.723 520.768 236.948 520.942 237.175 521.12C237.179 521.13 237.186 521.143 237.187 521.151C237.027 520.917 236.848 520.698 236.474 520.641C236.47 520.616 236.501 520.617 236.496 520.591ZM236.028 520.016C236.029 520.017 236.028 520.02 236.027 520.021C236.018 520.017 236.01 520.02 236 520.016C236.007 520.015 236.022 520.019 236.028 520.016ZM190.013 501.119C190.027 501.064 190.04 501.007 190.063 500.957C190.044 501.009 190.029 501.065 190.013 501.119ZM218.103 513.851C218.09 513.855 218.092 513.871 218.079 513.875C218.091 513.872 218.091 513.854 218.103 513.851ZM205.996 506.593C206.004 506.59 206.091 506.673 206.106 506.677C206.048 506.654 205.999 506.618 205.94 506.598C205.958 506.594 205.98 506.599 205.996 506.593ZM239.143 521.167C238.998 521.087 239.001 520.96 238.89 520.859C238.997 520.957 239.004 521.076 239.143 521.167ZM180.521 506.086C180.524 506.056 180.474 506.044 180.474 506.015C180.496 506.027 180.52 506.05 180.542 506.062C180.526 506.067 180.538 506.081 180.521 506.086ZM191.856 510.455C191.791 510.439 191.728 510.417 191.665 510.4C191.457 510.45 191.248 510.498 191.035 510.544C191.021 510.511 191.013 510.478 190.999 510.445C191.307 510.574 191.63 510.722 191.665 510.4C191.675 510.353 191.715 510.348 191.728 510.303C191.769 510.355 191.804 510.41 191.856 510.455ZM246.229 535.286C246.235 535.268 246.241 535.25 246.247 535.233C246.63 533.56 247.006 531.883 247.43 530.227C247.648 529.693 247.699 529.069 247.937 528.545C247.935 528.445 247.942 528.351 247.942 528.254C251.943 530.736 252.218 531.26 251.014 534.15C250.785 534.701 250.455 535.195 250.02 535.627C248.644 537.005 248.079 536.919 246.229 535.286ZM252.366 526.832C252.353 526.837 252.344 526.841 252.332 526.844C252.332 526.832 252.332 526.82 252.332 526.809C252.345 526.814 252.352 526.826 252.366 526.832ZM403.092 503.927C402.961 503.966 402.843 504.018 402.709 504.056C402.719 503.916 402.892 503.896 403.092 503.927ZM401.775 502.249C401.769 502.269 401.793 502.29 401.789 502.308C401.774 502.297 401.758 502.301 401.743 502.288C401.77 502.283 401.734 502.244 401.775 502.249ZM377.554 502.889C377.567 502.887 377.58 502.888 377.592 502.886C377.603 502.916 377.631 502.944 377.644 502.973C377.597 502.952 377.603 502.908 377.554 502.889ZM360.421 494.702C360.586 494.765 360.76 494.746 360.901 494.981C360.978 495.112 361.117 495.111 361.201 495.23C360.95 495.052 360.704 494.854 360.421 494.702ZM378.212 498.038C378.167 498.04 378.138 498.014 378.095 498.023C378.103 498 378.133 498.002 378.141 497.979C378.174 497.999 378.179 498.019 378.212 498.038ZM378.081 507.652C378.1 507.655 378.102 507.64 378.119 507.642C378.122 507.65 378.122 507.658 378.127 507.666C378.112 507.653 378.096 507.671 378.081 507.652ZM7.93126 258.348C7.99001 258.432 7.83541 258.441 7.86222 258.509C7.83541 258.387 7.86736 258.262 7.82919 258.142C7.87765 258.213 7.87456 258.282 7.93126 258.348ZM7.06963 238.128C7.05828 238.13 7.04901 238.125 7.04178 238.122C7.03872 238.105 7.05833 238.099 7.05833 238.083C7.06347 238.101 7.06035 238.115 7.06963 238.128ZM5.25575 230.768C5.27225 230.706 5.19697 230.615 5.25574 230.566C5.22375 230.62 5.26815 230.704 5.25575 230.768ZM17.6154 170.097C17.5959 170.087 17.5999 170.081 17.5825 170.065C17.6103 170.063 17.6443 170.056 17.6721 170.047C17.6825 170.06 17.6618 170.065 17.6721 170.078L17.6154 170.097ZM27.6279 173.305C27.6774 173.275 27.7557 173.275 27.8124 173.248C27.733 173.349 27.695 173.478 27.6218 173.582C27.6341 173.495 27.5053 173.369 27.6279 173.305ZM20.3757 178.905C20.3644 178.891 20.3737 178.88 20.3582 178.873C20.5458 178.872 20.7262 178.867 20.853 178.79C20.8519 178.797 20.852 178.797 20.855 178.799C20.6963 178.837 20.5375 178.868 20.3757 178.905ZM15.1458 226.542C15.1417 226.54 15.15 226.536 15.1459 226.534C15.1531 226.538 15.1572 226.532 15.1645 226.535C15.1572 226.54 15.1531 226.538 15.1458 226.542ZM22.3863 238.084C22.3492 238.011 22.311 237.938 22.277 237.859C22.3182 237.895 22.3471 237.925 22.3914 237.954C22.3914 238.001 22.3853 238.037 22.3863 238.084ZM31.0937 272.677C31.1256 272.638 31.1926 272.663 31.2421 272.641C31.1998 272.667 31.1617 272.695 31.14 272.723C31.1246 272.708 31.1092 272.692 31.0937 272.677ZM23.3075 278.246C23.3096 278.247 23.3055 278.245 23.3075 278.246C23.3807 278.345 23.4611 278.439 23.5704 278.532C23.5817 278.537 23.5756 278.55 23.5838 278.562C23.4869 278.46 23.3983 278.353 23.3075 278.246ZM8.18571 245.944C8.24243 245.965 8.29494 245.991 8.35063 246.01C8.32794 246.085 8.33832 246.176 8.31668 246.251C8.27235 246.151 8.21562 246.045 8.18571 245.944ZM19.4857 175.07C19.6723 175.201 19.7208 175.007 19.8837 175.087C19.7363 175.084 19.6177 175.127 19.5023 175.156C19.5002 175.124 19.493 175.097 19.4857 175.07ZM17.5656 198.488C17.5976 198.465 17.5449 198.408 17.5841 198.388C17.5975 198.434 17.5811 198.464 17.5965 198.511C17.579 198.502 17.58 198.495 17.5656 198.488ZM19.3145 205.908C19.3104 205.906 19.3176 205.887 19.3135 205.885C19.3227 205.889 19.3145 205.901 19.3228 205.905C19.3166 205.902 19.3207 205.912 19.3145 205.908ZM11.7294 200.371C11.7365 200.375 11.7304 200.364 11.7407 200.361C11.7624 200.388 11.7376 200.399 11.7572 200.424C11.7345 200.405 11.752 200.39 11.7294 200.371ZM12.6069 193.29C12.608 193.306 12.575 193.305 12.576 193.321C12.5729 193.281 12.5729 193.258 12.5657 193.215C12.5677 193.247 12.61 193.253 12.6069 193.29ZM13.1527 187.345C13.3269 187.353 13.4516 187.446 13.6341 187.443C13.5629 187.509 13.4846 187.501 13.4196 187.563C13.3495 187.466 13.2455 187.414 13.1527 187.345ZM16.4755 203.774C16.1456 203.798 16.2003 204.082 16.0271 204.207C16.1271 204.046 16.2302 203.879 16.3291 203.718C16.3796 203.735 16.425 203.757 16.4755 203.774ZM16.4624 195.615C16.4634 195.615 16.4634 195.615 16.4654 195.616L16.4634 195.623C16.4613 195.622 16.4614 195.622 16.4624 195.615ZM20.8626 247.502C20.8307 247.634 21.0101 247.785 20.8782 247.907C20.7885 247.987 20.6421 247.883 20.5277 247.897C20.7122 247.817 20.7523 247.634 20.8626 247.502ZM9.84327 246.592C9.83813 246.589 9.83502 246.595 9.83193 246.594L9.82987 246.593C9.834 246.595 9.84018 246.59 9.84327 246.592ZM18.7069 243.93C18.6131 243.735 18.509 243.544 18.2512 243.385C18.5172 243.54 18.6997 243.762 18.7069 243.93ZM16.9326 230.29C17.0254 230.523 16.8018 230.646 16.7915 230.843C16.8399 230.221 17.115 229.679 17.0448 229.014C17.0551 229.066 17.0428 229.106 17.0572 229.152C16.9614 229.518 16.7656 229.849 16.9326 230.29ZM9.8632 249.942C9.7364 249.872 9.55806 249.877 9.47559 249.743C9.35703 249.537 9.59312 249.583 9.64773 249.501C9.67041 249.637 9.79 249.789 9.8632 249.942ZM27.0892 274.702C27.1006 274.7 27.1088 274.712 27.1201 274.709C27.1212 274.71 27.1222 274.718 27.1232 274.719C27.1119 274.713 27.1006 274.707 27.0892 274.702ZM23.3024 278.236C23.2962 278.233 23.2921 278.231 23.289 278.222C23.29 278.23 23.2962 278.233 23.3024 278.236ZM23.2416 278.167C23.2209 278.149 23.1931 278.128 23.1787 278.097C23.1797 278.098 23.2652 278.109 23.3281 278.124C23.3271 278.131 23.3261 278.139 23.3209 278.152L23.2416 278.167ZM23.3962 278.134L23.3313 278.149C23.3251 278.138 23.3415 278.131 23.3374 278.121C23.3601 278.124 23.3962 278.134 23.3962 278.134ZM14.1264 215.518C14.1182 215.537 14.0913 215.547 14.0831 215.566C14.0449 215.524 13.8852 215.476 13.8357 215.436C13.9429 215.466 14.013 215.485 14.1264 215.518ZM21.0054 198.972C19.6232 200.088 19.5533 202.374 20.4266 204.168C20.3823 204.411 20.4699 204.688 20.3782 204.907C20.3833 204.996 20.3154 205.048 20.3133 205.132C20.0247 205.333 19.8454 205.602 19.598 205.83C19.5691 205.855 19.4846 205.845 19.4361 205.875C20.4493 204.553 19.742 202.74 19.3934 201.026C19.4078 200.815 19.4264 200.606 19.4398 200.395C19.0882 199.746 19.7582 199.345 19.2973 198.673C18.8694 196.881 18.4527 195.087 18.0083 193.294C17.8062 192.478 17.4567 191.542 17.8854 191.006C18.611 190.103 18.5223 188.985 18.4387 187.814C18.3695 186.916 18.4292 186.011 19.1734 185.444C19.3661 185.298 19.5136 185.386 19.664 185.453C19.663 185.662 19.7394 185.903 19.7023 186.102C19.8295 190.028 20.0772 193.981 20.1281 197.884C20.2147 198.223 20.4044 198.558 20.7446 198.882C20.8271 198.946 20.9199 198.93 21.0054 198.972ZM42.7555 375.936C42.7686 375.936 42.761 375.922 42.7744 375.921C42.7616 375.929 42.7718 375.947 42.7604 375.955C42.7503 375.947 42.7643 375.944 42.7555 375.936ZM278.046 534.55C278.055 534.544 278.062 534.535 278.072 534.53C278.184 534.726 278.334 534.918 278.498 535.105C278.495 535.101 278.492 535.097 278.489 535.094C278.341 534.914 278.193 534.73 278.046 534.55ZM346.842 488.544C346.916 488.625 347.015 488.694 347.082 488.777C347.018 488.745 346.989 488.676 346.909 488.662C346.904 488.623 346.846 488.584 346.842 488.544ZM478.863 337.333C479.335 337.302 479.827 337.365 480.256 337.53C480.52 337.622 480.829 337.961 481.114 338.125C480.395 337.809 479.683 337.512 478.863 337.333ZM5.88762 198.615C5.8969 198.597 5.90411 198.577 5.91136 198.557C5.79082 199.105 5.89903 199.711 6.096 200.338C6.01662 200.229 5.9383 200.136 5.87334 200.026C5.83204 199.546 5.90006 199.089 5.88762 198.615ZM98.8337 430.284C98.8422 430.316 98.8221 430.343 98.8327 430.377C98.8249 430.345 98.8388 430.315 98.8337 430.284ZM403.143 516.395C403.19 516.456 403.159 516.507 403.196 516.566C403.152 516.543 403.155 516.515 403.107 516.494C403.12 516.46 403.132 516.429 403.143 516.395ZM406.782 524.506C406.559 524.461 406.336 524.33 406.107 524.416C405.845 524.515 405.356 524.255 405.161 523.977C405.13 523.934 405.109 523.888 405.079 523.846C405.527 524.111 406.19 524.301 406.782 524.506ZM464.187 442.129C464.187 442.129 464.187 442.129 464.185 442.135C464.181 442.133 464.181 442.125 464.177 442.123C464.181 442.125 464.181 442.118 464.185 442.12C464.184 442.127 464.185 442.128 464.187 442.129ZM46.0602 113.919C46.1396 114.005 46.2417 114.071 46.355 114.127C46.256 114.047 46.1643 113.963 46.0324 113.921C46.0437 113.919 46.0488 113.921 46.0602 113.919ZM46.5556 110.706C46.5505 110.727 46.5484 110.742 46.5412 110.762L46.5464 110.756C46.5464 110.756 46.5464 110.764 46.5474 110.765C46.5453 110.764 46.5433 110.763 46.5412 110.762C46.4814 110.74 46.4237 110.711 46.366 110.691C46.4309 110.707 46.4948 110.7 46.5556 110.706ZM48.8482 100.461C48.9451 100.665 48.9771 100.751 49.073 100.946C48.9606 100.891 48.874 100.786 48.7926 100.784C48.8142 100.67 48.8008 100.57 48.8482 100.461ZM50.8692 107.027C50.9063 107.038 50.9465 107.042 50.9826 107.044C50.9774 107.057 50.9703 107.069 50.9651 107.083C50.9352 107.06 50.9022 107.044 50.8692 107.027ZM48.0099 130.176C47.9048 130.467 47.9646 130.761 48.0708 131.071C47.8399 130.871 47.7121 130.621 47.3987 130.466C47.6987 130.42 47.7966 130.273 48.0099 130.176ZM46.4983 114.673C46.4674 114.665 46.4427 114.653 46.4097 114.645C46.42 114.626 46.421 114.604 46.4334 114.586C46.4561 114.613 46.4756 114.646 46.4983 114.673ZM53.3668 117.59C53.3544 117.607 53.3132 117.587 53.2978 117.595C53.2896 117.583 53.2926 117.577 53.2844 117.565C53.3143 117.556 53.3411 117.593 53.3668 117.59ZM48.0293 128.317C48.0366 128.313 48.0469 128.318 48.0541 128.314C48.054 128.321 48.0602 128.332 48.0582 128.339C48.0561 128.322 48.0324 128.326 48.0293 128.317ZM50.5103 127.05C50.4949 127.043 50.4753 127.041 50.4557 127.039C50.4475 127.004 50.4629 126.98 50.4547 126.945C50.4846 126.983 50.4815 127.013 50.5103 127.05ZM55.8565 99.2191C55.8895 99.2431 55.9256 99.2454 55.9586 99.2695C55.9565 99.2762 55.9555 99.2836 55.9514 99.2893C55.9215 99.2746 55.8864 99.265 55.8565 99.2502C55.8555 99.2419 55.8575 99.2273 55.8565 99.2191ZM60.1583 79.9364C60.0789 79.3754 60.1118 78.8232 59.6262 78.2096C59.6777 77.9781 59.7241 77.7518 59.7725 77.5265C59.9447 77.5103 60.1117 77.4915 60.2281 77.4167C60.7043 76.8731 61.064 76.272 61.6206 75.7837C61.6629 75.7345 61.6845 75.6829 61.7216 75.6312C61.77 75.6707 61.8247 75.7132 61.8731 75.7527C61.835 75.9286 61.7907 76.1014 61.7526 76.2772C61.1744 77.4713 61.8333 79.2607 60.1583 79.9364ZM66.5504 82.0498C66.4968 82.0155 66.4381 81.9943 66.3876 81.9616C66.4391 81.9715 66.4968 81.9844 66.5484 81.9943C66.5412 82.0141 66.5597 82.031 66.5504 82.0498ZM82.7857 83.332C82.5693 83.303 82.3724 83.2914 82.1693 83.2768C82.1837 83.2138 82.294 83.2605 82.296 83.1758C82.2981 83.0834 82.5785 83.2219 82.7857 83.332ZM56.8056 85.2891C56.786 85.2873 56.7778 85.2676 56.7592 85.2662C56.7603 85.259 56.7582 85.2502 56.7602 85.2434C56.7829 85.2546 56.7808 85.2769 56.8056 85.2891ZM58.3666 78.4831C58.2759 78.3993 58.3655 78.3424 58.2944 78.2605C58.3346 78.257 58.3758 78.254 58.4222 78.2458C58.4037 78.3301 58.3841 78.4061 58.3666 78.4831ZM59.8268 73.8465C59.7959 73.9403 59.7351 74.0193 59.6949 74.1085C59.6897 74.0436 59.6948 73.9917 59.6835 73.9238C59.7062 73.8805 59.8072 73.8992 59.8268 73.8465ZM65.6474 92.1245C65.6649 92.1643 65.6753 92.2005 65.6887 92.2461C65.6258 92.1917 65.5443 92.1592 65.4732 92.1085C65.5361 92.1317 65.5845 92.1012 65.6474 92.1245ZM59.7089 80.2284C59.7253 80.2365 59.746 80.239 59.7625 80.2471C59.7439 80.2613 59.7161 80.2709 59.6975 80.2929C59.7027 80.2721 59.7037 80.2492 59.7089 80.2284ZM69.8496 88.0479C69.8063 88.0265 69.761 88.0118 69.7146 87.9967C69.7579 87.8624 69.6465 87.7061 69.6321 87.5666C69.7743 87.7303 69.6774 87.885 69.8496 88.0479ZM60.7426 89.266C60.5303 89.2857 60.4973 89.4174 60.3148 89.4597C60.3818 89.3136 60.4127 89.1498 60.4137 88.9868C60.5086 89.0803 60.7241 89.1166 60.7426 89.266ZM72.1568 91.6481C72.1012 91.644 72.0847 91.6904 72.0322 91.6878C72.0785 91.6873 72.1084 91.6476 72.1568 91.6481ZM59.6501 80.5576C59.6429 80.5618 59.6337 80.5651 59.6265 80.5693L59.6202 80.5662L59.6182 80.5652L59.6501 80.5576C59.6552 80.5057 59.6666 80.4567 59.679 80.4006C59.6986 80.4725 59.7625 80.543 59.8069 80.6116C59.7543 80.5856 59.7068 80.5779 59.6501 80.5576ZM59.4086 77.3935C59.3623 77.3862 59.3189 77.3648 59.2726 77.3575C59.2705 77.3409 59.287 77.3335 59.287 77.3101C59.3231 77.3435 59.3643 77.3716 59.4086 77.3935ZM399.447 38.6707C399.508 38.4131 399.321 38.0557 399.24 37.7434C398.79 37.3418 398.901 37.132 399.347 37.0487C399.537 36.8542 399.558 36.6074 399.442 36.309C399.469 36.1898 399.496 36.0707 399.522 35.9588C399.415 35.1977 399.439 34.4462 398.488 33.494C397.692 34.0583 396.493 34.1593 396.106 34.9575C396.003 35.109 395.744 35.1053 395.549 35.1726C394.528 35.1514 393.524 35.0839 392.774 35.5232C391.707 36.1488 390.118 35.8934 388.545 35.2104C387.4 34.7149 386.195 34.221 385.184 33.449C385.214 33.2223 385.149 32.9877 384.849 32.7539L384.949 32.6631L384.837 32.5225C384.875 32.2761 384.914 32.0384 384.948 31.7982C385.223 31.1242 384.949 30.3425 384.66 29.4913C382.826 29.2397 382.084 29.9244 381.494 30.7702L381.544 30.7947C380.622 30.9392 379.65 30.5213 378.634 30.1829C377.005 29.6433 376.475 29.8567 376.537 31.0476C376.6 32.1612 376.295 33.1241 375.999 34.0994C375.715 34.2236 375.352 34.1534 374.966 34.0093C374.146 33.5422 373.813 33.0585 374.151 32.5479C373.959 31.5888 373.77 30.6307 373.581 29.6654C374.054 28.1157 373.268 26.2169 373.448 24.5849C373.827 24.1176 373.502 23.6224 372.797 23.1028C371.478 22.0622 371.339 22.0715 370.897 23.1847C370.626 23.5882 370.521 24.0658 370.57 24.5965C369.995 25.4338 370.029 26.5252 369.779 27.4918C369.602 28.1518 369.411 28.6651 368.126 27.6954C367.995 27.5996 367.663 27.6537 367.425 27.6373C364.297 27.2141 361.245 25.7378 358.221 24.5482C355.924 23.6471 354.099 23.4391 352.266 23.7643C349.954 24.1721 348.837 25.388 348.496 27.1353C348.205 28.6272 347.898 30.1186 347.597 31.6048C347.169 33.6909 346.357 35.6339 346.116 37.7887C345.73 41.2891 345.555 44.8627 345.122 48.348C344.737 51.444 345.388 54.7713 345.89 58.0642C345.741 59.4078 345.383 60.664 344.875 61.8615C341.698 62.0213 340.559 61.2173 340.442 58.7145C340.421 58.2599 340.379 57.8112 340.12 57.3169C340.187 55.9799 339.497 54.5017 339.323 53.1157C339.7 52.7719 339.709 52.247 339.75 51.7612C339.805 51.1106 339.614 50.4245 338.522 49.901C337.539 49.4386 336.544 49.0252 335.727 49.4314C335.103 49.7386 334.671 50.1639 334.362 50.6809C333.63 51.9003 333.624 51.8973 331.406 51.1755C330.238 50.3572 329.8 49.1913 328.44 48.4726C326.919 46.9429 326.536 46.7924 325.067 46.908C323.598 47.0236 322.691 47.5256 322.388 48.5986C322.012 49.9392 321.782 51.3131 322.199 52.8738C322.438 53.7707 322.45 54.579 321.998 55.2354C320.624 55.1487 319.553 54.316 318.493 53.5668C317.807 53.0802 317.255 52.4803 316.366 52.2283C315.545 51.3242 314.486 50.9882 313.351 50.8093C311.171 50.4646 309.104 50.2459 307.307 50.7759C305.496 51.3065 303.088 51.2542 301.54 52.0003C299.348 53.059 297.271 54.2683 295.571 55.7494C295.115 55.8198 294.681 55.9404 294.194 55.9493C293.744 55.9605 293.047 55.6552 293.151 55.3484C293.552 54.1524 291.887 52.8007 291.826 51.5947C291.604 48.7362 291.883 45.9849 290.968 42.963L291.072 42.8742L290.975 42.7173C291.213 42.1107 291.483 41.5198 290.879 40.6919L290.889 40.7204C290.355 40.1607 290.873 39.8094 290.635 39.3101L290.729 39.2241L290.621 39.085C290.095 38.4204 290.838 38.0554 290.452 37.4206C290.122 37.102 290.231 36.8133 290.098 36.5062C290.1 36.5072 290.1 36.5072 290.102 36.5082C290.193 36.0001 290.065 35.4541 289.839 34.8909C290.497 33.5569 289.521 31.8838 289.134 30.3373C289.517 29.6234 289.361 28.76 289.059 27.8632C288.749 26.9623 287.822 26.3956 286.803 26.5307C286.268 26.6013 285.74 26.7768 285.438 27.0637C284.328 28.1119 282.87 29.004 283.51 30.9473C283.712 31.5611 283.51 31.9986 282.375 31.4848C282.267 31.502 282.304 31.5977 282.259 31.6458C282.218 31.5943 282.135 31.6076 282.099 31.5514C282.186 31.5318 282.281 31.5086 282.375 31.4848C282.226 31.2947 282.079 31.0973 281.932 30.9004C281.825 30.3646 281.42 29.9543 280.657 29.7567C280.217 29.6327 279.762 29.634 279.335 29.4695C276.981 28.5641 276.842 28.5577 275.854 29.6504C275.207 30.3591 274.565 31.0699 273.92 31.7792C273.665 32.8055 273.412 33.8334 273.16 34.8534C272.932 35.3484 272.892 35.9437 272.745 36.4633C272.279 38.1328 272.061 39.8944 271.25 41.4173C270.245 46.6288 268.157 51.4381 268.145 57.0235C268.223 57.2569 268.174 57.4582 268.248 57.6896C268.248 57.6974 268.249 57.6979 268.249 57.7057C268.159 57.5835 268.131 57.453 267.709 57.3533C267.025 59.5384 266.57 61.8137 266.277 64.1528C266.258 64.1826 266.217 64.2012 266.201 64.2325C266.107 64.3258 266.236 64.4907 266.184 64.5976C266.127 65.1849 265.812 65.6677 265.833 66.2775C266.302 67.0543 265.628 67.5079 265.865 68.2168C265.543 68.7121 265.303 69.2633 264.874 69.6901C263.699 70.8697 262.62 72.0655 262.889 73.9428C262.994 74.7029 262.14 74.6552 261.333 74.5992C258.089 73.2774 258.051 73.2118 255.058 73.5873C253.963 73.7237 253.853 73.0857 253.379 72.6646C253.368 72.4721 253.432 72.2778 253.328 72.0862C251.828 69.3133 251.873 66.9055 252.378 64.5855C252.571 63.7073 252.67 62.7827 252.383 61.7534C252.731 60.3674 253.282 59.0589 253.201 57.5006C253.156 56.6449 252.597 56.2366 251.488 55.9692C250.735 55.7839 250.096 55.8348 249.415 55.802C248.188 55.7491 246.944 55.5473 245.694 54.8052C246.264 55.2736 247.293 55.587 248.05 55.9612C247.231 55.7044 246.431 55.3794 245.694 54.8052C245.043 53.8998 244.669 53.0453 244.854 52.218C244.974 51.7008 244.974 51.1011 244.406 50.4468C245.511 48.8588 245.325 47.1239 242.704 45.0972C240.82 43.7076 239.569 43.2764 238.186 43.9176C236.419 44.7422 234.828 45.74 233.321 46.7869C232.281 47.5114 231.508 48.4379 230.616 49.2742C229.776 49.0462 229.206 48.7024 229.301 48.041C229.415 47.2092 229.458 46.3662 229.409 45.4701C229.311 43.7473 229.449 43.7766 227.224 42.5217C226.353 42.0525 225.981 41.4249 225.644 40.7916L225.712 40.7863C225.879 40.2847 225.799 39.7232 225.508 39.1202L225.6 39.0331L225.569 38.8932C225.897 38.6034 226.068 38.2519 225.77 37.7309C226.621 36.2201 227.143 34.5931 226.421 32.5468C226.559 32.249 226.561 31.9151 225.994 31.6429C225.193 31.2551 224.54 31.1971 224.252 31.7326C221.924 32.1873 221.283 33.7319 220.838 35.3887C220.164 35.5386 220.188 36.0877 219.999 36.5163C219.352 37.98 218.888 39.542 217.812 40.7939C215.406 40.3532 212.863 39.5957 210.929 40.3378C210.9 39.4591 210.872 38.5809 210.84 37.7085C211.52 35.0073 212.199 32.3134 212.867 29.6139C213.016 29.0025 212.866 28.3446 212.084 27.6622L212.098 27.6771C211.661 27.3678 211.876 27.0532 211.626 26.7431L211.626 26.7508C211.604 26.0154 210.974 25.5797 210.02 25.2723C209.013 24.9385 207.984 24.6485 207.001 24.2251C205.216 23.4528 203.754 23.33 202.549 23.9342C201.489 23.7924 200.426 23.7348 199.341 23.0741C198.743 21.743 196.856 21.4422 195.786 20.4854C195.572 20.325 195.437 20.1493 195.37 19.9604L195.228 19.9603C195.24 19.834 195.256 19.7097 195.268 19.5829C195.368 19.3675 195.466 19.1511 195.565 18.9352C195.739 18.8577 195.775 18.7276 195.672 18.5365C195.747 18.192 195.818 17.8456 195.893 17.5011C196.06 17.4278 196.081 17.2979 195.947 17.1149C195.539 16.3214 194.948 16.1855 194.257 16.4285C193.774 16.8984 192.826 17.0374 192.706 17.7649C192.339 17.8407 192.089 17.9895 192.058 18.3091C189.888 18.1563 188.937 19.1349 188.007 20.1476C187.573 20.0423 187.165 20.0432 186.701 19.7907C184.737 18.7118 184.733 18.7175 183.356 19.5248C183.358 19.5258 183.358 19.5258 183.36 19.5268C183.049 19.6223 183.135 20.0934 182.514 19.8721L182.508 19.8691C182.346 19.758 182.212 19.7463 182.116 19.8391C181.506 19.3041 181.604 18.6365 180.782 18.1523C180.055 17.3028 178.624 16.6974 178.405 15.67C178.212 14.0328 178.525 12.5055 177.644 10.7234C177.627 9.90488 177.401 8.98351 175.892 8.85338C174.194 8.70799 172.295 8.50221 171.866 9.90975C170.451 10.1847 169.656 10.991 169.203 11.92C167.943 14.4981 166.253 16.8639 165.529 19.6916C165.312 20.1372 165.184 20.6036 165.049 21.082C164.599 21.9498 164.476 22.9561 164.209 23.9067C164.247 24.019 164.397 23.9994 164.473 24.0682C164.459 24.1078 164.441 24.1382 164.43 24.1793C164.424 24.1762 164.418 24.1737 164.412 24.1706C164.393 24.2077 164.402 24.259 164.382 24.296C164.382 24.296 164.383 24.2965 164.38 24.3028C164.379 24.3101 164.38 24.3183 164.376 24.3319C163.519 26.0655 163.541 28.1399 163.08 30.0305C163.371 31.0385 162.693 31.7004 162.731 32.6148C162.739 32.6344 162.765 32.6394 162.773 32.659C162.751 32.7496 162.745 32.84 162.722 32.9295C162.638 33.5502 162.621 34.188 162.528 34.8041C162.539 34.7085 162.522 34.6063 162.538 34.521C162.566 34.3401 162.588 34.1561 162.582 33.9666C162.422 33.2876 162.519 32.6896 162.614 32.09C162.642 31.8234 162.638 31.5566 162.584 31.2731C162.48 30.809 162.47 30.3678 162.444 29.9189C162.412 29.6306 162.292 29.3535 161.992 29.0729C161.965 27.214 162.101 25.3966 162.125 23.5549C161.852 22.9838 162.126 22.5664 162.099 22.0547C162.734 19.9931 163.534 17.99 163.388 15.6204C162.953 15.0551 162.517 14.4893 162.083 13.9245C161.734 13.5967 161.867 13.3042 161.715 12.9874L161.716 12.9879L161.705 12.9673C161.707 12.976 161.709 12.9771 161.711 12.9859C161.762 12.4657 161.523 11.9582 160.811 11.4901C160.06 10.3324 158.583 10.0857 157.416 9.51714C155.017 8.36359 154.101 8.36266 152.824 9.48409C151.583 10.5766 151.117 12.052 150.962 13.6889C150.754 15.8367 150.698 18.0594 149.686 19.9035C149.351 19.9249 149.015 19.9459 148.679 19.9668C147.901 19.6375 147.156 19.2694 146.547 18.7193C146.283 18.2229 146.023 17.7286 145.759 17.2322C146.686 15.8832 146.592 14.1236 146.873 12.5259C147.232 10.4914 143.809 9.2139 142.546 7.46881C142.392 7.14326 141.753 7.00673 141.708 6.64219L141.728 6.65968C140.066 4.19581 136.688 3.00249 134.268 1.09115C133.482 0.46906 132.858 0.924243 132.874 1.64832C132.898 3.11635 133.098 4.62466 133.078 6.08687C133.048 8.17426 132.312 10.0614 132.993 12.3526C132.851 12.9599 132.707 13.5739 133.15 14.3301C132.344 17.8258 132.817 21.6958 133.054 25.4809C133.161 27.2077 132.925 28.8667 133.496 30.7063C133.424 32.6643 132.571 34.47 134.664 36.8352C134.923 37.1348 134.59 37.2974 134.585 37.5285C134.561 39.6267 133.876 41.516 134.036 43.6742C133.448 43.8819 132.763 44.0111 132.296 44.31C131.736 44.6717 132.179 45.0619 133.003 45.3129C133.317 45.476 133.441 45.685 133.498 45.9077C134.379 48.1342 133.089 49.872 134.275 52.1635C133.744 55.4831 134.182 59.0715 134.754 62.6711C135.456 67.1141 135.335 71.3216 135.113 75.5105C135.05 76.741 133.535 77.1841 131.837 76.5793C131.848 76.2188 131.856 75.8647 131.87 75.4975C132.057 75.1463 131.898 74.733 131.307 74.4875C130.716 74.2347 130.373 74.4468 130.316 74.8471C129.636 76.1621 128.955 77.4687 128.284 78.7804C128.126 79.0919 128.088 79.6338 127.483 79.444C125.285 78.7713 122.993 79.0642 120.899 77.2904C120.66 76.8841 120.324 76.2509 119.776 76.518C118.678 77.0577 116.71 76.8879 116.751 78.3801C116.765 78.8618 116.146 78.9535 115.523 78.9731C114.609 78.9966 113.719 79.0707 112.798 79.0755C111.798 79.0801 110.623 79.2006 109.875 78.1145C109.192 77.1311 107.587 75.8867 108.976 75.1863C109.944 74.6992 109.399 74.0717 108.597 73.3329C108.41 72.3608 109.394 71.8418 109.131 70.8398C109.205 70.1989 109.62 69.6565 109.151 68.8641C109.201 68.5381 108.947 68.2416 108.61 67.9349L108.458 67.9769C108.411 67.9457 108.389 67.9661 108.34 67.9417C108.43 67.9393 108.52 67.9373 108.61 67.9349C108.29 66.9438 107.494 66.5975 106.41 66.6771C105.498 66.7405 105.156 67.288 104.659 67.7124C104.629 67.7054 104.605 67.717 104.574 67.7096C104.123 67.7669 104.273 68.3085 103.702 68.2757C103.57 68.2494 103.443 68.2252 103.315 68.201C101.012 68.6835 101.458 70.2823 102.281 72.0359C102.497 72.4304 102.571 72.8409 103.067 73.2026C103.18 73.2197 103.25 73.1764 103.344 73.1683L103.341 73.1745C103.251 73.1847 103.156 73.1924 103.067 73.2026C102.681 74.7255 102.101 76.1833 102.575 77.9901C102.494 78.332 102.414 78.6661 102.334 79.0007C102.169 79.0983 101.845 79.1638 101.866 79.2991C102.109 81.1164 102.224 82.8322 100.957 84.1374C100.564 84.543 100.39 84.932 99.5683 84.9312C98.6468 84.9278 97.7603 84.9883 96.8573 85.0252C95.1863 84.2155 94.9255 84.9122 94.7617 85.7113C94.7823 85.7059 94.7917 85.6949 94.8082 85.6952C93.701 85.4132 93.3579 85.9056 92.9528 86.3519C92.5137 86.8437 92.0448 87.313 91.5902 87.7971C90.5358 88.9195 90.5265 88.9149 88.5813 87.2299C89.6377 85.361 89.6376 85.361 86.3359 84.3923C85.6039 83.5402 84.9503 82.6567 83.9524 81.8913C83.2494 81.3806 82.701 80.7982 82.1391 80.2171C82.0937 80.1713 82.0504 80.1188 82.0051 80.073C82.0081 80.0667 82.0092 80.0672 82.0082 80.0667C82.1175 80.915 82.9422 81.4469 83.9524 81.8913C83.6771 81.2804 83.0566 80.748 82.5597 80.1833C82.6905 79.5627 82.3699 78.976 81.3947 78.5489C80.3876 78.0982 79.9227 78.4995 79.4579 78.8383C78.9723 79.1904 78.8446 79.7192 78.8178 80.29L78.8282 80.2872C78.4685 80.4444 78.1767 80.7443 77.7387 80.7381C76.178 80.7384 77.2295 81.4134 77.7254 81.962C77.6708 82.044 77.6986 82.1357 77.8141 82.2316C77.9769 82.2965 78.1429 82.3628 78.3016 82.4412C78.2955 82.4616 78.2965 82.4932 78.2924 82.5146C78.1459 82.4033 78.0295 82.2524 77.8141 82.2316C77.6131 83.4874 76.8845 84.5215 76.9578 85.9905C75.0723 84.2027 75.1692 84.3284 72.9933 84.7489C71.7037 84.9998 70.1998 85.2149 68.4092 84.3072C68.1257 83.9336 67.8371 83.5652 67.5515 83.1906C67.4566 82.0612 67.8822 80.9943 66.4276 79.7152C66.2885 79.5297 66.1214 79.3538 65.9338 79.1833C65.5162 78.6033 65.0936 78.0285 64.676 77.4485C64.6946 77.3253 64.7121 77.2015 64.7306 77.0783C64.7935 76.7356 64.8202 76.375 64.9284 76.0469C65.22 75.1474 65.8869 74.6201 67.529 75.0885C67.6785 75.209 67.8425 75.29 68.03 75.3281C68.2393 75.4937 68.3651 75.6883 68.5579 75.8614L68.5826 75.8814C68.729 76.0705 68.8733 76.2586 69.0198 76.4477C70.4877 77.7022 70.6382 77.7532 70.7494 76.7568C70.8647 75.7625 71.5698 75.2074 72.3985 74.6822C72.4407 74.3604 72.418 74.0377 71.9686 73.6989C71.4532 73.6858 70.9408 73.6664 70.7533 74.0332C70.1369 74.0325 69.5184 74.0308 68.902 74.03C68.904 74.031 68.902 74.03 68.904 74.031C68.6206 74.2181 68.1052 73.9324 67.7805 74.0368L67.7753 74.0342C66.792 73.9535 65.8766 73.6105 65.0333 72.9604C64.8549 72.8801 64.6797 72.8013 64.5024 72.7215C64.0169 72.2092 63.5293 72.2332 63.1159 72.3639C62.5139 72.5572 61.9636 72.8071 61.3935 73.0318C60.439 72.7161 59.3391 72.4532 58.899 72.9056C57.7992 74.0211 55.519 73.5647 53.9049 73.9823C53.7863 73.877 53.6513 73.8181 53.5018 73.7988C53.7398 72.9507 54.5727 72.5288 55.4694 72.1307C56.393 71.7224 55.56 70.7971 55.1744 70.116C54.7362 69.3311 53.891 69.5601 53.2725 69.5428C50.5285 69.4881 50.6317 69.5078 51.6833 71.7092C52.2699 72.9334 53.3864 74.4037 51.8372 75.1026C50.4353 74.6672 49.8828 75.4223 48.8654 75.5194C47.7604 75.3942 46.1399 74.773 45.9648 75.7378C45.7402 76.9896 44.8734 77.9711 45.059 79.371C45.1663 80.0314 45.321 80.6918 45.6612 81.3816C46.2622 82.1379 46.922 82.3547 47.6383 82.0466C47.6393 80.9101 48.6195 80.2728 49.0884 79.383C49.1668 79.3906 49.2224 79.3636 49.3028 79.3877C49.8378 79.504 50.3739 79.6285 50.8542 79.5699C50.8191 79.4825 50.8614 79.441 50.8274 79.3619C50.8924 79.4174 50.8604 79.425 50.9263 79.4887C50.9213 80.5686 52.2841 81.5453 52.8707 82.5749C53.2347 83.0038 53.1564 83.409 53.4182 83.842C54.1763 87.7752 54.3158 91.582 54.9954 95.5076C55.5276 98.5739 54.1518 101.134 54.7252 104.252C54.3974 104.316 54.4603 104.549 54.5603 104.785C54.5119 104.761 54.486 104.718 54.4346 104.692C53.3388 104.439 52.8677 104.783 52.7245 105.436C52.7173 105.612 52.7287 105.789 52.7792 105.977C52.8699 106.341 52.9297 106.698 52.9937 107.057C53.3597 108.538 53.6362 110.006 53.7847 111.442C53.792 111.461 53.8033 111.475 53.8105 111.494C53.6229 111.323 53.4322 111.159 53.1931 111.025C52.8941 110.862 52.6086 110.682 52.3498 110.476C52.2653 110.388 52.1951 110.291 52.1199 110.199C52.9073 109.303 52.2021 107.974 52.0165 106.792C51.9608 106.702 51.832 106.677 51.7526 106.607C51.7732 106.571 51.8289 106.551 51.8495 106.507C52.0515 105.937 52.1895 105.343 52.107 104.672C52.0441 104.314 51.9028 103.94 51.7513 103.569C51.5616 103.133 51.4863 102.706 51.3811 102.281C51.3254 102.105 51.2408 101.931 51.1264 101.758C51.0099 101.584 50.8717 101.406 50.7151 101.235C50.3965 100.899 50.0275 100.584 49.6223 100.291C49.3121 100.099 49.079 99.8668 48.843 99.6334C48.5759 99.0888 48.3801 98.5403 47.7862 98.029C47.4111 97.8749 47.0306 97.7259 46.6513 97.5697C46.6317 97.6924 46.609 97.8136 46.5844 97.9416C46.5926 97.9456 46.5977 97.9482 46.6029 97.9585C46.5957 97.9549 46.5875 97.9587 46.5782 97.9619C46.5792 97.9546 46.5833 97.9489 46.5844 97.9416C46.5637 97.9392 46.5833 97.9645 46.5648 97.9631C46.4462 97.9746 46.3019 97.9501 46.2174 98.0096C46.1318 98.0919 46.2555 98.2309 46.2329 98.3287C46.1257 98.5094 45.8824 98.6072 45.8021 98.809C45.9495 98.9051 46.1 98.9873 46.2649 99.0454C46.2258 99.2597 46.1897 99.4755 46.1505 99.6897C45.8279 99.8419 45.7547 100.078 46.0176 100.442L46.0187 100.442C46.2939 101.069 46.2826 101.577 45.6229 101.82C44.8911 102.074 44.6602 102.513 45.3066 103.299L45.3005 103.28C45.6644 103.655 45.5005 103.955 45.5944 104.29C45.7399 106.371 45.8813 108.458 46.0259 110.538C45.7456 111.615 45.4127 112.673 45.7818 113.961C45.6644 114.83 45.0345 114.347 44.3263 113.873C42.98 112.982 41.4163 112.685 40.9236 113.353C40.332 114.158 39.6703 115.015 40.3384 116.303C41.0416 117.655 41.0613 118.833 40.9088 120.003C40.7986 120.844 40.8213 121.736 41.3162 122.72C41.6378 121.695 41.3418 120.49 41.3076 119.359C41.283 120.476 41.1667 121.564 41.3162 122.72C41.101 124.202 41.9969 125.852 42.5949 127.455C42.3083 127.859 42.6517 128.457 42.5692 128.899C42.3817 129.873 43.2405 131.31 41.7211 131.735C41.6263 131.26 41.0243 130.955 40.6439 130.58C40.8211 130.045 40.2077 129.422 40.0706 128.856C39.9808 128.399 39.8973 127.937 39.6025 127.457C39.3891 127.141 39.5942 126.861 39.2911 126.532C38.2921 125.354 38.3672 124.114 37.156 122.947C36.9714 122.77 36.8013 122.585 36.6487 122.4L36.6456 122.407C35.7065 122.021 35.6395 122.307 35.9808 122.896L35.9777 122.887C36.122 123.075 36.2148 123.261 36.2479 123.441C36.9973 124.387 36.0697 125.081 36.9367 126.047C37.5636 127.704 38.1946 129.355 38.8194 131.011C38.1608 132.445 38.7661 134.076 40.0403 135.811C39.9949 136.022 39.9455 136.231 39.8991 136.442C39.1745 136.559 38.5035 136.477 37.5901 135.979C36.283 135.279 35.9367 135.42 36.279 136.476C36.5038 137.179 36.9151 137.764 35.6771 137.807C34.9834 137.838 35.203 138.476 35.9762 138.904C36.9586 139.46 37.6369 140.161 38.3266 140.867C38.4493 141.839 38.6103 142.806 38.6887 143.772C38.765 144.728 38.4487 145.81 39.9548 146.858C41.3011 147.795 40.9208 148.355 40.3921 148.896C40.0581 149.237 39.5994 149.501 39.1933 149.799C38.0006 149.763 37.4833 150.434 36.5834 150.714C36.4144 150.654 36.2504 150.604 36.0783 150.566C35.3618 150.072 34.1321 149.978 34.0083 149.022C33.966 148.658 34.0855 148.18 33.2207 148.064C32.5671 147.975 32.5425 148.407 32.5508 148.792C32.5539 149.175 32.5776 149.553 32.5951 149.936C32.3541 151.296 32.1573 152.671 32.6378 154.24C32.5502 154.586 32.4194 154.926 32.3771 155.287C32.0908 157.614 30.8807 158.371 27.5831 157.864C26.1668 157.647 25.7256 158.037 25.6608 158.854C25.5177 160.722 25.3859 162.596 26.6313 164.745C26.4994 165.319 26.4696 165.95 25.713 166.184C25.1213 166.048 24.7533 166.208 24.4225 166.419C23.4546 166.478 23.3495 167.197 23.3691 167.729C23.4188 168.991 22.7189 169.767 21.683 170.392C21.1789 170.47 21.0625 171.09 20.2152 170.672C19.4039 170.271 19.3616 169.713 19.5594 169.383C20.0758 168.501 19.6273 167.555 18.7366 166.508C18.3377 166.038 18.1572 165.567 18.1706 165.099C18.2528 162.64 17.1959 159.922 17.2823 157.457C17.3049 156.775 17.0327 156.002 16.4863 155.234C16.0832 154.677 15.777 154.377 14.7772 154.312C12.7465 154.173 11.73 153.227 11.6917 151.706C11.671 150.87 11.64 150.037 11.5976 148.723C10.9195 150.125 9.06087 149.238 8.09916 149.62C6.43027 148.858 4.68709 148.394 3.0408 147.488C1.7945 146.794 0.751423 146.996 0.889608 147.92C1.04536 148.94 0.894939 149.955 1.78464 151.088C1.93301 150.562 2.05354 150.029 2.23598 149.528C2.26892 149.435 2.45241 149.502 2.5091 149.437C2.16798 149.837 1.7371 150.107 1.78464 151.088C1.96618 152.533 1.69313 153.924 3.06841 155.53C2.78088 156.174 3.10772 156.897 3.71287 157.647C3.66143 158.891 3.32757 160.081 3.61525 161.384C4.08039 163.467 3.82387 165.31 3.84159 167.25C3.84996 168.477 3.19241 169.585 4.21924 171.058C3.86789 173.002 3.81761 175.041 4.04974 177.165C3.81894 178.172 3.62213 179.22 3.94388 180.36C4.6574 182.885 4.30409 185.124 4.50121 187.511C4.68903 189.823 3.77589 191.825 4.58636 194.313C4.6884 194.62 4.50189 194.91 4.40498 195.189C3.69705 197.253 3.7457 199.535 4.12113 201.925C3.71814 202.022 3.57493 202.278 3.55534 202.595C3.4442 204.339 3.27116 206.068 3.26824 207.842C3.26252 212.598 3.38772 217.378 3.25932 222.096C3.23056 223.204 2.66983 224.196 3.37503 225.51C3.15259 227.651 3.18686 229.856 3.54886 232.153C3.68391 232.157 3.79114 232.117 3.90762 232.088C3.90551 232.095 3.90345 232.102 3.90449 232.102C3.78798 232.123 3.66638 232.141 3.54886 232.153C3.12638 233.369 3.16565 234.697 3.83996 236.19C3.82347 236.408 3.80907 236.626 3.79258 236.844C3.7453 238.277 3.73407 239.728 3.63423 241.142C3.57969 241.941 3.17468 242.597 3.30357 243.487C3.60167 245.573 3.99051 247.688 3.9072 249.687C3.87531 250.482 3.74137 251.288 4.29399 252.215C4.60237 253.932 3.65106 255.285 4.33773 257.119C4.4697 257.464 4.09352 257.637 3.81315 257.81C3.52043 257.992 3.39055 258.279 3.52871 258.627C4.45562 260.907 3.27344 262.527 3.14685 264.474C1.57281 264.405 1.90073 265.525 1.5864 266.242L1.58436 266.248C0.750447 266.46 0.853602 266.97 1.53397 267.633C1.91027 268.006 2.49166 268.363 2.68651 268.724C3.4711 270.217 4.87712 270.678 6.50685 270.891C6.73776 271.036 6.90581 271.205 7.1419 271.353C7.35735 271.506 7.52948 271.669 7.63463 271.861C7.74295 272.927 8.45536 274.12 7.89571 275.05C7.62158 275.507 7.45981 276.104 7.76295 276.783C10.6101 277.341 10.9369 277.619 11.6133 279.869C11.8978 280.235 12.2328 280.362 12.6142 280.246C13.1336 279.413 12.2471 278.118 12.8675 277.319C12.9912 277.185 13.219 277.157 13.4365 277.125C13.9323 277.105 14.5003 277.198 14.8621 276.972C14.9899 277.066 15.1084 277.094 15.2208 277.056C15.9764 277.367 16.7176 277.748 16.6022 278.369C16.3096 279.961 18.1343 281.197 19.6197 282.46C21.2331 283.833 21.3619 283.819 22.3627 282.6C22.6925 282.397 22.7482 282.058 22.8646 281.742C22.9162 281.939 22.9781 282.125 23.0131 282.314C22.9967 282.454 22.9823 282.587 22.9689 282.72C23.0235 282.755 23.0843 282.777 23.14 282.813C23.1503 282.833 23.1472 282.847 23.1575 282.868C23.2122 282.973 23.2925 283.075 23.3667 283.174C23.2348 283.303 23.0442 283.412 23.2648 283.669C23.5359 284.355 23.3731 285.046 24.437 285.836C25.0049 284.777 26.6006 284.6 27.4663 283.828C28.5075 283.953 29.5362 284.103 30.0187 285.174C29.6777 287.116 30.2943 289.017 33.1797 290.862C34.3394 291.607 35.0331 291.825 37.9854 292.185C38.2678 292.254 38.4874 292.238 38.5874 292.077C39.4172 292.175 39.8615 292.48 40.1832 292.857C40.2584 292.933 40.3048 293.019 40.3615 293.101C40.5945 293.442 40.777 293.812 41.0038 294.158C41.2358 294.888 41.4678 295.625 41.7008 296.356C41.1639 298.006 41.5218 299.997 40.5777 301.501C40.2789 301.977 40.2284 302.754 41.4799 303.317C42.8643 303.931 42.6005 304.432 42.351 305.025C42.0728 305.689 41.8688 306.391 42.3564 307.278C43.6431 309.611 44.0122 311.73 43.0492 313.542C41.625 313.928 39.8007 313.214 38.1985 313.108C36.4794 312.991 36.4604 313.226 38.0261 314.711L38.0305 314.713C38.2033 314.898 38.3528 315.089 38.5 315.281C38.8314 315.781 39.0732 316.281 39.2813 316.784C39.5867 319.777 39.6199 322.68 38.5935 325.244C38.2794 326.028 38.2627 326.931 38.6189 327.874C38.9557 328.763 38.8312 329.392 38.4091 330.01C37.8432 330.842 37.312 331.715 37.854 332.972C37.3282 335.213 37.1749 337.554 37.8661 340.145C38.2438 341.561 38.3119 342.963 37.9522 344.133C36.9884 347.279 38.0671 350.897 38.6424 354.409C38.6496 354.467 38.7463 354.541 38.7969 354.607C38.711 355.303 38.7653 356.013 39.4386 356.808C38.8797 358.485 39.79 360.583 39.4794 362.312C39.2435 363.637 39.7715 365.146 40.2385 366.511C40.7859 368.118 41.0449 369.689 40.859 370.98C40.4977 373.542 41.4771 376.622 39.4844 378.605C38.9333 379.158 39.0247 379.972 40.4846 380.729C41.2109 381.102 41.7555 381.648 42.0244 382.204C42.5178 383.217 43.2568 383.331 44.1854 383.203C44.534 383.154 44.7112 382.803 45.4564 383.216C45.6934 384.823 45.7225 386.379 44.6081 387.532C44.3174 387.83 43.7735 388.215 44.7983 388.624C46.3537 389.248 46.6959 390.162 47.1852 391.601C48.2413 389.429 49.812 388.108 51.0137 386.565C52.0781 386.36 52.1337 385.274 53.3625 385.229C54.3315 385.723 53.9466 386.333 54.5041 386.827C54.6168 388.274 54.3415 389.621 54.7232 391.138C54.4989 393.087 53.2118 394.613 53.3488 396.707C52.3343 397.143 52.3338 398.149 51.8669 398.892C51.4676 399.519 51.7288 400.075 52.9732 400.546C55.4906 401.504 56.9772 403.056 58.0123 404.852C58.3633 405.185 58.2408 405.477 58.3505 405.79C58.3464 405.788 58.3476 405.785 58.3431 405.784C58.2718 406.024 58.2743 406.315 58.5876 406.553C60.5316 408.046 62.0886 409.702 63.6965 411.346C63.8611 411.534 64.0723 411.714 64.1467 411.927C63.9552 412.668 63.9138 413.429 64.7119 414.464C65.8878 414.199 66.3108 413.688 66.189 412.738C66.0291 411.514 66.0651 410.333 66.0168 409.132C66.3243 408.754 66.4902 408.314 66.4594 407.789C67.1821 407.3 67.9077 406.809 68.6306 406.317C69.1395 406.452 69.6834 406.431 70.1332 406.878C69.7711 408.063 70.4618 409.648 69.2908 410.539C69.0046 410.755 69.1307 411.229 69.4662 411.677C70.3586 412.874 71.3901 414.041 71.4118 415.29C71.4219 415.849 72.3319 416.278 73.0676 416.619C74.1245 417.109 75.2906 417.487 75.9091 418.444C75.7449 419.127 75.3779 419.774 75.7872 420.607C76.2564 421.565 76.7235 421.38 77.0625 420.875L77.0631 420.874C77.0617 420.872 77.0617 420.872 77.0602 420.87C77.2102 420.753 77.4555 420.742 77.6681 420.696C78.8277 420.84 79.9269 421.226 80.9242 422.001C81.5802 423.453 83.1985 424.458 84.7562 425.409C87.2074 426.903 88.5189 426.787 89.0854 425.13C89.3558 424.339 89.5125 423.5 89.7176 422.682C90.4814 421.605 91.9586 421.239 93.7012 421.138C95.3818 422.209 95.1422 423.2 94.9753 424.146C94.8075 425.116 94.9171 426.032 96.396 426.986C97.5542 427.736 97.5393 428.548 97.7775 429.343C97.5337 430.13 97.2466 430.901 97.0525 431.707C96.8032 432.746 97.3482 433.426 98.8899 434.07C99.5324 434.337 100.142 434.368 100.739 434.4C100.874 434.497 101.021 434.572 101.18 434.623C101.737 434.94 102.027 435.328 102.167 435.756C102.264 436.466 102.363 437.177 102.49 438.067C104.211 437.229 104.049 435.562 104.859 434.433C106.138 434.213 107.457 434.061 108.031 433.118C108.289 432.689 108.898 433.071 109.345 433.49C109.242 433.581 109.24 433.703 109.326 433.851C108.901 435.676 108.524 437.52 108.025 439.313C107.754 440.291 107.633 441.429 108.832 442.385C110.153 443.441 111.8 443.498 113.13 443.192C113.867 443.389 114.519 443.456 114.863 443.042C115.462 442.718 116.18 442.509 116.883 442.289C117.355 441.973 117.831 441.659 118.306 441.345C119.201 441.654 120.042 441.78 120.871 441.768C121.502 441.761 122.167 441.705 122.861 442.261C123.089 442.823 122.876 443.357 123.597 444.058C124.581 443.868 125.391 443.556 126.073 443.111C131.092 443.409 131.997 443.177 134.629 447.689C134.229 448.554 134.27 449.398 136.005 450.235C136.304 450.38 136.533 450.678 136.795 450.911C136.843 451.735 136.744 452.473 136.215 453.085C135.547 453.863 135.941 454.353 137.49 454.794C138.189 454.995 138.939 455.216 139.524 455.019C140.545 455.093 140.644 454.592 140.457 453.928C140.36 453.592 140.154 453.233 140.104 452.908C140.043 452.513 140.045 452.105 140.602 452.028C141.223 451.943 141.839 452.202 142.41 452.644C142.952 453.065 143.512 453.561 143.402 454.006C143.139 455.08 144.161 455.781 145.4 456.55C146.219 457.056 146.925 457.685 147.684 458.258C147.783 458.241 147.884 458.227 147.981 458.208C147.98 458.211 147.983 458.215 147.983 458.217C147.881 458.228 147.782 458.245 147.684 458.258C147.819 458.451 147.957 458.644 148.094 458.838C148.178 458.823 148.263 458.806 148.349 458.79C148.352 458.797 148.354 458.802 148.356 458.809C148.271 458.819 148.182 458.829 148.094 458.838C148.059 459.135 148.145 459.444 148.471 459.762C148.748 461.447 148.932 463.115 149.724 464.882C149.673 465.282 149.638 465.685 149.998 466.158C150.075 466.145 150.156 466.132 150.232 466.121C150.154 466.133 150.077 466.146 149.998 466.158C150.061 467.474 149.044 468.51 150.201 470.114C150.15 470.662 150.166 471.236 150.025 471.749C149.812 472.515 150.148 473.156 150.819 474.12C151.709 475.398 153.505 476.404 153.861 477.741C153.843 478.518 153.468 479.199 153.917 480.105C153.856 480.202 153.846 480.32 153.892 480.451C153.309 483.036 153.982 486.038 152.934 488.56C154.954 488.923 155.108 487.986 155.147 487.048C155.253 484.422 155.29 481.775 155.978 479.345C157.57 478.794 157.899 478.848 159.339 479.899C159.087 480.52 159.361 481.278 159.443 481.989C159.635 483.66 160.019 485.418 159.737 486.92C159.548 487.896 159.317 488.748 159.951 489.884C159.899 489.981 159.913 490.091 159.984 490.218C160.352 490.708 159.891 491.025 160.173 491.499L160.17 491.481C160.743 491.981 160.127 492.303 160.513 492.775C160.325 493.264 160.564 493.832 160.829 494.408C160.766 495.329 160.548 496.22 160.693 497.188C160.819 498.013 161.394 497.319 161.77 497.509C162.701 495.969 162.221 494.002 161.94 492.095C161.803 490.896 161.671 489.699 161.538 488.499C161.506 487.799 161.54 487.111 161.438 486.397C160.933 482.787 161.166 479.376 160.938 475.841C161.304 474.69 160.935 473.203 162.094 472.453C164.348 474.11 167.008 475.436 168.252 477.571C168.267 477.974 168.077 478.34 168.478 478.819C168.143 479.204 168.392 479.789 168.294 480.256C168.155 482.351 168.051 484.459 166.545 485.981C166.046 486.485 165.818 487.08 166.664 487.938C166.769 488.014 166.891 488.042 167.002 488.103C167.012 488.176 166.991 488.244 167.056 488.327C166.818 489.266 166.575 490.206 166.333 491.145C166.46 491.331 166.584 491.516 166.71 491.702C166.911 491.777 167.115 491.853 167.317 491.928C167.314 491.942 167.312 491.955 167.309 491.969C167.127 491.829 166.942 491.696 166.71 491.702C166.319 492.755 166.313 494.001 165.065 494.61C164.642 494.817 164.755 495.185 165.039 495.647C165.326 496.113 165.459 496.595 165.657 497.069C166.41 497.966 166.184 498.651 166.031 499.366C165.771 500.554 165.671 501.807 165.313 502.953C164.315 506.141 164.644 509.885 162.384 512.55C161.976 513.034 162.182 514.175 162.955 514.366C164.837 514.831 165.797 516.005 167.117 517.093C167.4 516.589 167.61 516.233 167.797 515.862C168.237 514.976 169.156 514.964 170.541 515.779C170.567 515.999 170.724 516.198 170.998 516.372C170.918 516.456 170.934 516.56 171.05 516.687C170.78 517.323 171.069 518.091 171.349 518.839C171.594 519.512 172.16 519.924 173.001 519.748C173.365 519.67 173.677 519.53 174.015 519.419C175.52 520.062 175.894 521.227 176.898 522.099C176.981 522.077 177.068 522.055 177.15 522.032C177.174 522.075 177.2 522.118 177.225 522.161C177.117 522.152 177.012 522.131 176.898 522.099C176.897 522.405 176.962 522.711 177.334 523.029L177.284 523.034C177.259 524.803 177.558 525.225 179.736 526.498C181.685 527.639 182.341 527.705 184.255 526.948C184.257 526.949 184.255 526.948 184.257 526.949L184.255 526.948C184.523 526.796 184.526 526.451 184.947 526.412C185.688 526.072 186.018 525.411 186.876 525.145C187.361 524.995 187.599 524.601 187.325 524.058C186.185 521.792 187.144 520.002 186.572 517.857C186.244 516.632 187.123 516.116 188.494 515.917C189.331 515.795 190.45 516.069 191.025 515.575C191.421 515.523 191.394 515.16 191.7 515.042L191.707 515.04C192.369 514.922 192.999 514.898 193.381 515.738C193.765 517.813 192.861 519.465 192.869 521.43C192.877 523.175 192.62 523.102 194.902 524.504C194.762 527.823 195.494 531.506 192.205 533.512C192.12 533.563 192.14 533.699 192.124 533.81C193.913 533.824 195.604 534.096 196.887 535.835C197.071 536.086 197.483 536.3 197.793 536.527C199.423 537.719 199.855 537.705 200.541 536.446C202.388 536.704 202.634 536.558 201.644 535.445C199.29 532.807 198.502 530.416 199.467 528.222C199.741 528.32 200.017 528.408 200.284 528.514C202.36 529.349 202.411 529.374 202.867 528.135C203.22 527.178 203.704 526.306 204.453 525.571C205.509 526.045 206.668 526.862 207.297 525.929C208.235 526.141 209.133 526.426 209.743 527.212C209.853 528.71 209.459 530.035 209.234 531.417C209.103 532.195 209.061 533.013 207.668 533.007C207.081 533.006 206.655 533.258 206.821 533.842C207.207 535.2 206.447 536.107 205.962 537.115C205.728 537.609 205.346 538.078 206.174 538.737C206.853 539.275 207.658 539.564 208.513 539.557C209.943 539.548 211.411 539.611 212.862 539.642C213.502 539.989 214.108 540.029 214.723 540.08C216.441 540.227 217.124 539.836 216.486 538.542C215.475 536.485 215.3 534.557 214.592 532.555C214.803 531.614 215.011 530.67 215.222 529.727L215.386 529.673L215.356 529.515C215.937 529.238 216.642 529.056 216.805 528.461L216.805 528.478C219.234 528.242 220.487 527.181 220.562 525.276C220.859 525.336 221.02 525.251 221.125 525.101C221.605 525.532 222.088 525.964 222.57 526.395C222.641 526.375 222.712 526.357 222.787 526.34C222.789 526.351 222.79 526.36 222.79 526.372L222.57 526.395C222.556 526.599 222.665 526.798 222.934 526.984C223.016 526.967 223.101 526.95 223.182 526.934C223.195 526.954 223.209 526.972 223.222 526.992C223.127 526.991 223.03 526.988 222.934 526.984C223.318 528.213 223.785 529.437 225.103 530.607C225.494 531.286 225.775 531.977 226.439 532.623C226.579 532.92 226.718 533.216 226.858 533.51C226.825 533.63 226.795 533.748 226.762 533.868C225.559 534.881 225.719 536.661 224.26 537.522C222.92 538.317 222.723 539.417 224.273 541.022C224.704 540.923 224.669 540.502 224.851 540.21C225.756 540.136 226.877 540.761 227.749 540.57C227.715 540.468 227.594 540.387 227.517 540.293C227.538 540.299 227.56 540.308 227.579 540.312C227.637 540.399 227.691 540.485 227.749 540.57C228.334 540.741 228.902 540.855 229.368 540.705L229.215 540.505C229.22 540.503 229.22 540.496 229.225 540.494C229.272 540.564 229.321 540.634 229.368 540.705C230.672 540.973 231.966 542.089 233.274 541.839C233.831 541.967 234.235 541.869 234.573 541.674C236.398 542.057 238.226 542.431 240.001 543.43L239.974 543.405C240.4 544.291 241.108 544.813 242.284 544.805C242.862 544.801 243.457 544.817 244.108 545.049C245.574 545.574 246.249 545.214 246.478 544.354C247.638 543.822 246.947 542.735 246.635 541.721C246.234 540.407 247.132 540.079 248.456 541.135C250.648 542.882 251.842 542.538 253.07 541.719C253.282 541.579 253.524 541.465 253.753 541.339C254.489 541.207 254.87 540.803 255.164 540.332C255.518 540.263 255.5 539.844 256.028 539.936C256.263 539.907 256.484 539.851 256.732 539.85C259.157 539.837 260.376 539.219 260.426 537.119C260.49 534.572 261.766 532.388 262.514 530.046C264.487 530.128 264.107 528.621 264.841 527.866C264.194 527.254 263.945 527.426 263.576 527.359C263.965 527.347 264.397 527.531 264.841 527.866C265.375 527.873 265.545 527.362 266.292 527.677C266.861 528.834 267.211 529.965 267.491 531.094C267.771 532.225 268.122 533.365 268.991 534.525C268.895 534.833 268.878 535.141 269.437 535.463L269.428 535.453C269.626 535.64 269.8 535.834 269.88 536.042L269.87 536.028C270.353 536.95 270.815 537.863 272.289 537.383C272.773 537.226 273.428 537.338 274.071 537.634C275.301 538.199 276.11 537.989 276.83 537.601C277.832 537.82 278.826 538.025 279.394 537.486C280.184 536.731 280.744 537.521 281.319 538.172C281.422 538.976 281.908 539.788 282.498 540.6C283.026 541.339 283.778 541.322 284.496 541.432C283.893 541.409 283.235 541.145 282.498 540.6C282.815 541.688 282.852 542.813 284.749 543.89C284.841 542.263 285.732 541.757 288.208 542.813C289.342 543.296 289.382 542.363 289.592 541.826C289.718 541.818 289.846 541.85 289.977 541.919C291.837 542.479 293.774 543.372 295.395 542.85C295.685 542.939 295.971 543.081 296.259 543.177C296.429 543.274 296.598 543.374 296.768 543.471C298.062 545.218 296.959 546.214 296.604 547.464C296.342 548.397 295.16 548.036 294.21 548.059C294.043 548.065 294.036 548.355 293.953 548.512C294.361 548.844 294.621 549.228 294.982 549.574C294.972 549.583 294.965 549.595 294.954 549.604C295.015 549.813 295.122 550.022 295.281 550.229C295.934 550.761 296.557 551.317 297.246 551.82C298.516 552.748 299.618 552.879 300.033 552.029C300.39 551.3 301.078 550.684 300.786 549.669C300.925 549.153 300.979 548.591 301.22 548.123C301.801 547 303.259 546.71 304.919 547.461C305.974 547.938 306.969 548.452 308.089 548.634C308.774 548.748 309.294 549.213 309.678 549.71C309.728 550.29 309.973 550.96 309.787 551.431C309.465 552.261 309.854 553.508 308.311 553.679C306.576 553.871 306.59 554.153 308.346 555.722C310.317 556.494 310.396 556.476 310.883 555.17C310.287 554.364 311.229 553.949 310.751 553.173L310.75 553.166C311.234 551.983 311.124 550.644 310.558 549.186C311.067 546.944 311.58 544.702 312.091 542.459C312.123 542.346 312.15 542.231 312.177 542.115C312.175 542.114 312.176 542.116 312.174 542.115C312.894 541.75 312.73 540.955 312.98 540.364C314.549 536.578 314.101 532.08 314.822 527.995C315.399 526.009 316.084 524.127 314.979 521.557C314.115 519.553 314.292 517.635 314.241 515.731C314.798 515.265 314.691 514.522 314.691 513.846C314.691 511.838 315.037 509.95 315.309 508.036C316.344 506.683 315.578 505.252 313.442 503.756C313.409 500.691 312.368 497.371 312.882 494.437C313.05 493.492 313.249 492.513 312.777 491.375C313.312 488.623 313.586 485.779 313.843 482.929C314.257 478.287 314.68 473.646 315.117 469.008C315.183 468.331 315.335 467.679 315.494 467.031C315.666 466.336 316.363 466.381 317.318 466.845C318.36 467.951 318.234 468.858 317.989 469.753C317.813 470.393 317.577 471.02 317.862 471.803C317.985 472.145 318.14 472.538 318.615 472.764C319.146 473.019 319.408 472.781 319.663 472.579C320.345 472.024 321.046 471.483 321.738 470.936C322.535 470.592 323.518 470.838 324.556 471.29C324.985 471.98 325.413 472.671 325.84 473.36C325.982 474.658 326.169 475.968 326.253 477.248C326.383 479.164 326.349 479.169 329.147 480.359C329.964 480.706 330.707 481.138 331.478 481.558C332.613 482.174 333.639 482.398 334.16 481.625C334.406 481.467 334.646 481.309 334.89 481.153C335.563 481.051 336.26 481.166 337 481.63C337.287 481.768 337.423 481.983 337.61 482.173L337.618 482.178C338.004 482.557 338.456 482.655 338.925 482.699C338.921 482.704 338.913 482.706 338.911 482.712C338.856 483.081 339.327 483.413 339.554 483.76L339.554 483.763C339.949 484.495 340.065 485.435 341.603 485.276C342.275 485.156 342.877 485.293 343.345 485.973C343.466 486.937 343.587 487.904 343.708 488.869C343.751 489.57 343.832 490.286 343.823 490.975C343.812 491.847 343.811 492.577 345.587 492.463C346.353 492.416 347.198 492.989 347.992 493.339C348 493.34 348.002 493.332 348.01 493.335C348.005 493.337 347.999 493.337 347.995 493.339C348.831 493.953 349.366 495.188 350.75 494.698C350.834 494.706 350.924 494.717 351.009 494.725C353.666 494.949 355.152 497.624 357.766 498.022C358.247 498.096 358.837 498.562 359.105 498.977C360.269 500.778 361.898 501.094 363.695 500.971C364.307 501.223 364.913 501.417 365.468 501.323C366.249 501.543 367.052 502.194 367.795 501.908C368.794 501.519 369.587 502.09 370.342 502.88C370.646 503.198 370.937 503.628 371.315 503.799C373.675 504.87 373.73 506.08 373.749 507.439C373.773 508.857 373.245 510.05 373.089 511.387C373.049 511.746 372.927 512.176 373.612 512.491C374.263 512.789 375.121 513.228 375.287 512.48C375.965 511.595 376.749 510.794 378.296 510.615C378.969 510.876 379.645 511.138 380.319 511.397C382.239 513.5 384.363 511.996 386.348 513.281C386.69 513.503 387.1 513.493 387.298 513.326C388.346 512.441 390.341 512.418 391.232 511.395C392.686 510.987 393.466 509.741 395.918 510.545C396.513 510.739 397.206 510.466 397.458 510.003C398.608 509.844 399.541 510.764 400.579 511.175C401.057 511.745 401.535 512.319 402.012 512.893C401.944 513.408 401.959 513.94 402.237 514.53C402.013 516.468 401.069 518.161 401.498 520.317C401.712 521.386 401.86 522.43 401.516 523.326C401.148 524.295 401.745 525.088 403.246 525.773C403.462 525.988 403.647 525.97 403.83 525.905C403.853 525.929 403.857 525.958 403.882 525.983C403.668 525.913 403.459 525.843 403.246 525.773C403.68 526.529 404.106 527.284 404.551 528.04C404.865 528.57 404.864 529.25 405.699 529.577C406.618 529.935 407.13 529.509 407.638 529.2C407.928 529.022 408.057 528.759 408.026 528.42C408.534 527.183 409.658 526.194 409.025 524.502L408.973 524.511C409.341 523.21 409.974 521.995 409.337 520.364C409.495 519.271 409.002 517.969 409.608 517.024C409.748 516.837 409.978 516.68 410.013 516.454C410.482 513.578 410.356 510.5 410.988 507.675C411.034 507.458 410.841 507.149 410.755 506.881C410.818 506.713 410.882 506.546 410.944 506.379C412.327 502.686 411.366 498.118 413.226 494.608C413.253 494.556 413.232 494.482 413.23 494.418C413.204 492.104 413.582 489.931 413.899 487.736C413.494 486.524 414.821 485.824 413.936 484.476C413.628 484.565 413.685 484.827 413.474 484.957C413.534 484.752 413.634 484.568 413.664 484.349C413.836 483.788 414.165 483.273 414.16 482.655C414.132 481.053 414.818 479.764 415.629 478.537C415.811 478.456 415.877 478.286 416.113 478.247C416.805 477.771 417.485 477.235 418.83 478.467C418.941 478.537 418.938 478.637 419.029 478.713C419.02 478.732 419.021 478.756 419.01 478.782C419.501 479.273 419.763 479.777 419.941 480.293C419.359 480.877 420.887 482.131 420.364 482.339C419.054 482.861 419.628 484.016 419.483 484.934C418.621 490.388 418.346 496.047 417.439 501.49C416.755 505.603 416.723 509.952 415.583 513.906C415.267 514.241 414.713 514.58 415.781 515.131C416.196 515.343 416.616 515.067 416.651 514.788C416.665 514.652 417.023 514.792 416.697 514.892C416.782 515.729 414.443 514.745 415.075 516.053C414.671 517.052 415.361 518.444 414.752 519.345C413.589 521.049 413.85 523.327 413.061 525.182C412.793 525.814 412.783 526.652 414.182 527.38C415.825 528.956 415.949 528.993 416.863 528.087C417.618 527.332 418.106 526.46 417.656 525.209C418.045 524.475 417.326 523.398 417.938 522.696C418.844 521.662 418.719 520.243 418.146 518.715C417.464 518.732 417.365 519.131 417.301 519.557L417.3 519.557C417.858 519.459 417.903 519.022 418.146 518.715C418.167 518.494 418.19 518.273 418.214 518.054C418.339 516.911 418.807 515.931 419.505 515.057C419.915 514.741 419.578 514.023 420.194 513.831C421.543 513.407 421.621 512.367 421.54 511.235C421.386 511.159 421.229 511.086 421.072 511.018C420.77 510.499 419.958 510.174 419.7 509.636C419.757 509.414 419.815 509.193 419.876 508.974C420.149 508.826 420.177 508.588 420.014 508.277C419.948 507.688 419.886 507.102 419.821 506.514C419.947 504.008 421.12 501.906 421.435 499.469C421.518 498.855 421.82 498.282 421.447 497.591C420.695 496.201 421.037 495.171 421.472 494.163C421.587 494.087 421.703 494.012 421.806 493.931C421.83 493.911 421.853 493.899 421.878 493.881C421.95 493.893 422.022 493.921 422.095 493.925C422.121 493.845 422.146 493.764 422.172 493.683C422.226 493.648 422.274 493.609 422.336 493.577C422.412 493.56 422.506 493.568 422.59 493.563C423.076 494.005 423.323 494.633 424.25 494.733C424.181 494.317 424.481 493.982 424.078 493.503L424.135 493.352L424.059 493.167C424.3 492.079 424.74 491.05 424.335 489.752C424.336 489.753 424.334 489.751 424.337 489.753C424.108 488.121 423.881 486.491 423.654 484.86C423.687 484.744 423.728 484.624 423.762 484.509C424.007 484.349 424.06 484.111 423.945 483.804C423.438 483.25 423.949 482.903 423.722 482.409C423.861 481.442 424.002 480.476 424.141 479.509C424.223 478.942 424.575 478.672 425.541 479.072L425.527 479.033C426.224 480.047 427.425 480.695 428.59 481.372C429.049 482.323 430.123 483.056 430.99 483.865C431.161 484.721 431.657 485.51 432.834 486.146C434.463 487.706 436.441 488.161 438.354 488.343C439.425 488.444 440.269 488.604 441.122 489.398C443.342 491.453 446.12 492.14 448.846 492.933C449.421 493.092 449.973 493.132 450.16 492.764C450.714 491.699 451.984 490.893 450.808 489.191C450.955 488.298 450.902 487.251 452.846 487.752C453.726 488.226 454.557 488.543 454.618 487.677C454.703 486.481 455.425 486.588 457.103 487.261C459.738 488.321 460.566 487.796 460.725 485.998C460.841 484.661 460.771 483.155 461.936 482.313C462.917 481.606 463.054 480.692 462.657 479.499C462.579 477.895 462.888 476.428 463.048 474.911C463.201 473.46 464.002 472.22 463.512 470.569C464.275 469.279 464.05 467.626 464.389 466.174C464.527 465.572 464.014 465.008 463.2 464.52C463.197 464.518 463.202 464.513 463.2 464.512C463.776 461.534 464.475 458.585 463.4 455.11C463.259 454.651 463.438 454.234 463.488 453.807C463.776 451.301 464.556 448.953 463.943 446.166C464.23 445.467 464.067 444.6 464.603 443.985C465.239 443.255 465.302 442.266 465.094 441.198C465.141 439.804 466.01 438.675 465.458 437.079C465.544 435.891 466.51 435.091 466.574 433.885C466.76 430.449 466.87 426.991 467.282 423.636C467.609 420.947 466.924 418.008 466.964 415.255C467.699 413.617 467.104 411.548 467.464 409.771C467.95 407.356 467.009 404.516 467.523 402.075C467.815 400.685 467.585 399.092 467.586 397.597C467.592 397.593 467.589 397.591 467.593 397.593C467.672 396.939 467.92 396.29 466.517 395.675C465.854 395.387 465.845 395.009 465.905 394.657C465.887 394.882 465.649 395.021 465.768 395.29C465.359 394.496 465.218 393.749 466.215 393.244C466.874 392.34 468.141 391.789 468.287 390.592C468.557 388.389 468.93 386.222 469.186 384.012C469.476 381.515 469.603 378.915 471.162 376.928C472.489 377.07 473.332 376.855 473.217 375.739C473.17 375.264 473.503 374.876 473.664 374.45C473.656 374.453 473.657 374.462 473.651 374.459C474.501 374.201 474.519 373.509 474.579 372.838C474.575 372.844 474.577 372.845 474.575 372.844C475.251 372.391 474.977 371.485 475.478 370.953C475.843 370.557 475.665 369.8 476.537 369.763C477.607 369.715 477.799 369.094 478.031 368.476C478.517 367.198 479.004 365.928 479.496 364.652C480.714 362.886 481.646 360.972 482.155 358.879C482.655 356.844 483.358 354.894 484.049 352.938C484.766 352.459 484.884 351.66 485.248 350.992C485.761 350.061 485.556 348.738 486.58 348.129C487.658 347.486 487.746 346.525 487.632 345.41C488.378 344.844 488.343 343.876 488.834 343.176C488.761 343.078 488.628 343.059 488.524 343C488.563 342.988 488.559 342.939 488.601 342.937C488.678 343.014 488.757 343.099 488.834 343.176C489.245 343.13 489.45 342.936 489.506 342.628C489.431 342.56 489.36 342.494 489.291 342.421C489.29 342.421 489.292 342.422 489.292 342.422C489.366 342.489 489.433 342.561 489.506 342.628C489.925 342.493 490.006 342.221 489.68 341.803C489.816 341.201 489.13 340.792 488.53 340.324C486.965 339.115 485.076 338.657 483.348 337.835C483.06 337.568 482.768 337.307 482.476 337.046C482.232 336.194 481.191 335.851 480.39 335.385C478.542 334.332 478.466 334.303 477.577 335.366C477.007 336.05 476.371 336.429 474.901 335.672C474.755 335.546 474.591 335.457 474.398 335.408C474.083 333.875 473.182 332.316 472.182 330.771C471.716 330.042 471.337 329.333 471.877 328.907C472.554 328.369 472.525 327.521 472.868 326.85C474.165 326.096 475.104 325.197 473.768 323.377C473.643 323.207 473.752 322.996 473.753 322.809C473.916 322.773 474.003 322.691 474.008 322.553C475.188 322.521 475.417 322.066 474.091 321.372C472.486 320.533 471.217 319.548 470.063 318.394C469.507 317.839 468.869 317.274 468.005 316.957C467.723 316.724 467.472 316.452 467.154 316.272C465.257 315.156 463.209 314.596 461.209 313.928C458.007 312.86 455.954 310.717 456.062 308.59C456.115 307.456 456.667 306.35 455.139 304.941C454.818 304.65 454.879 304.424 455.089 304.247C455.491 303.916 455.692 303.439 455.594 302.923C455.243 301.037 456.646 299.713 455.924 297.713C455.834 297.474 455.948 297.188 456.142 297.05C456.839 296.569 456.769 295.771 456.736 295.007C456.692 294.082 456.897 293.303 457.436 292.611C458.096 291.754 458.809 290.751 458.464 289.607C458.165 288.611 458.235 287.851 458.313 287.002C458.533 284.595 459.451 282.463 459.729 280.085C459.773 279.702 459.851 279.359 460.117 279.093C461.905 277.313 462.026 274.787 462.535 272.438C462.924 270.667 463.272 268.877 463.749 267.135C463.939 266.442 464.309 265.713 465.929 266.638C466.603 267.026 466.933 266.869 467.184 266.549C467.837 265.727 468.865 265.892 470.363 266.585C471.952 267.315 472.282 268.172 472.53 269.143C472.7 269.795 472.288 270.347 472.886 271.125C473.601 270.809 474.414 270.564 474.08 269.706C473.776 268.917 474.225 268.415 474.599 268.023C475.432 267.15 475.259 265.951 475.378 264.826C475.608 262.673 475.733 260.508 475.241 258.162C475.442 255.879 475.903 253.669 475.069 251.108C475.061 250.146 474.881 249.123 475.082 248.248C475.835 244.976 475.347 241.324 475.725 237.936C476.092 234.668 475.415 231.094 475.981 227.877C476.249 226.366 476.424 224.817 476.387 223.218C476.26 217.642 476.477 212.174 476.59 206.677C477.062 204.224 477.031 201.631 476.554 198.903C476.153 198.223 476.723 197.803 476.501 197.164L476.569 197.065L476.462 196.927C476.95 195.493 476.914 193.856 476.758 192.252C476.609 190.699 477.077 189.233 476.172 187.548C475.742 186.751 475.675 186.072 475.512 185.353C475.523 184.798 475.263 184.319 474.378 183.983C473.493 185.017 472.613 186.016 473.247 187.676C473.389 188.05 473.16 188.396 473.028 188.728C472.692 189.575 472.684 190.505 472.988 191.535C473.225 192.353 473.151 193.072 473.115 193.825C472.975 196.567 471.852 198.979 472.312 201.909C471.832 202.31 471.214 201.982 470.579 201.59C470.152 200.336 469.274 199.046 469.151 197.817C469.854 195.431 469.274 192.637 469.691 190.148C469.959 188.529 470.148 186.901 469.798 185.054C469.164 181.719 469.144 178.509 469.525 175.45C469.783 173.373 469.61 171.178 469.895 169.122C470.022 168.539 470.156 167.966 470.262 167.38C470.403 166.624 471.024 166.433 472.096 167.087C474.007 168.264 473.933 167.27 474.135 166.544C476.945 166.608 477.038 166.521 476.792 164.578C476.749 164.222 476.517 163.905 476.288 163.566C475.549 162.484 475.573 161.725 476.751 161.318C477.669 161 478.402 160.49 479.217 160.067C479.547 159.786 479.611 159.351 479.717 158.951C479.587 159.339 479.213 159.614 479.217 160.067C479.981 159.962 479.698 159.292 479.938 158.905C480.216 158.466 480.653 158.113 481.505 158.503C483.33 159.342 483.439 158.368 483.757 157.754C484.808 155.727 484.643 153.091 486.92 151.677C487.019 151.616 487.023 151.463 487.021 151.337C486.956 149.584 487.591 148.107 488.134 146.591C488.624 145.222 488.076 143.541 487.559 141.915C487.281 141.062 485.755 140.869 485.129 140.116C485.156 139.07 485.234 138.018 484.529 136.837C484.263 136.394 483.967 135.742 483.185 135.753C482.2 135.765 480.989 135.128 480.152 135.493C478.717 135.446 478.113 136.355 476.772 136.425C475.639 135.585 474.212 135.004 473.303 133.972C473.144 133.574 472.99 133.178 472.532 132.812C472.531 132.812 472.536 132.814 472.535 132.814C472.09 132.321 472.107 131.816 471.716 131.319C471.721 131.321 471.72 131.321 471.725 131.323L471.704 131.289C471.703 131.297 471.705 131.298 471.708 131.299C470.344 128.959 469.668 128.641 467.438 129.377C467.095 129.496 466.785 129.647 466.169 129.482C465.499 128.334 466.161 127.516 466.07 126.514C466.043 126.422 465.927 126.404 465.849 126.35C465.844 125.716 466.513 125.261 465.869 124.468C464.654 124.031 464.995 125.165 464.276 125.075C464.85 124.509 465.409 123.913 464.549 122.787C464.503 122.656 464.361 122.438 464.43 122.402C466.507 121.239 464.167 118.58 465.064 117.03C464.192 115.704 464.922 114.927 465.27 113.978C465.659 112.932 466.27 111.816 465.666 110.537C464.55 108.172 465.486 106.773 466.93 105.508C469.437 106.489 469.437 106.489 469.742 108.508C470.194 109.269 469.615 109.707 469.66 110.329C469.695 110.853 469.885 111.312 470.79 111.144C471.185 109.828 471.27 108.422 470.863 106.874C471.065 106.164 471.368 105.488 470.773 104.563C470.518 104.64 470.463 104.924 470.284 105.085C470.489 104.96 470.941 105.106 470.773 104.563C470.832 104.211 470.911 103.86 470.956 103.501C471.287 100.791 472.076 98.2294 471.703 95.2884C471.364 94.9651 471.542 94.6717 471.324 94.3539L471.326 94.3545L471.324 94.346L471.323 94.3533C471.241 93.4093 470.59 93.0491 469.669 93.3805C468.968 93.6341 468.501 94.112 468.174 94.6592C467.995 94.7731 467.762 94.814 467.446 94.7277C467.139 94.6231 466.835 94.5275 466.528 94.4225C466.072 94.088 465.813 93.6954 465.51 93.3125L465.488 93.278C464.015 91.1877 462.776 90.7705 461.382 91.9667C460.286 92.9047 459.388 93.9721 458.959 95.3021C458.8 95.107 458.493 94.8619 458.512 94.723C458.702 93.0961 457.33 91.3204 456.224 89.7464C455.156 88.2142 455.209 87.0492 455.078 85.7773C455.015 85.2247 455.723 84.889 455.252 84.1735C455.884 82.9592 455.872 81.4891 456.187 80.1574C456.512 78.8075 456.299 77.3082 455.376 75.6921C455.228 74.2015 453.75 73.1604 452.02 72.3602C449.301 71.1033 447.014 71.0171 445.291 72.0899C443.425 71.386 443.501 70.3879 443.776 69.6516C444.326 68.1868 443.343 66.5563 442.574 64.9383C442.12 63.99 440.829 63.1424 440.561 62.1456C440.91 61.5623 440.703 60.892 440.133 60.1042C439.5 60.3835 439.548 60.8819 439.626 61.3957L439.627 61.3962C439.046 61.6074 438.509 61.8873 437.641 61.7001C435.432 61.0296 433.277 60.2926 432.052 58.379C432.827 57.1109 430.901 55.9963 429.946 54.824C430.013 54.421 429.831 53.9804 429.563 53.5288C429.874 52.7636 428.544 52.1536 428.2 51.4461C427.597 50.9925 427.355 51.2857 427.034 51.4232C425.209 52.0558 422.624 51.4881 420.686 51.9639C420.122 52.0977 419.29 51.7569 418.586 51.3859C417.905 51.0343 417.23 50.6696 416.554 50.3123C416.529 50.1287 416.44 49.9526 416.173 49.8129C416.299 49.3065 416.3 48.7697 415.789 48.159C415.67 47.9602 415.444 47.7786 415.376 47.5737L415.384 47.5773C415.114 46.6501 414.001 46.0613 413.101 45.4767C411.697 44.573 410.177 43.5572 408.802 44.3889C408.408 44.6305 407.784 44.0889 407.269 43.9823C405.692 42.5336 403.706 42.1372 401.81 41.5124C401.698 41.0831 401.347 40.6058 400.832 40.4296C399.47 39.9751 399.266 39.4149 399.447 38.6707Z" fill="white"/>
</svg>
