<svg width="27" height="42" viewBox="0 0 27 42" fill="none" xmlns="http://www.w3.org/2000/svg">
<path d="M9.35899 7.76392H17.2707V2.28609H9.35899V7.76392ZM18.2356 9.64617H8.41826C7.8876 9.64617 7.47754 9.23594 7.47754 8.70505V1.34496C7.47754 0.838205 7.8876 0.403839 8.41826 0.403839H18.2356C18.7421 0.403839 19.1763 0.838205 19.1763 1.34496V8.70505C19.1763 9.23594 18.7421 9.64617 18.2356 9.64617Z" fill="#4DA627"/>
<path d="M4.92046 7.76392H21.7088C22.2394 7.76392 22.6495 8.17415 22.6495 8.70504C22.6495 10.3701 21.9741 11.8904 20.8887 12.9763C19.7791 14.0863 18.2836 14.762 16.6192 14.762H10.0341C8.36978 14.762 6.85015 14.0863 5.7647 12.9763C4.65513 11.8904 3.97974 10.3701 3.97974 8.70504C3.97974 8.17415 4.41392 7.76392 4.92046 7.76392Z" fill="#4DA627"/>
<path d="M6.39214 0.403839C5.8856 0.403839 5.45142 0.838205 5.45142 1.34496C5.45142 1.87586 5.8856 2.28609 6.39214 2.28609H20.2377C20.7683 2.28609 21.2025 1.87586 21.2025 1.34496C21.2025 0.838205 20.7683 0.403839 20.2377 0.403839H6.39214Z" fill="#4DA627"/>
<path d="M8.6836 38.0971V39.0623C8.6836 40.4378 7.54991 41.5961 6.15088 41.5961C4.75186 41.5961 3.61816 40.4378 3.61816 39.0623V38.0971H3.8835H8.6836Z" fill="#4DA627"/>
<path d="M23.0365 38.0971V39.0623C23.0365 40.4378 21.8787 41.5961 20.5038 41.5961C19.1048 41.5961 17.9711 40.4378 17.9711 39.0623V38.0971H22.7712H23.0365Z" fill="#4DA627"/>
<path fill-rule="evenodd" clip-rule="evenodd" d="M4.34193 28.2032V22.653C4.34193 22.1221 4.77611 21.7119 5.30677 21.7119H21.3473C21.878 21.7119 22.2881 22.1221 22.2881 22.653V28.2032C22.2881 29.265 21.8539 30.2544 21.1544 30.9542C20.4307 31.654 19.4659 32.0884 18.4046 32.0884H8.24955C7.18822 32.0884 6.19926 31.654 5.49974 30.9542C4.80023 30.2544 4.34193 29.265 4.34193 28.2032ZM16.6196 15.7032H10.0345C8.17719 15.7032 6.41635 14.9551 5.08968 13.652C3.78714 12.3489 3.03939 10.5632 3.03939 8.70506C3.03939 8.39135 3.11175 8.07764 3.25648 7.81219C2.43636 7.93285 1.6886 8.34309 1.13382 8.89811C0.434303 9.62205 0.00012207 10.5873 0.00012207 11.6491V33.2467C0.00012207 34.3326 0.434303 35.2979 1.13382 35.9977C1.78509 36.6492 2.65345 37.0836 3.61829 37.1319C3.71478 37.156 3.78714 37.156 3.88363 37.156H5.49974H6.77816H8.68373H17.9704H19.8518H21.1302H22.7705C22.8428 37.156 22.9393 37.156 23.0358 37.1319C24.0007 37.0836 24.869 36.6492 25.5203 35.9977C26.2198 35.2979 26.654 34.3326 26.654 33.2467V11.6491C26.654 10.5873 26.2198 9.62205 25.5203 8.89811C24.9414 8.34309 24.2177 7.93285 23.3735 7.81219C23.5182 8.07764 23.6147 8.39135 23.6147 8.70506C23.6147 10.5632 22.867 12.3489 21.5644 13.652C20.2378 14.9551 18.4769 15.7032 16.6196 15.7032Z" fill="#4DA627"/>
</svg>
