<svg width="122" height="42" viewBox="0 0 122 42" fill="none" xmlns="http://www.w3.org/2000/svg">
<path d="M9.58152 7.50439H17.6816V1.91916H9.58152V7.50439ZM18.6694 9.42355H8.6184C8.0751 9.42355 7.65527 9.00527 7.65527 8.46397V0.959578C7.65527 0.442882 8.0751 0 8.6184 0H18.6694C19.188 0 19.6326 0.442882 19.6326 0.959578V8.46397C19.6326 9.00527 19.188 9.42355 18.6694 9.42355Z" fill="#4DA627"/>
<path d="M5.03783 7.50439H22.2259C22.7692 7.50439 23.189 7.92266 23.189 8.46397C23.189 10.1617 22.4975 11.7118 21.3862 12.819C20.2502 13.9508 18.7191 14.6397 17.0151 14.6397H10.2733C8.56928 14.6397 7.01346 13.9508 5.90217 12.819C4.76618 11.7118 4.07471 10.1617 4.07471 8.46397C4.07471 7.92266 4.51922 7.50439 5.03783 7.50439Z" fill="#4DA627"/>
<path d="M6.54418 0C6.02557 0 5.58105 0.442882 5.58105 0.959578C5.58105 1.50088 6.02557 1.91916 6.54418 1.91916H20.7194C21.2627 1.91916 21.7072 1.50088 21.7072 0.959578C21.7072 0.442882 21.2627 0 20.7194 0H6.54418Z" fill="#4DA627"/>
<path d="M8.89014 38.4323V39.4165C8.89014 40.819 7.72946 42 6.29712 42C4.86479 42 3.7041 40.819 3.7041 39.4165V38.4323H3.97575H8.89014Z" fill="#4DA627"/>
<path d="M23.585 38.4323V39.4165C23.585 40.819 22.3996 42 20.9919 42C19.5596 42 18.3989 40.819 18.3989 39.4165V38.4323H23.3133H23.585Z" fill="#4DA627"/>
<path fill-rule="evenodd" clip-rule="evenodd" d="M4.44518 28.3445V22.6854C4.44518 22.1441 4.8897 21.7258 5.433 21.7258H21.8555C22.3988 21.7258 22.8186 22.1441 22.8186 22.6854V28.3445C22.8186 29.4271 22.3741 30.4359 21.6579 31.1494C20.917 31.8629 19.9292 32.3058 18.8426 32.3058H8.44584C7.35924 32.3058 6.34673 31.8629 5.63056 31.1494C4.91439 30.4359 4.44518 29.4271 4.44518 28.3445ZM17.0152 15.5993H10.2733C8.37175 15.5993 6.56899 14.8366 5.21074 13.5079C3.87718 12.1793 3.11163 10.3585 3.11163 8.46398C3.11163 8.14412 3.18571 7.82426 3.33388 7.55361C2.49424 7.67663 1.72868 8.09491 1.16069 8.66082C0.444518 9.39895 0 10.3831 0 11.4657V33.4868C0 34.594 0.444518 35.5782 1.16069 36.2917C1.82746 36.9561 2.7165 37.3989 3.70432 37.4482C3.8031 37.4728 3.87718 37.4728 3.97597 37.4728H5.63056H6.93942H8.89036H18.3981H20.3243H21.6332H23.3125C23.3866 37.4728 23.4854 37.4728 23.5841 37.4482C24.572 37.3989 25.461 36.9561 26.1278 36.2917C26.8439 35.5782 27.2885 34.594 27.2885 33.4868V11.4657C27.2885 10.3831 26.8439 9.39895 26.1278 8.66082C25.5351 8.09491 24.7942 7.67663 23.9299 7.55361C24.0781 7.82426 24.1768 8.14412 24.1768 8.46398C24.1768 10.3585 23.4113 12.1793 22.0777 13.5079C20.7195 14.8366 18.9167 15.5993 17.0152 15.5993Z" fill="#4DA627"/>
<path d="M105.878 14.431H107.057V15.6094H105.878V14.431ZM107.057 14.431H108.235V15.6094H107.057V14.431ZM108.235 14.431H109.414V15.6094H108.235V14.431ZM109.414 14.431H110.592V15.6094H109.414V14.431ZM109.414 15.6094H110.592V16.7879H109.414V15.6094ZM109.414 16.7879H110.592V17.9663H109.414V16.7879ZM109.414 17.9663H110.592V19.1448H109.414V17.9663ZM109.414 19.1448H110.592V20.3232H109.414V19.1448ZM109.414 20.3232H110.592V21.5017H109.414V20.3232ZM109.414 21.5017H110.592V22.6801H109.414V21.5017ZM109.414 22.6801H110.592V23.8586H109.414V22.6801ZM109.414 23.8586H110.592V25.037H109.414V23.8586ZM109.414 25.037H110.592V26.2155H109.414V25.037ZM108.235 25.037H109.414V26.2155H108.235V25.037ZM107.057 25.037H108.235V26.2155H107.057V25.037ZM105.878 25.037H107.057V26.2155H105.878V25.037ZM105.878 23.8586H107.057V25.037H105.878V23.8586ZM105.878 22.6801H107.057V23.8586H105.878V22.6801ZM105.878 21.5017H107.057V22.6801H105.878V21.5017ZM105.878 20.3232H107.057V21.5017H105.878V20.3232ZM105.878 19.1448H107.057V20.3232H105.878V19.1448ZM105.878 17.9663H107.057V19.1448H105.878V17.9663ZM105.878 16.7879H107.057V17.9663H105.878V16.7879ZM105.878 15.6094H107.057V16.7879H105.878V15.6094ZM107.057 15.6094H108.235V16.7879H107.057V15.6094ZM108.235 15.6094H109.414V16.7879H108.235V15.6094ZM108.235 16.7879H109.414V17.9663H108.235V16.7879ZM108.235 17.9663H109.414V19.1448H108.235V17.9663ZM108.235 19.1448H109.414V20.3232H108.235V19.1448ZM108.235 20.3232H109.414V21.5017H108.235V20.3232ZM108.235 21.5017H109.414V22.6801H108.235V21.5017ZM107.057 22.6801H108.235V23.8586H107.057V22.6801ZM107.057 23.8586H108.235V25.037H107.057V23.8586ZM107.057 21.5017H108.235V22.6801H107.057V21.5017ZM107.057 20.3232H108.235V21.5017H107.057V20.3232ZM107.057 19.1448H108.235V20.3232H107.057V19.1448ZM107.057 17.9663H108.235V19.1448H107.057V17.9663ZM107.057 16.7879H108.235V17.9663H107.057V16.7879ZM108.235 22.6801H109.414V23.8586H108.235V22.6801ZM108.235 23.8586H109.414V25.037H108.235V23.8586ZM116.484 14.431H117.663V15.6094H116.484V14.431ZM117.663 14.431H118.841V15.6094H117.663V14.431ZM118.841 14.431H120.02V15.6094H118.841V14.431ZM120.02 14.431H121.198V15.6094H120.02V14.431ZM120.02 15.6094H121.198V16.7879H120.02V15.6094ZM120.02 16.7879H121.198V17.9663H120.02V16.7879ZM120.02 17.9663H121.198V19.1448H120.02V17.9663ZM120.02 19.1448H121.198V20.3232H120.02V19.1448ZM120.02 20.3232H121.198V21.5017H120.02V20.3232ZM120.02 21.5017H121.198V22.6801H120.02V21.5017ZM120.02 22.6801H121.198V23.8586H120.02V22.6801ZM120.02 23.8586H121.198V25.037H120.02V23.8586ZM120.02 25.037H121.198V26.2155H120.02V25.037ZM118.841 23.8586H120.02V25.037H118.841V23.8586ZM117.663 23.8586H118.841V25.037H117.663V23.8586ZM117.663 25.037H118.841V26.2155H117.663V25.037ZM116.484 23.8586H117.663V25.037H116.484V23.8586ZM116.484 22.6801H117.663V23.8586H116.484V22.6801ZM116.484 21.5017H117.663V22.6801H116.484V21.5017ZM116.484 20.3232H117.663V21.5017H116.484V20.3232ZM116.484 19.1448H117.663V20.3232H116.484V19.1448ZM116.484 17.9663H117.663V19.1448H116.484V17.9663ZM116.484 16.7879H117.663V17.9663H116.484V16.7879ZM116.484 15.6094H117.663V16.7879H116.484V15.6094ZM117.663 15.6094H118.841V16.7879H117.663V15.6094ZM118.841 15.6094H120.02V16.7879H118.841V15.6094ZM118.841 16.7879H120.02V17.9663H118.841V16.7879ZM118.841 17.9663H120.02V19.1448H118.841V17.9663ZM118.841 19.1448H120.02V20.3232H118.841V19.1448ZM118.841 20.3232H120.02V21.5017H118.841V20.3232ZM118.841 21.5017H120.02V22.6801H118.841V21.5017ZM118.841 22.6801H120.02V23.8586H118.841V22.6801ZM117.663 22.6801H118.841V23.8586H117.663V22.6801ZM117.663 21.5017H118.841V22.6801H117.663V21.5017ZM117.663 20.3232H118.841V21.5017H117.663V20.3232ZM117.663 19.1448H118.841V20.3232H117.663V19.1448ZM117.663 17.9663H118.841V19.1448H117.663V17.9663ZM117.663 16.7879H118.841V17.9663H117.663V16.7879ZM115.306 25.037H116.484V26.2155H115.306V25.037ZM116.484 25.037H117.663V26.2155H116.484V25.037ZM117.663 26.2155H118.841V27.3939H117.663V26.2155ZM118.841 26.2155H120.02V27.3939H118.841V26.2155ZM118.841 25.037H120.02V26.2155H118.841V25.037ZM116.484 26.2155H117.663V27.3939H116.484V26.2155ZM116.484 27.3939H117.663V28.5724H116.484V27.3939ZM117.663 27.3939H118.841V28.5724H117.663V27.3939ZM116.484 28.5724H117.663V29.7508H116.484V28.5724ZM115.306 28.5724H116.484V29.7508H115.306V28.5724ZM115.306 29.7508H116.484V30.9293H115.306V29.7508ZM114.128 29.7508H115.306V30.9293H114.128V29.7508ZM114.128 30.9293H115.306V32.1077H114.128V30.9293ZM112.949 30.9293H114.128V32.1077H112.949V30.9293ZM112.949 32.1077H114.128V33.2862H112.949V32.1077ZM111.771 32.1077H112.949V33.2862H111.771V32.1077ZM111.771 33.2862H112.949V34.4646H111.771V33.2862ZM110.592 33.2862H111.771V34.4646H110.592V33.2862ZM110.592 34.4646H111.771V35.6431H110.592V34.4646ZM109.414 34.4646H110.592V35.6431H109.414V34.4646ZM109.414 35.6431H110.592V36.8215H109.414V35.6431ZM108.235 35.6431H109.414V36.8215H108.235V35.6431ZM108.235 36.8215H109.414V38H108.235V36.8215ZM107.057 36.8215H108.235V38H107.057V36.8215ZM105.878 36.8215H107.057V38H105.878V36.8215ZM105.878 35.6431H107.057V36.8215H105.878V35.6431ZM105.878 34.4646H107.057V35.6431H105.878V34.4646ZM107.057 34.4646H108.235V35.6431H107.057V34.4646ZM107.057 35.6431H108.235V36.8215H107.057V35.6431ZM108.235 34.4646H109.414V35.6431H108.235V34.4646ZM107.057 33.2862H108.235V34.4646H107.057V33.2862ZM108.235 33.2862H109.414V34.4646H108.235V33.2862ZM108.235 32.1077H109.414V33.2862H108.235V32.1077ZM109.414 32.1077H110.592V33.2862H109.414V32.1077ZM110.592 32.1077H111.771V33.2862H110.592V32.1077ZM110.592 30.9293H111.771V32.1077H110.592V30.9293ZM109.414 30.9293H110.592V32.1077H109.414V30.9293ZM109.414 33.2862H110.592V34.4646H109.414V33.2862ZM111.771 29.7508H112.949V30.9293H111.771V29.7508ZM110.592 29.7508H111.771V30.9293H110.592V29.7508ZM111.771 30.9293H112.949V32.1077H111.771V30.9293ZM112.949 29.7508H114.128V30.9293H112.949V29.7508ZM112.949 28.5724H114.128V29.7508H112.949V28.5724ZM114.128 28.5724H115.306V29.7508H114.128V28.5724ZM114.128 27.3939H115.306V28.5724H114.128V27.3939ZM115.306 27.3939H116.484V28.5724H115.306V27.3939ZM115.306 26.2155H116.484V27.3939H115.306V26.2155ZM114.128 26.2155H115.306V27.3939H114.128V26.2155ZM112.949 27.3939H114.128V28.5724H112.949V27.3939ZM111.771 27.3939H112.949V28.5724H111.771V27.3939ZM111.771 26.2155H112.949V27.3939H111.771V26.2155ZM110.592 27.3939H111.771V28.5724H110.592V27.3939ZM110.592 26.2155H111.771V27.3939H110.592V26.2155ZM110.592 25.037H111.771V26.2155H110.592V25.037ZM109.414 26.2155H110.592V27.3939H109.414V26.2155ZM108.235 26.2155H109.414V27.3939H108.235V26.2155ZM107.057 26.2155H108.235V27.3939H107.057V26.2155ZM109.414 27.3939H110.592V28.5724H109.414V27.3939ZM108.235 27.3939H109.414V28.5724H108.235V27.3939ZM109.414 28.5724H110.592V29.7508H109.414V28.5724ZM110.592 28.5724H111.771V29.7508H110.592V28.5724ZM111.771 28.5724H112.949V29.7508H111.771V28.5724Z" fill="white"/>
<path d="M101.176 8.5387H102.355V9.71715H101.176V8.5387ZM102.355 8.5387H103.533V9.71715H102.355V8.5387ZM102.355 9.71715H103.533V10.8956H102.355V9.71715ZM101.176 9.71715H102.355V10.8956H101.176V9.71715ZM101.176 10.8956H102.355V12.0741H101.176V10.8956ZM102.355 10.8956H103.533V12.0741H102.355V10.8956ZM99.998 9.71715H101.176V10.8956H99.998V9.71715ZM99.998 8.5387H101.176V9.71715H99.998V8.5387ZM98.8195 8.5387H99.998V9.71715H98.8195V8.5387ZM98.8195 9.71715H99.998V10.8956H98.8195V9.71715ZM97.6411 9.71715H98.8195V10.8956H97.6411V9.71715ZM96.4626 9.71715H97.6411V10.8956H96.4626V9.71715ZM96.4626 10.8956H97.6411V12.0741H96.4626V10.8956ZM97.6411 10.8956H98.8195V12.0741H97.6411V10.8956ZM98.8195 10.8956H99.998V12.0741H98.8195V10.8956ZM99.998 10.8956H101.176V12.0741H99.998V10.8956ZM98.8195 12.0741H99.998V13.2525H98.8195V12.0741ZM97.6411 12.0741H98.8195V13.2525H97.6411V12.0741ZM96.4626 12.0741H97.6411V13.2525H96.4626V12.0741ZM99.998 12.0741H101.176V13.2525H99.998V12.0741ZM95.2841 12.0741H96.4626V13.2525H95.2841V12.0741ZM95.2841 13.2525H96.4626V14.431H95.2841V13.2525ZM95.2841 14.431H96.4626V15.6094H95.2841V14.431ZM96.4626 14.431H97.6411V15.6094H96.4626V14.431ZM96.4626 13.2525H97.6411V14.431H96.4626V13.2525ZM97.6411 13.2525H98.8195V14.431H97.6411V13.2525ZM97.6411 14.431H98.8195V15.6094H97.6411V14.431ZM98.8195 14.431H99.998V15.6094H98.8195V14.431ZM98.8195 13.2525H99.998V14.431H98.8195V13.2525ZM98.8195 15.6094H99.998V16.7879H98.8195V15.6094ZM97.6411 15.6094H98.8195V16.7879H97.6411V15.6094ZM97.6411 16.7879H98.8195V17.9663H97.6411V16.7879ZM96.4626 16.7879H97.6411V17.9663H96.4626V16.7879ZM95.2841 16.7879H96.4626V17.9663H95.2841V16.7879ZM95.2841 15.6094H96.4626V16.7879H95.2841V15.6094ZM96.4626 15.6094H97.6411V16.7879H96.4626V15.6094ZM92.9272 16.7879H94.1057V17.9663H92.9272V16.7879ZM94.1057 16.7879H95.2841V17.9663H94.1057V16.7879ZM98.8195 16.7879H99.998V17.9663H98.8195V16.7879ZM99.998 16.7879H101.176V17.9663H99.998V16.7879ZM101.176 16.7879H102.355V17.9663H101.176V16.7879ZM102.355 16.7879H103.533V17.9663H102.355V16.7879ZM102.355 17.9663H103.533V19.1448H102.355V17.9663ZM101.176 17.9663H102.355V19.1448H101.176V17.9663ZM99.998 17.9663H101.176V19.1448H99.998V17.9663ZM94.1057 17.9663H95.2841V19.1448H94.1057V17.9663ZM92.9272 17.9663H94.1057V19.1448H92.9272V17.9663ZM95.2841 17.9663H96.4626V19.1448H95.2841V17.9663ZM96.4626 17.9663H97.6411V19.1448H96.4626V17.9663ZM97.6411 17.9663H98.8195V19.1448H97.6411V17.9663ZM98.8195 17.9663H99.998V19.1448H98.8195V17.9663ZM95.2841 20.3232H96.4626V21.5017H95.2841V20.3232ZM96.4626 20.3232H97.6411V21.5017H96.4626V20.3232ZM97.6411 20.3232H98.8195V21.5017H97.6411V20.3232ZM98.8195 20.3232H99.998V21.5017H98.8195V20.3232ZM98.8195 21.5017H99.998V22.6801H98.8195V21.5017ZM97.6411 21.5017H98.8195V22.6801H97.6411V21.5017ZM96.4626 21.5017H97.6411V22.6801H96.4626V21.5017ZM95.2841 21.5017H96.4626V22.6801H95.2841V21.5017ZM96.4626 22.6801H97.6411V23.8586H96.4626V22.6801ZM96.4626 23.8586H97.6411V25.037H96.4626V23.8586ZM97.6411 23.8586H98.8195V25.037H97.6411V23.8586ZM98.8195 23.8586H99.998V25.037H98.8195V23.8586ZM98.8195 22.6801H99.998V23.8586H98.8195V22.6801ZM97.6411 22.6801H98.8195V23.8586H97.6411V22.6801ZM95.2841 22.6801H96.4626V23.8586H95.2841V22.6801ZM95.2841 23.8586H96.4626V25.037H95.2841V23.8586ZM95.2841 25.037H96.4626V26.2155H95.2841V25.037ZM96.4626 25.037H97.6411V26.2155H96.4626V25.037ZM96.4626 26.2155H97.6411V27.3939H96.4626V26.2155ZM97.6411 26.2155H98.8195V27.3939H97.6411V26.2155ZM98.8195 26.2155H99.998V27.3939H98.8195V26.2155ZM98.8195 25.037H99.998V26.2155H98.8195V25.037ZM97.6411 25.037H98.8195V26.2155H97.6411V25.037ZM95.2841 26.2155H96.4626V27.3939H95.2841V26.2155ZM95.2841 27.3939H96.4626V28.5724H95.2841V27.3939ZM96.4626 27.3939H97.6411V28.5724H96.4626V27.3939ZM97.6411 27.3939H98.8195V28.5724H97.6411V27.3939ZM98.8195 27.3939H99.998V28.5724H98.8195V27.3939ZM98.8195 28.5724H99.998V29.7508H98.8195V28.5724ZM98.8195 29.7508H99.998V30.9293H98.8195V29.7508ZM98.8195 30.9293H99.998V32.1077H98.8195V30.9293ZM97.6411 30.9293H98.8195V32.1077H97.6411V30.9293ZM96.4626 30.9293H97.6411V32.1077H96.4626V30.9293ZM95.2841 30.9293H96.4626V32.1077H95.2841V30.9293ZM95.2841 29.7508H96.4626V30.9293H95.2841V29.7508ZM95.2841 28.5724H96.4626V29.7508H95.2841V28.5724ZM96.4626 28.5724H97.6411V29.7508H96.4626V28.5724ZM97.6411 28.5724H98.8195V29.7508H97.6411V28.5724ZM97.6411 29.7508H98.8195V30.9293H97.6411V29.7508ZM96.4626 29.7508H97.6411V30.9293H96.4626V29.7508ZM92.9272 15.6094H94.1057V16.7879H92.9272V15.6094ZM94.1057 15.6094H95.2841V16.7879H94.1057V15.6094ZM99.998 15.6094H101.176V16.7879H99.998V15.6094ZM101.176 15.6094H102.355V16.7879H101.176V15.6094ZM102.355 15.6094H103.533V16.7879H102.355V15.6094ZM95.2841 19.1448H96.4626V20.3232H95.2841V19.1448ZM96.4626 19.1448H97.6411V20.3232H96.4626V19.1448ZM97.6411 19.1448H98.8195V20.3232H97.6411V19.1448ZM98.8195 19.1448H99.998V20.3232H98.8195V19.1448Z" fill="white"/>
<path d="M74.0674 14.431H75.2458V15.6094H74.0674V14.431ZM75.2458 14.431H76.4243V15.6094H75.2458V14.431ZM76.4243 14.431H77.6027V15.6094H76.4243V14.431ZM74.0674 16.7879H75.2458V17.9663H74.0674V16.7879ZM74.0674 15.6094H75.2458V16.7879H74.0674V15.6094ZM76.4243 30.9293H77.6027V32.1077H76.4243V30.9293ZM75.2458 30.9293H76.4243V32.1077H75.2458V30.9293ZM74.0674 29.7508H75.2458V30.9293H74.0674V29.7508ZM74.0674 28.5724H75.2458V29.7508H74.0674V28.5724ZM74.0674 30.9293H75.2458V32.1077H74.0674V30.9293ZM79.9596 14.431H81.1381V15.6094H79.9596V14.431ZM77.6027 14.431H78.7812V15.6094H77.6027V14.431ZM81.1381 14.431H82.3165V15.6094H81.1381V14.431ZM82.3165 14.431H83.495V15.6094H82.3165V14.431ZM83.495 14.431H84.6735V15.6094H83.495V14.431ZM84.6735 14.431H85.8519V15.6094H84.6735V14.431ZM85.8519 15.6094H87.0304V16.7879H85.8519V15.6094ZM84.6735 15.6094H85.8519V16.7879H84.6735V15.6094ZM84.6735 16.7879H85.8519V17.9663H84.6735V16.7879ZM87.0304 15.6094H88.2088V16.7879H87.0304V15.6094ZM87.0304 16.7879H88.2088V17.9663H87.0304V16.7879ZM85.8519 16.7879H87.0304V17.9663H85.8519V16.7879ZM84.6735 17.9663H85.8519V19.1448H84.6735V17.9663ZM83.495 17.9663H84.6735V19.1448H83.495V17.9663ZM85.8519 17.9663H87.0304V19.1448H85.8519V17.9663ZM87.0304 17.9663H88.2088V19.1448H87.0304V17.9663ZM88.2088 17.9663H89.3873V19.1448H88.2088V17.9663ZM88.2088 19.1448H89.3873V20.3232H88.2088V19.1448ZM88.2088 20.3232H89.3873V21.5017H88.2088V20.3232ZM88.2088 21.5017H89.3873V22.6801H88.2088V21.5017ZM88.2088 22.6801H89.3873V23.8586H88.2088V22.6801ZM88.2088 23.8586H89.3873V25.037H88.2088V23.8586ZM88.2088 25.037H89.3873V26.2155H88.2088V25.037ZM88.2088 26.2155H89.3873V27.3939H88.2088V26.2155ZM88.2088 27.3939H89.3873V28.5724H88.2088V27.3939ZM87.0304 27.3939H88.2088V28.5724H87.0304V27.3939ZM87.0304 28.5724H88.2088V29.7508H87.0304V28.5724ZM87.0304 29.7508H88.2088V30.9293H87.0304V29.7508ZM85.8519 29.7508H87.0304V30.9293H85.8519V29.7508ZM84.6735 29.7508H85.8519V30.9293H84.6735V29.7508ZM83.495 28.5724H84.6735V29.7508H83.495V28.5724ZM83.495 27.3939H84.6735V28.5724H83.495V27.3939ZM84.6735 27.3939H85.8519V28.5724H84.6735V27.3939ZM84.6735 28.5724H85.8519V29.7508H84.6735V28.5724ZM85.8519 28.5724H87.0304V29.7508H85.8519V28.5724ZM85.8519 27.3939H87.0304V28.5724H85.8519V27.3939ZM85.8519 26.2155H87.0304V27.3939H85.8519V26.2155ZM84.6735 26.2155H85.8519V27.3939H84.6735V26.2155ZM84.6735 25.037H85.8519V26.2155H84.6735V25.037ZM84.6735 23.8586H85.8519V25.037H84.6735V23.8586ZM84.6735 22.6801H85.8519V23.8586H84.6735V22.6801ZM84.6735 21.5017H85.8519V22.6801H84.6735V21.5017ZM84.6735 20.3232H85.8519V21.5017H84.6735V20.3232ZM84.6735 19.1448H85.8519V20.3232H84.6735V19.1448ZM85.8519 19.1448H87.0304V20.3232H85.8519V19.1448ZM85.8519 20.3232H87.0304V21.5017H85.8519V20.3232ZM85.8519 21.5017H87.0304V22.6801H85.8519V21.5017ZM85.8519 22.6801H87.0304V23.8586H85.8519V22.6801ZM85.8519 23.8586H87.0304V25.037H85.8519V23.8586ZM85.8519 25.037H87.0304V26.2155H85.8519V25.037ZM87.0304 26.2155H88.2088V27.3939H87.0304V26.2155ZM87.0304 25.037H88.2088V26.2155H87.0304V25.037ZM87.0304 23.8586H88.2088V25.037H87.0304V23.8586ZM87.0304 22.6801H88.2088V23.8586H87.0304V22.6801ZM87.0304 21.5017H88.2088V22.6801H87.0304V21.5017ZM87.0304 20.3232H88.2088V21.5017H87.0304V20.3232ZM87.0304 19.1448H88.2088V20.3232H87.0304V19.1448ZM83.495 29.7508H84.6735V30.9293H83.495V29.7508ZM83.495 30.9293H84.6735V32.1077H83.495V30.9293ZM84.6735 30.9293H85.8519V32.1077H84.6735V30.9293ZM82.3165 30.9293H83.495V32.1077H82.3165V30.9293ZM81.1381 30.9293H82.3165V32.1077H81.1381V30.9293ZM79.9596 30.9293H81.1381V32.1077H79.9596V30.9293ZM78.7812 30.9293H79.9596V32.1077H78.7812V30.9293ZM77.6027 30.9293H78.7812V32.1077H77.6027V30.9293ZM77.6027 29.7508H78.7812V30.9293H77.6027V29.7508ZM76.4243 29.7508H77.6027V30.9293H76.4243V29.7508ZM75.2458 29.7508H76.4243V30.9293H75.2458V29.7508ZM75.2458 20.3232H76.4243V21.5017H75.2458V20.3232ZM75.2458 19.1448H76.4243V20.3232H75.2458V19.1448ZM74.0674 17.9663H75.2458V19.1448H74.0674V17.9663ZM75.2458 16.7879H76.4243V17.9663H75.2458V16.7879ZM76.4243 15.6094H77.6027V16.7879H76.4243V15.6094ZM77.6027 15.6094H78.7812V16.7879H77.6027V15.6094ZM78.7812 15.6094H79.9596V16.7879H78.7812V15.6094ZM78.7812 16.7879H79.9596V17.9663H78.7812V16.7879ZM78.7812 17.9663H79.9596V19.1448H78.7812V17.9663ZM77.6027 17.9663H78.7812V19.1448H77.6027V17.9663ZM76.4243 17.9663H77.6027V19.1448H76.4243V17.9663ZM77.6027 19.1448H78.7812V20.3232H77.6027V19.1448ZM77.6027 20.3232H78.7812V21.5017H77.6027V20.3232ZM77.6027 21.5017H78.7812V22.6801H77.6027V21.5017ZM78.7812 28.5724H79.9596V29.7508H78.7812V28.5724ZM79.9596 28.5724H81.1381V29.7508H79.9596V28.5724ZM81.1381 28.5724H82.3165V29.7508H81.1381V28.5724ZM82.3165 28.5724H83.495V29.7508H82.3165V28.5724ZM82.3165 29.7508H83.495V30.9293H82.3165V29.7508ZM81.1381 29.7508H82.3165V30.9293H81.1381V29.7508ZM79.9596 29.7508H81.1381V30.9293H79.9596V29.7508ZM78.7812 29.7508H79.9596V30.9293H78.7812V29.7508ZM77.6027 28.5724H78.7812V29.7508H77.6027V28.5724ZM76.4243 28.5724H77.6027V29.7508H76.4243V28.5724ZM76.4243 20.3232H77.6027V21.5017H76.4243V20.3232ZM76.4243 19.1448H77.6027V20.3232H76.4243V19.1448ZM76.4243 16.7879H77.6027V17.9663H76.4243V16.7879ZM77.6027 16.7879H78.7812V17.9663H77.6027V16.7879ZM79.9596 15.6094H81.1381V16.7879H79.9596V15.6094ZM81.1381 15.6094H82.3165V16.7879H81.1381V15.6094ZM82.3165 15.6094H83.495V16.7879H82.3165V15.6094ZM83.495 15.6094H84.6735V16.7879H83.495V15.6094ZM83.495 16.7879H84.6735V17.9663H83.495V16.7879ZM82.3165 16.7879H83.495V17.9663H82.3165V16.7879ZM81.1381 16.7879H82.3165V17.9663H81.1381V16.7879ZM79.9596 16.7879H81.1381V17.9663H79.9596V16.7879ZM75.2458 15.6094H76.4243V16.7879H75.2458V15.6094ZM75.2458 28.5724H76.4243V29.7508H75.2458V28.5724ZM75.2458 17.9663H76.4243V19.1448H75.2458V17.9663ZM74.0674 19.1448H75.2458V20.3232H74.0674V19.1448ZM74.0674 20.3232H75.2458V21.5017H74.0674V20.3232ZM74.0674 27.3939H75.2458V28.5724H74.0674V27.3939ZM75.2458 27.3939H76.4243V28.5724H75.2458V27.3939ZM76.4243 27.3939H77.6027V28.5724H76.4243V27.3939ZM77.6027 27.3939H78.7812V28.5724H77.6027V27.3939ZM76.4243 21.5017H77.6027V22.6801H76.4243V21.5017ZM75.2458 21.5017H76.4243V22.6801H75.2458V21.5017ZM74.0674 21.5017H75.2458V22.6801H74.0674V21.5017ZM74.0674 22.6801H75.2458V23.8586H74.0674V22.6801ZM74.0674 23.8586H75.2458V25.037H74.0674V23.8586ZM74.0674 25.037H75.2458V26.2155H74.0674V25.037ZM75.2458 25.037H76.4243V26.2155H75.2458V25.037ZM75.2458 26.2155H76.4243V27.3939H75.2458V26.2155ZM76.4243 26.2155H77.6027V27.3939H76.4243V26.2155ZM74.0674 26.2155H75.2458V27.3939H74.0674V26.2155ZM77.6027 26.2155H78.7812V27.3939H77.6027V26.2155ZM77.6027 25.037H78.7812V26.2155H77.6027V25.037ZM77.6027 23.8586H78.7812V25.037H77.6027V23.8586ZM77.6027 22.6801H78.7812V23.8586H77.6027V22.6801ZM76.4243 22.6801H77.6027V23.8586H76.4243V22.6801ZM75.2458 22.6801H76.4243V23.8586H75.2458V22.6801ZM75.2458 23.8586H76.4243V25.037H75.2458V23.8586ZM76.4243 25.037H77.6027V26.2155H76.4243V25.037ZM76.4243 23.8586H77.6027V25.037H76.4243V23.8586ZM74.0674 32.1077H75.2458V33.2862H74.0674V32.1077ZM75.2458 32.1077H76.4243V33.2862H75.2458V32.1077ZM76.4243 32.1077H77.6027V33.2862H76.4243V32.1077ZM77.6027 32.1077H78.7812V33.2862H77.6027V32.1077ZM77.6027 33.2862H78.7812V34.4646H77.6027V33.2862ZM77.6027 34.4646H78.7812V35.6431H77.6027V34.4646ZM76.4243 34.4646H77.6027V35.6431H76.4243V34.4646ZM75.2458 34.4646H76.4243V35.6431H75.2458V34.4646ZM75.2458 33.2862H76.4243V34.4646H75.2458V33.2862ZM74.0674 33.2862H75.2458V34.4646H74.0674V33.2862ZM76.4243 33.2862H77.6027V34.4646H76.4243V33.2862ZM74.0674 34.4646H75.2458V35.6431H74.0674V34.4646ZM74.0674 35.6431H75.2458V36.8215H74.0674V35.6431ZM75.2458 35.6431H76.4243V36.8215H75.2458V35.6431ZM76.4243 35.6431H77.6027V36.8215H76.4243V35.6431ZM77.6027 35.6431H78.7812V36.8215H77.6027V35.6431ZM77.6027 36.8215H78.7812V38H77.6027V36.8215ZM76.4243 36.8215H77.6027V38H76.4243V36.8215ZM75.2458 36.8215H76.4243V38H75.2458V36.8215ZM74.0674 36.8215H75.2458V38H74.0674V36.8215Z" fill="white"/>
<path d="M66.99 15.6094H68.1684V16.7879H66.99V15.6094ZM66.99 16.7879H68.1684V17.9663H66.99V16.7879ZM66.99 17.9663H68.1684V19.1448H66.99V17.9663ZM66.99 19.1448H68.1684V20.3232H66.99V19.1448ZM66.99 20.3232H68.1684V21.5017H66.99V20.3232ZM65.8115 20.3232H66.99V21.5017H65.8115V20.3232ZM65.8115 19.1448H66.99V20.3232H65.8115V19.1448ZM65.8115 17.9663H66.99V19.1448H65.8115V17.9663ZM65.8115 16.7879H66.99V17.9663H65.8115V16.7879ZM65.8115 15.6094H66.99V16.7879H65.8115V15.6094ZM65.8115 27.3939H66.99V28.5724H65.8115V27.3939ZM65.8115 26.2155H66.99V27.3939H65.8115V26.2155ZM65.8115 25.037H66.99V26.2155H65.8115V25.037ZM65.8115 23.8586H66.99V25.037H65.8115V23.8586ZM66.99 22.6801H68.1684V23.8586H66.99V22.6801ZM66.99 21.5017H68.1684V22.6801H66.99V21.5017ZM65.8115 21.5017H66.99V22.6801H65.8115V21.5017ZM65.8115 22.6801H66.99V23.8586H65.8115V22.6801ZM65.8115 28.5724H66.99V29.7508H65.8115V28.5724ZM65.8115 29.7508H66.99V30.9293H65.8115V29.7508ZM65.8115 30.9293H66.99V32.1077H65.8115V30.9293ZM69.3469 15.6094H70.5253V16.7879H69.3469V15.6094ZM69.3469 16.7879H70.5253V17.9663H69.3469V16.7879ZM69.3469 17.9663H70.5253V19.1448H69.3469V17.9663ZM69.3469 19.1448H70.5253V20.3232H69.3469V19.1448ZM69.3469 20.3232H70.5253V21.5017H69.3469V20.3232ZM69.3469 21.5017H70.5253V22.6801H69.3469V21.5017ZM69.3469 22.6801H70.5253V23.8586H69.3469V22.6801ZM69.3469 23.8586H70.5253V25.037H69.3469V23.8586ZM69.3469 25.037H70.5253V26.2155H69.3469V25.037ZM69.3469 26.2155H70.5253V27.3939H69.3469V26.2155ZM69.3469 27.3939H70.5253V28.5724H69.3469V27.3939ZM69.3469 28.5724H70.5253V29.7508H69.3469V28.5724ZM69.3469 29.7508H70.5253V30.9293H69.3469V29.7508ZM69.3469 30.9293H70.5253V32.1077H69.3469V30.9293ZM68.1684 30.9293H69.3469V32.1077H68.1684V30.9293ZM66.99 30.9293H68.1684V32.1077H66.99V30.9293ZM66.99 29.7508H68.1684V30.9293H66.99V29.7508ZM68.1684 29.7508H69.3469V30.9293H68.1684V29.7508ZM68.1684 28.5724H69.3469V29.7508H68.1684V28.5724ZM66.99 27.3939H68.1684V28.5724H66.99V27.3939ZM66.99 26.2155H68.1684V27.3939H66.99V26.2155ZM66.99 25.037H68.1684V26.2155H66.99V25.037ZM68.1684 25.037H69.3469V26.2155H68.1684V25.037ZM68.1684 26.2155H69.3469V27.3939H68.1684V26.2155ZM68.1684 27.3939H69.3469V28.5724H68.1684V27.3939ZM66.99 28.5724H68.1684V29.7508H66.99V28.5724ZM68.1684 23.8586H69.3469V25.037H68.1684V23.8586ZM68.1684 22.6801H69.3469V23.8586H68.1684V22.6801ZM68.1684 21.5017H69.3469V22.6801H68.1684V21.5017ZM66.99 23.8586H68.1684V25.037H66.99V23.8586ZM68.1684 20.3232H69.3469V21.5017H68.1684V20.3232ZM68.1684 19.1448H69.3469V20.3232H68.1684V19.1448ZM68.1684 17.9663H69.3469V19.1448H68.1684V17.9663ZM68.1684 16.7879H69.3469V17.9663H68.1684V16.7879ZM68.1684 15.6094H69.3469V16.7879H68.1684V15.6094ZM69.3469 8.53871H70.5253V9.71716H69.3469V8.53871ZM68.1684 9.71716H69.3469V10.8956H68.1684V9.71716ZM68.1684 7.36025H69.3469V8.53871H68.1684V7.36025ZM66.99 8.53871H68.1684V9.71716H66.99V8.53871ZM68.1684 8.53871H69.3469V9.71716H68.1684V8.53871ZM66.99 7.36025H68.1684V8.53871H66.99V7.36025ZM66.99 9.71716H68.1684V10.8956H66.99V9.71716ZM69.3469 9.71716H70.5253V10.8956H69.3469V9.71716ZM65.8115 8.53871H66.99V9.71716H65.8115V8.53871ZM65.8115 9.71716H66.99V10.8956H65.8115V9.71716ZM66.99 10.8956H68.1684V12.0741H66.99V10.8956ZM68.1684 10.8956H69.3469V12.0741H68.1684V10.8956ZM65.8115 7.36025H66.99V8.53871H65.8115V7.36025ZM69.3469 7.36025H70.5253V8.53871H69.3469V7.36025ZM69.3469 10.8956H70.5253V12.0741H69.3469V10.8956ZM65.8115 10.8956H66.99V12.0741H65.8115V10.8956Z" fill="white"/>
<path d="M70.5253 8.53871V9.71716V10.8956V12.0741H69.3469H68.1684H66.99H65.8115V10.8956V9.71716V8.53871V7.36025H66.99H68.1684H69.3469H70.5253V8.53871Z" fill="#F38035"/>
<path d="M51.686 14.431H52.8645V15.6094H51.686V14.431ZM52.8645 14.431H54.0429V15.6094H52.8645V14.431ZM54.0429 14.431H55.2214V15.6094H54.0429V14.431ZM51.686 16.7879H52.8645V17.9663H51.686V16.7879ZM51.686 15.6094H52.8645V16.7879H51.686V15.6094ZM54.0429 30.9293H55.2214V32.1077H54.0429V30.9293ZM52.8645 30.9293H54.0429V32.1077H52.8645V30.9293ZM51.686 29.7508H52.8645V30.9293H51.686V29.7508ZM51.686 28.5724H52.8645V29.7508H51.686V28.5724ZM51.686 30.9293H52.8645V32.1077H51.686V30.9293ZM57.5783 14.431H58.7567V15.6094H57.5783V14.431ZM55.2214 14.431H56.3998V15.6094H55.2214V14.431ZM58.7567 14.431H59.9352V15.6094H58.7567V14.431ZM59.9352 14.431H61.1137V15.6094H59.9352V14.431ZM61.1137 14.431H62.2921V15.6094H61.1137V14.431ZM62.2921 15.6094H63.4706V16.7879H62.2921V15.6094ZM62.2921 16.7879H63.4706V17.9663H62.2921V16.7879ZM63.4706 16.7879H64.649V17.9663H63.4706V16.7879ZM62.2921 17.9663H63.4706V19.1448H62.2921V17.9663ZM61.1137 17.9663H62.2921V19.1448H61.1137V17.9663ZM55.2214 30.9293H56.3998V32.1077H55.2214V30.9293ZM55.2214 29.7508H56.3998V30.9293H55.2214V29.7508ZM54.0429 29.7508H55.2214V30.9293H54.0429V29.7508ZM52.8645 29.7508H54.0429V30.9293H52.8645V29.7508ZM52.8645 20.3232H54.0429V21.5017H52.8645V20.3232ZM52.8645 19.1448H54.0429V20.3232H52.8645V19.1448ZM51.686 17.9663H52.8645V19.1448H51.686V17.9663ZM52.8645 16.7879H54.0429V17.9663H52.8645V16.7879ZM54.0429 15.6094H55.2214V16.7879H54.0429V15.6094ZM55.2214 15.6094H56.3998V16.7879H55.2214V15.6094ZM56.3998 15.6094H57.5783V16.7879H56.3998V15.6094ZM56.3998 16.7879H57.5783V17.9663H56.3998V16.7879ZM56.3998 17.9663H57.5783V19.1448H56.3998V17.9663ZM55.2214 17.9663H56.3998V19.1448H55.2214V17.9663ZM54.0429 17.9663H55.2214V19.1448H54.0429V17.9663ZM55.2214 19.1448H56.3998V20.3232H55.2214V19.1448ZM55.2214 20.3232H56.3998V21.5017H55.2214V20.3232ZM55.2214 21.5017H56.3998V22.6801H55.2214V21.5017ZM55.2214 28.5724H56.3998V29.7508H55.2214V28.5724ZM54.0429 28.5724H55.2214V29.7508H54.0429V28.5724ZM54.0429 20.3232H55.2214V21.5017H54.0429V20.3232ZM54.0429 19.1448H55.2214V20.3232H54.0429V19.1448ZM54.0429 16.7879H55.2214V17.9663H54.0429V16.7879ZM55.2214 16.7879H56.3998V17.9663H55.2214V16.7879ZM57.5783 15.6094H58.7567V16.7879H57.5783V15.6094ZM58.7567 15.6094H59.9352V16.7879H58.7567V15.6094ZM59.9352 15.6094H61.1137V16.7879H59.9352V15.6094ZM61.1137 15.6094H62.2921V16.7879H61.1137V15.6094ZM61.1137 16.7879H62.2921V17.9663H61.1137V16.7879ZM59.9352 16.7879H61.1137V17.9663H59.9352V16.7879ZM58.7567 16.7879H59.9352V17.9663H58.7567V16.7879ZM57.5783 16.7879H58.7567V17.9663H57.5783V16.7879ZM52.8645 15.6094H54.0429V16.7879H52.8645V15.6094ZM52.8645 28.5724H54.0429V29.7508H52.8645V28.5724ZM52.8645 17.9663H54.0429V19.1448H52.8645V17.9663ZM51.686 19.1448H52.8645V20.3232H51.686V19.1448ZM51.686 20.3232H52.8645V21.5017H51.686V20.3232ZM51.686 27.3939H52.8645V28.5724H51.686V27.3939ZM52.8645 27.3939H54.0429V28.5724H52.8645V27.3939ZM54.0429 27.3939H55.2214V28.5724H54.0429V27.3939ZM55.2214 27.3939H56.3998V28.5724H55.2214V27.3939ZM54.0429 21.5017H55.2214V22.6801H54.0429V21.5017ZM52.8645 21.5017H54.0429V22.6801H52.8645V21.5017ZM51.686 21.5017H52.8645V22.6801H51.686V21.5017ZM51.686 22.6801H52.8645V23.8586H51.686V22.6801ZM51.686 23.8586H52.8645V25.037H51.686V23.8586ZM51.686 25.037H52.8645V26.2155H51.686V25.037ZM52.8645 25.037H54.0429V26.2155H52.8645V25.037ZM52.8645 26.2155H54.0429V27.3939H52.8645V26.2155ZM54.0429 26.2155H55.2214V27.3939H54.0429V26.2155ZM51.686 26.2155H52.8645V27.3939H51.686V26.2155ZM55.2214 26.2155H56.3998V27.3939H55.2214V26.2155ZM55.2214 25.037H56.3998V26.2155H55.2214V25.037ZM55.2214 23.8586H56.3998V25.037H55.2214V23.8586ZM55.2214 22.6801H56.3998V23.8586H55.2214V22.6801ZM54.0429 22.6801H55.2214V23.8586H54.0429V22.6801ZM52.8645 22.6801H54.0429V23.8586H52.8645V22.6801ZM52.8645 23.8586H54.0429V25.037H52.8645V23.8586ZM54.0429 25.037H55.2214V26.2155H54.0429V25.037ZM54.0429 23.8586H55.2214V25.037H54.0429V23.8586ZM59.9352 17.9663H61.1137V19.1448H59.9352V17.9663ZM61.1137 19.1448H62.2921V20.3232H61.1137V19.1448Z" fill="white"/>
<path d="M38.7138 30.9293H39.8923V32.1077H38.7138V30.9293ZM39.8923 30.9293H41.0707V32.1077H39.8923V30.9293ZM41.0707 30.9293H42.2492V32.1077H41.0707V30.9293ZM42.2492 30.9293H43.4276V32.1077H42.2492V30.9293ZM42.2492 29.7508H43.4276V30.9293H42.2492V29.7508ZM41.0707 29.7508H42.2492V30.9293H41.0707V29.7508ZM39.8923 29.7508H41.0707V30.9293H39.8923V29.7508ZM38.7138 29.7508H39.8923V30.9293H38.7138V29.7508ZM38.7138 28.5724H39.8923V29.7508H38.7138V28.5724ZM38.7138 27.3939H39.8923V28.5724H38.7138V27.3939ZM38.7138 26.2155H39.8923V27.3939H38.7138V26.2155ZM38.7138 25.037H39.8923V26.2155H38.7138V25.037ZM38.7138 23.8586H39.8923V25.037H38.7138V23.8586ZM38.7138 22.6801H39.8923V23.8586H38.7138V22.6801ZM38.7138 21.5017H39.8923V22.6801H38.7138V21.5017ZM39.8923 21.5017H41.0707V22.6801H39.8923V21.5017ZM39.8923 20.3232H41.0707V21.5017H39.8923V20.3232ZM39.8923 19.1448H41.0707V20.3232H39.8923V19.1448ZM41.0707 19.1448H42.2492V20.3232H41.0707V19.1448ZM41.0707 20.3232H42.2492V21.5017H41.0707V20.3232ZM42.2492 20.3232H43.4276V21.5017H42.2492V20.3232ZM42.2492 21.5017H43.4276V22.6801H42.2492V21.5017ZM42.2492 22.6801H43.4276V23.8586H42.2492V22.6801ZM42.2492 23.8586H43.4276V25.037H42.2492V23.8586ZM42.2492 25.037H43.4276V26.2155H42.2492V25.037ZM42.2492 26.2155H43.4276V27.3939H42.2492V26.2155ZM42.2492 27.3939H43.4276V28.5724H42.2492V27.3939ZM42.2492 28.5724H43.4276V29.7508H42.2492V28.5724ZM41.0707 28.5724H42.2492V29.7508H41.0707V28.5724ZM41.0707 27.3939H42.2492V28.5724H41.0707V27.3939ZM41.0707 26.2155H42.2492V27.3939H41.0707V26.2155ZM41.0707 25.037H42.2492V26.2155H41.0707V25.037ZM41.0707 23.8586H42.2492V25.037H41.0707V23.8586ZM41.0707 22.6801H42.2492V23.8586H41.0707V22.6801ZM41.0707 21.5017H42.2492V22.6801H41.0707V21.5017ZM39.8923 22.6801H41.0707V23.8586H39.8923V22.6801ZM39.8923 23.8586H41.0707V25.037H39.8923V23.8586ZM39.8923 25.037H41.0707V26.2155H39.8923V25.037ZM39.8923 26.2155H41.0707V27.3939H39.8923V26.2155ZM39.8923 27.3939H41.0707V28.5724H39.8923V27.3939ZM39.8923 28.5724H41.0707V29.7508H39.8923V28.5724ZM38.7138 8.5387H39.8923V9.71715H38.7138V8.5387ZM38.7138 9.71715H39.8923V10.8956H38.7138V9.71715ZM38.7138 12.0741H39.8923V13.2525H38.7138V12.0741ZM38.7138 13.2525H39.8923V14.431H38.7138V13.2525ZM38.7138 14.431H39.8923V15.6094H38.7138V14.431ZM38.7138 15.6094H39.8923V16.7879H38.7138V15.6094ZM38.7138 16.7879H39.8923V17.9663H38.7138V16.7879ZM38.7138 17.9663H39.8923V19.1448H38.7138V17.9663ZM38.7138 19.1448H39.8923V20.3232H38.7138V19.1448ZM38.7138 20.3232H39.8923V21.5017H38.7138V20.3232ZM39.8923 15.6094H41.0707V16.7879H39.8923V15.6094ZM39.8923 14.431H41.0707V15.6094H39.8923V14.431ZM39.8923 13.2525H41.0707V14.431H39.8923V13.2525ZM39.8923 12.0741H41.0707V13.2525H39.8923V12.0741ZM39.8923 10.8956H41.0707V12.0741H39.8923V10.8956ZM38.7138 10.8956H39.8923V12.0741H38.7138V10.8956ZM39.8923 8.5387H41.0707V9.71715H39.8923V8.5387ZM41.0707 8.5387H42.2492V9.71715H41.0707V8.5387ZM41.0707 9.71715H42.2492V10.8956H41.0707V9.71715ZM42.2492 10.8956H43.4276V12.0741H42.2492V10.8956ZM42.2492 9.71715H43.4276V10.8956H42.2492V9.71715ZM42.2492 8.5387H43.4276V9.71715H42.2492V8.5387ZM42.2492 12.0741H43.4276V13.2525H42.2492V12.0741ZM42.2492 13.2525H43.4276V14.431H42.2492V13.2525ZM42.2492 14.431H43.4276V15.6094H42.2492V14.431ZM42.2492 15.6094H43.4276V16.7879H42.2492V15.6094ZM42.2492 16.7879H43.4276V17.9663H42.2492V16.7879ZM42.2492 17.9663H43.4276V19.1448H42.2492V17.9663ZM42.2492 19.1448H43.4276V20.3232H42.2492V19.1448ZM41.0707 17.9663H42.2492V19.1448H41.0707V17.9663ZM41.0707 16.7879H42.2492V17.9663H41.0707V16.7879ZM41.0707 15.6094H42.2492V16.7879H41.0707V15.6094ZM39.8923 16.7879H41.0707V17.9663H39.8923V16.7879ZM39.8923 17.9663H41.0707V19.1448H39.8923V17.9663ZM41.0707 14.431H42.2492V15.6094H41.0707V14.431ZM41.0707 10.8956H42.2492V12.0741H41.0707V10.8956ZM41.0707 12.0741H42.2492V13.2525H41.0707V12.0741ZM41.0707 13.2525H42.2492V14.431H41.0707V13.2525ZM39.8923 9.71715H41.0707V10.8956H39.8923V9.71715ZM43.4276 8.5387H44.6061V9.71715H43.4276V8.5387ZM43.4276 9.71715H44.6061V10.8956H43.4276V9.71715ZM43.4276 10.8956H44.6061V12.0741H43.4276V10.8956ZM43.4276 12.0741H44.6061V13.2525H43.4276V12.0741ZM44.6061 12.0741H45.7845V13.2525H44.6061V12.0741ZM45.7845 12.0741H46.963V13.2525H45.7845V12.0741ZM46.963 12.0741H48.1414V13.2525H46.963V12.0741ZM46.963 10.8956H48.1414V12.0741H46.963V10.8956ZM46.963 9.71715H48.1414V10.8956H46.963V9.71715ZM46.963 8.5387H48.1414V9.71715H46.963V8.5387ZM45.7845 8.5387H46.963V9.71715H45.7845V8.5387ZM44.6061 8.5387H45.7845V9.71715H44.6061V8.5387ZM44.6061 9.71715H45.7845V10.8956H44.6061V9.71715ZM45.7845 9.71715H46.963V10.8956H45.7845V9.71715ZM45.7845 10.8956H46.963V12.0741H45.7845V10.8956ZM44.6061 10.8956H45.7845V12.0741H44.6061V10.8956ZM37.5354 8.5387H38.7138V9.71715H37.5354V8.5387ZM36.3569 8.5387H37.5354V9.71715H36.3569V8.5387ZM35.1785 8.5387H36.3569V9.71715H35.1785V8.5387ZM34 8.5387H35.1785V9.71715H34V8.5387ZM34 9.71715H35.1785V10.8956H34V9.71715ZM34 10.8956H35.1785V12.0741H34V10.8956ZM35.1785 10.8956H36.3569V12.0741H35.1785V10.8956ZM36.3569 12.0741H37.5354V13.2525H36.3569V12.0741ZM35.1785 12.0741H36.3569V13.2525H35.1785V12.0741ZM34 12.0741H35.1785V13.2525H34V12.0741ZM37.5354 12.0741H38.7138V13.2525H37.5354V12.0741ZM37.5354 10.8956H38.7138V12.0741H37.5354V10.8956ZM37.5354 9.71715H38.7138V10.8956H37.5354V9.71715ZM36.3569 9.71715H37.5354V10.8956H36.3569V9.71715ZM36.3569 10.8956H37.5354V12.0741H36.3569V10.8956ZM35.1785 9.71715H36.3569V10.8956H35.1785V9.71715Z" fill="white"/>
</svg>
