<svg width="122" height="42" viewBox="0 0 122 42" fill="none" xmlns="http://www.w3.org/2000/svg">
<path d="M9.58173 7.50439H17.6818V1.91916H9.58173V7.50439ZM18.6697 9.42355H8.61861C8.07531 9.42355 7.65549 9.00527 7.65549 8.46397V0.959578C7.65549 0.442882 8.07531 0 8.61861 0H18.6697C19.1883 0 19.6328 0.442882 19.6328 0.959578V8.46397C19.6328 9.00527 19.1883 9.42355 18.6697 9.42355Z" fill="#4DA627"/>
<path d="M5.03771 7.50439H22.2257C22.769 7.50439 23.1889 7.92266 23.1889 8.46397C23.1889 10.1617 22.4974 11.7118 21.3861 12.819C20.2501 13.9508 18.719 14.6397 17.015 14.6397H10.2731C8.56916 14.6397 7.01334 13.9508 5.90205 12.819C4.76606 11.7118 4.07458 10.1617 4.07458 8.46397C4.07458 7.92266 4.5191 7.50439 5.03771 7.50439Z" fill="#4DA627"/>
<path d="M6.54421 0C6.0256 0 5.58109 0.442882 5.58109 0.959578C5.58109 1.50088 6.0256 1.91916 6.54421 1.91916H20.7194C21.2627 1.91916 21.7072 1.50088 21.7072 0.959578C21.7072 0.442882 21.2627 0 20.7194 0H6.54421Z" fill="#4DA627"/>
<path d="M8.89017 38.4323V39.4165C8.89017 40.819 7.72949 42 6.29715 42C4.86482 42 3.70413 40.819 3.70413 39.4165V38.4323H3.97578H8.89017Z" fill="#4DA627"/>
<path d="M23.5848 38.4323V39.4165C23.5848 40.819 22.3994 42 20.9918 42C19.5595 42 18.3988 40.819 18.3988 39.4165V38.4323H23.3132H23.5848Z" fill="#4DA627"/>
<path fill-rule="evenodd" clip-rule="evenodd" d="M4.44527 28.3445V22.6854C4.44527 22.1441 4.88979 21.7258 5.43309 21.7258H21.8556C22.3989 21.7258 22.8187 22.1441 22.8187 22.6854V28.3445C22.8187 29.4271 22.3742 30.4359 21.658 31.1494C20.9171 31.8629 19.9293 32.3058 18.8427 32.3058H8.44593C7.35933 32.3058 6.34682 31.8629 5.63065 31.1494C4.91448 30.4359 4.44527 29.4271 4.44527 28.3445ZM17.0152 15.5993H10.2734C8.37185 15.5993 6.56908 14.8366 5.21083 13.5079C3.87728 12.1793 3.11172 10.3585 3.11172 8.46398C3.11172 8.14412 3.1858 7.82426 3.33398 7.55361C2.49433 7.67663 1.72877 8.09491 1.16078 8.66082C0.444609 9.39895 9.15527e-05 10.3831 9.15527e-05 11.4657V33.4868C9.15527e-05 34.594 0.444609 35.5782 1.16078 36.2917C1.82755 36.9561 2.71659 37.3989 3.70441 37.4482C3.80319 37.4728 3.87728 37.4728 3.97606 37.4728H5.63065H6.93951H8.89045H18.3982H20.3244H21.6333H23.3126C23.3867 37.4728 23.4855 37.4728 23.5842 37.4482C24.5721 37.3989 25.4611 36.9561 26.1279 36.2917C26.844 35.5782 27.2885 34.594 27.2885 33.4868V11.4657C27.2885 10.3831 26.844 9.39895 26.1279 8.66082C25.5352 8.09491 24.7943 7.67663 23.93 7.55361C24.0781 7.82426 24.1769 8.14412 24.1769 8.46398C24.1769 10.3585 23.4114 12.1793 22.0778 13.5079C20.7196 14.8366 18.9168 15.5993 17.0152 15.5993Z" fill="#4DA627"/>
<path d="M105.879 14.431H107.057V15.6094H105.879V14.431ZM107.057 14.431H108.236V15.6094H107.057V14.431ZM108.236 14.431H109.414V15.6094H108.236V14.431ZM109.414 14.431H110.592V15.6094H109.414V14.431ZM109.414 15.6094H110.592V16.7879H109.414V15.6094ZM109.414 16.7879H110.592V17.9663H109.414V16.7879ZM109.414 17.9663H110.592V19.1448H109.414V17.9663ZM109.414 19.1448H110.592V20.3232H109.414V19.1448ZM109.414 20.3232H110.592V21.5017H109.414V20.3232ZM109.414 21.5017H110.592V22.6801H109.414V21.5017ZM109.414 22.6801H110.592V23.8586H109.414V22.6801ZM109.414 23.8586H110.592V25.037H109.414V23.8586ZM109.414 25.037H110.592V26.2155H109.414V25.037ZM108.236 25.037H109.414V26.2155H108.236V25.037ZM107.057 25.037H108.236V26.2155H107.057V25.037ZM105.879 25.037H107.057V26.2155H105.879V25.037ZM105.879 23.8586H107.057V25.037H105.879V23.8586ZM105.879 22.6801H107.057V23.8586H105.879V22.6801ZM105.879 21.5017H107.057V22.6801H105.879V21.5017ZM105.879 20.3232H107.057V21.5017H105.879V20.3232ZM105.879 19.1448H107.057V20.3232H105.879V19.1448ZM105.879 17.9663H107.057V19.1448H105.879V17.9663ZM105.879 16.7879H107.057V17.9663H105.879V16.7879ZM105.879 15.6094H107.057V16.7879H105.879V15.6094ZM107.057 15.6094H108.236V16.7879H107.057V15.6094ZM108.236 15.6094H109.414V16.7879H108.236V15.6094ZM108.236 16.7879H109.414V17.9663H108.236V16.7879ZM108.236 17.9663H109.414V19.1448H108.236V17.9663ZM108.236 19.1448H109.414V20.3232H108.236V19.1448ZM108.236 20.3232H109.414V21.5017H108.236V20.3232ZM108.236 21.5017H109.414V22.6801H108.236V21.5017ZM107.057 22.6801H108.236V23.8586H107.057V22.6801ZM107.057 23.8586H108.236V25.037H107.057V23.8586ZM107.057 21.5017H108.236V22.6801H107.057V21.5017ZM107.057 20.3232H108.236V21.5017H107.057V20.3232ZM107.057 19.1448H108.236V20.3232H107.057V19.1448ZM107.057 17.9663H108.236V19.1448H107.057V17.9663ZM107.057 16.7879H108.236V17.9663H107.057V16.7879ZM108.236 22.6801H109.414V23.8586H108.236V22.6801ZM108.236 23.8586H109.414V25.037H108.236V23.8586ZM116.485 14.431H117.663V15.6094H116.485V14.431ZM117.663 14.431H118.842V15.6094H117.663V14.431ZM118.842 14.431H120.02V15.6094H118.842V14.431ZM120.02 14.431H121.199V15.6094H120.02V14.431ZM120.02 15.6094H121.199V16.7879H120.02V15.6094ZM120.02 16.7879H121.199V17.9663H120.02V16.7879ZM120.02 17.9663H121.199V19.1448H120.02V17.9663ZM120.02 19.1448H121.199V20.3232H120.02V19.1448ZM120.02 20.3232H121.199V21.5017H120.02V20.3232ZM120.02 21.5017H121.199V22.6801H120.02V21.5017ZM120.02 22.6801H121.199V23.8586H120.02V22.6801ZM120.02 23.8586H121.199V25.037H120.02V23.8586ZM120.02 25.037H121.199V26.2155H120.02V25.037ZM118.842 23.8586H120.02V25.037H118.842V23.8586ZM117.663 23.8586H118.842V25.037H117.663V23.8586ZM117.663 25.037H118.842V26.2155H117.663V25.037ZM116.485 23.8586H117.663V25.037H116.485V23.8586ZM116.485 22.6801H117.663V23.8586H116.485V22.6801ZM116.485 21.5017H117.663V22.6801H116.485V21.5017ZM116.485 20.3232H117.663V21.5017H116.485V20.3232ZM116.485 19.1448H117.663V20.3232H116.485V19.1448ZM116.485 17.9663H117.663V19.1448H116.485V17.9663ZM116.485 16.7879H117.663V17.9663H116.485V16.7879ZM116.485 15.6094H117.663V16.7879H116.485V15.6094ZM117.663 15.6094H118.842V16.7879H117.663V15.6094ZM118.842 15.6094H120.02V16.7879H118.842V15.6094ZM118.842 16.7879H120.02V17.9663H118.842V16.7879ZM118.842 17.9663H120.02V19.1448H118.842V17.9663ZM118.842 19.1448H120.02V20.3232H118.842V19.1448ZM118.842 20.3232H120.02V21.5017H118.842V20.3232ZM118.842 21.5017H120.02V22.6801H118.842V21.5017ZM118.842 22.6801H120.02V23.8586H118.842V22.6801ZM117.663 22.6801H118.842V23.8586H117.663V22.6801ZM117.663 21.5017H118.842V22.6801H117.663V21.5017ZM117.663 20.3232H118.842V21.5017H117.663V20.3232ZM117.663 19.1448H118.842V20.3232H117.663V19.1448ZM117.663 17.9663H118.842V19.1448H117.663V17.9663ZM117.663 16.7879H118.842V17.9663H117.663V16.7879ZM115.306 25.037H116.485V26.2155H115.306V25.037ZM116.485 25.037H117.663V26.2155H116.485V25.037ZM117.663 26.2155H118.842V27.3939H117.663V26.2155ZM118.842 26.2155H120.02V27.3939H118.842V26.2155ZM118.842 25.037H120.02V26.2155H118.842V25.037ZM116.485 26.2155H117.663V27.3939H116.485V26.2155ZM116.485 27.3939H117.663V28.5724H116.485V27.3939ZM117.663 27.3939H118.842V28.5724H117.663V27.3939ZM116.485 28.5724H117.663V29.7508H116.485V28.5724ZM115.306 28.5724H116.485V29.7508H115.306V28.5724ZM115.306 29.7508H116.485V30.9293H115.306V29.7508ZM114.128 29.7508H115.306V30.9293H114.128V29.7508ZM114.128 30.9293H115.306V32.1077H114.128V30.9293ZM112.949 30.9293H114.128V32.1077H112.949V30.9293ZM112.949 32.1077H114.128V33.2862H112.949V32.1077ZM111.771 32.1077H112.949V33.2862H111.771V32.1077ZM111.771 33.2862H112.949V34.4646H111.771V33.2862ZM110.592 33.2862H111.771V34.4646H110.592V33.2862ZM110.592 34.4646H111.771V35.6431H110.592V34.4646ZM109.414 34.4646H110.592V35.6431H109.414V34.4646ZM109.414 35.6431H110.592V36.8215H109.414V35.6431ZM108.236 35.6431H109.414V36.8215H108.236V35.6431ZM108.236 36.8215H109.414V38H108.236V36.8215ZM107.057 36.8215H108.236V38H107.057V36.8215ZM105.879 36.8215H107.057V38H105.879V36.8215ZM105.879 35.6431H107.057V36.8215H105.879V35.6431ZM105.879 34.4646H107.057V35.6431H105.879V34.4646ZM107.057 34.4646H108.236V35.6431H107.057V34.4646ZM107.057 35.6431H108.236V36.8215H107.057V35.6431ZM108.236 34.4646H109.414V35.6431H108.236V34.4646ZM107.057 33.2862H108.236V34.4646H107.057V33.2862ZM108.236 33.2862H109.414V34.4646H108.236V33.2862ZM108.236 32.1077H109.414V33.2862H108.236V32.1077ZM109.414 32.1077H110.592V33.2862H109.414V32.1077ZM110.592 32.1077H111.771V33.2862H110.592V32.1077ZM110.592 30.9293H111.771V32.1077H110.592V30.9293ZM109.414 30.9293H110.592V32.1077H109.414V30.9293ZM109.414 33.2862H110.592V34.4646H109.414V33.2862ZM111.771 29.7508H112.949V30.9293H111.771V29.7508ZM110.592 29.7508H111.771V30.9293H110.592V29.7508ZM111.771 30.9293H112.949V32.1077H111.771V30.9293ZM112.949 29.7508H114.128V30.9293H112.949V29.7508ZM112.949 28.5724H114.128V29.7508H112.949V28.5724ZM114.128 28.5724H115.306V29.7508H114.128V28.5724ZM114.128 27.3939H115.306V28.5724H114.128V27.3939ZM115.306 27.3939H116.485V28.5724H115.306V27.3939ZM115.306 26.2155H116.485V27.3939H115.306V26.2155ZM114.128 26.2155H115.306V27.3939H114.128V26.2155ZM112.949 27.3939H114.128V28.5724H112.949V27.3939ZM111.771 27.3939H112.949V28.5724H111.771V27.3939ZM111.771 26.2155H112.949V27.3939H111.771V26.2155ZM110.592 27.3939H111.771V28.5724H110.592V27.3939ZM110.592 26.2155H111.771V27.3939H110.592V26.2155ZM110.592 25.037H111.771V26.2155H110.592V25.037ZM109.414 26.2155H110.592V27.3939H109.414V26.2155ZM108.236 26.2155H109.414V27.3939H108.236V26.2155ZM107.057 26.2155H108.236V27.3939H107.057V26.2155ZM109.414 27.3939H110.592V28.5724H109.414V27.3939ZM108.236 27.3939H109.414V28.5724H108.236V27.3939ZM109.414 28.5724H110.592V29.7508H109.414V28.5724ZM110.592 28.5724H111.771V29.7508H110.592V28.5724ZM111.771 28.5724H112.949V29.7508H111.771V28.5724Z" fill="black"/>
<path d="M101.176 8.5387H102.355V9.71715H101.176V8.5387ZM102.355 8.5387H103.533V9.71715H102.355V8.5387ZM102.355 9.71715H103.533V10.8956H102.355V9.71715ZM101.176 9.71715H102.355V10.8956H101.176V9.71715ZM101.176 10.8956H102.355V12.0741H101.176V10.8956ZM102.355 10.8956H103.533V12.0741H102.355V10.8956ZM99.9979 9.71715H101.176V10.8956H99.9979V9.71715ZM99.9979 8.5387H101.176V9.71715H99.9979V8.5387ZM98.8194 8.5387H99.9979V9.71715H98.8194V8.5387ZM98.8194 9.71715H99.9979V10.8956H98.8194V9.71715ZM97.641 9.71715H98.8194V10.8956H97.641V9.71715ZM96.4625 9.71715H97.641V10.8956H96.4625V9.71715ZM96.4625 10.8956H97.641V12.0741H96.4625V10.8956ZM97.641 10.8956H98.8194V12.0741H97.641V10.8956ZM98.8194 10.8956H99.9979V12.0741H98.8194V10.8956ZM99.9979 10.8956H101.176V12.0741H99.9979V10.8956ZM98.8194 12.0741H99.9979V13.2525H98.8194V12.0741ZM97.641 12.0741H98.8194V13.2525H97.641V12.0741ZM96.4625 12.0741H97.641V13.2525H96.4625V12.0741ZM99.9979 12.0741H101.176V13.2525H99.9979V12.0741ZM95.2841 12.0741H96.4625V13.2525H95.2841V12.0741ZM95.2841 13.2525H96.4625V14.431H95.2841V13.2525ZM95.2841 14.431H96.4625V15.6094H95.2841V14.431ZM96.4625 14.431H97.641V15.6094H96.4625V14.431ZM96.4625 13.2525H97.641V14.431H96.4625V13.2525ZM97.641 13.2525H98.8194V14.431H97.641V13.2525ZM97.641 14.431H98.8194V15.6094H97.641V14.431ZM98.8194 14.431H99.9979V15.6094H98.8194V14.431ZM98.8194 13.2525H99.9979V14.431H98.8194V13.2525ZM98.8194 15.6094H99.9979V16.7879H98.8194V15.6094ZM97.641 15.6094H98.8194V16.7879H97.641V15.6094ZM97.641 16.7879H98.8194V17.9663H97.641V16.7879ZM96.4625 16.7879H97.641V17.9663H96.4625V16.7879ZM95.2841 16.7879H96.4625V17.9663H95.2841V16.7879ZM95.2841 15.6094H96.4625V16.7879H95.2841V15.6094ZM96.4625 15.6094H97.641V16.7879H96.4625V15.6094ZM92.9272 16.7879H94.1056V17.9663H92.9272V16.7879ZM94.1056 16.7879H95.2841V17.9663H94.1056V16.7879ZM98.8194 16.7879H99.9979V17.9663H98.8194V16.7879ZM99.9979 16.7879H101.176V17.9663H99.9979V16.7879ZM101.176 16.7879H102.355V17.9663H101.176V16.7879ZM102.355 16.7879H103.533V17.9663H102.355V16.7879ZM102.355 17.9663H103.533V19.1448H102.355V17.9663ZM101.176 17.9663H102.355V19.1448H101.176V17.9663ZM99.9979 17.9663H101.176V19.1448H99.9979V17.9663ZM94.1056 17.9663H95.2841V19.1448H94.1056V17.9663ZM92.9272 17.9663H94.1056V19.1448H92.9272V17.9663ZM95.2841 17.9663H96.4625V19.1448H95.2841V17.9663ZM96.4625 17.9663H97.641V19.1448H96.4625V17.9663ZM97.641 17.9663H98.8194V19.1448H97.641V17.9663ZM98.8194 17.9663H99.9979V19.1448H98.8194V17.9663ZM95.2841 20.3232H96.4625V21.5017H95.2841V20.3232ZM96.4625 20.3232H97.641V21.5017H96.4625V20.3232ZM97.641 20.3232H98.8194V21.5017H97.641V20.3232ZM98.8194 20.3232H99.9979V21.5017H98.8194V20.3232ZM98.8194 21.5017H99.9979V22.6801H98.8194V21.5017ZM97.641 21.5017H98.8194V22.6801H97.641V21.5017ZM96.4625 21.5017H97.641V22.6801H96.4625V21.5017ZM95.2841 21.5017H96.4625V22.6801H95.2841V21.5017ZM96.4625 22.6801H97.641V23.8586H96.4625V22.6801ZM96.4625 23.8586H97.641V25.037H96.4625V23.8586ZM97.641 23.8586H98.8194V25.037H97.641V23.8586ZM98.8194 23.8586H99.9979V25.037H98.8194V23.8586ZM98.8194 22.6801H99.9979V23.8586H98.8194V22.6801ZM97.641 22.6801H98.8194V23.8586H97.641V22.6801ZM95.2841 22.6801H96.4625V23.8586H95.2841V22.6801ZM95.2841 23.8586H96.4625V25.037H95.2841V23.8586ZM95.2841 25.037H96.4625V26.2155H95.2841V25.037ZM96.4625 25.037H97.641V26.2155H96.4625V25.037ZM96.4625 26.2155H97.641V27.3939H96.4625V26.2155ZM97.641 26.2155H98.8194V27.3939H97.641V26.2155ZM98.8194 26.2155H99.9979V27.3939H98.8194V26.2155ZM98.8194 25.037H99.9979V26.2155H98.8194V25.037ZM97.641 25.037H98.8194V26.2155H97.641V25.037ZM95.2841 26.2155H96.4625V27.3939H95.2841V26.2155ZM95.2841 27.3939H96.4625V28.5724H95.2841V27.3939ZM96.4625 27.3939H97.641V28.5724H96.4625V27.3939ZM97.641 27.3939H98.8194V28.5724H97.641V27.3939ZM98.8194 27.3939H99.9979V28.5724H98.8194V27.3939ZM98.8194 28.5724H99.9979V29.7508H98.8194V28.5724ZM98.8194 29.7508H99.9979V30.9293H98.8194V29.7508ZM98.8194 30.9293H99.9979V32.1077H98.8194V30.9293ZM97.641 30.9293H98.8194V32.1077H97.641V30.9293ZM96.4625 30.9293H97.641V32.1077H96.4625V30.9293ZM95.2841 30.9293H96.4625V32.1077H95.2841V30.9293ZM95.2841 29.7508H96.4625V30.9293H95.2841V29.7508ZM95.2841 28.5724H96.4625V29.7508H95.2841V28.5724ZM96.4625 28.5724H97.641V29.7508H96.4625V28.5724ZM97.641 28.5724H98.8194V29.7508H97.641V28.5724ZM97.641 29.7508H98.8194V30.9293H97.641V29.7508ZM96.4625 29.7508H97.641V30.9293H96.4625V29.7508ZM92.9272 15.6094H94.1056V16.7879H92.9272V15.6094ZM94.1056 15.6094H95.2841V16.7879H94.1056V15.6094ZM99.9979 15.6094H101.176V16.7879H99.9979V15.6094ZM101.176 15.6094H102.355V16.7879H101.176V15.6094ZM102.355 15.6094H103.533V16.7879H102.355V15.6094ZM95.2841 19.1448H96.4625V20.3232H95.2841V19.1448ZM96.4625 19.1448H97.641V20.3232H96.4625V19.1448ZM97.641 19.1448H98.8194V20.3232H97.641V19.1448ZM98.8194 19.1448H99.9979V20.3232H98.8194V19.1448Z" fill="black"/>
<path d="M74.0673 14.431H75.2458V15.6094H74.0673V14.431ZM75.2458 14.431H76.4242V15.6094H75.2458V14.431ZM76.4242 14.431H77.6027V15.6094H76.4242V14.431ZM74.0673 16.7879H75.2458V17.9663H74.0673V16.7879ZM74.0673 15.6094H75.2458V16.7879H74.0673V15.6094ZM76.4242 30.9293H77.6027V32.1077H76.4242V30.9293ZM75.2458 30.9293H76.4242V32.1077H75.2458V30.9293ZM74.0673 29.7508H75.2458V30.9293H74.0673V29.7508ZM74.0673 28.5724H75.2458V29.7508H74.0673V28.5724ZM74.0673 30.9293H75.2458V32.1077H74.0673V30.9293ZM79.9596 14.431H81.138V15.6094H79.9596V14.431ZM77.6027 14.431H78.7811V15.6094H77.6027V14.431ZM81.138 14.431H82.3165V15.6094H81.138V14.431ZM82.3165 14.431H83.4949V15.6094H82.3165V14.431ZM83.4949 14.431H84.6734V15.6094H83.4949V14.431ZM84.6734 14.431H85.8518V15.6094H84.6734V14.431ZM85.8518 15.6094H87.0303V16.7879H85.8518V15.6094ZM84.6734 15.6094H85.8518V16.7879H84.6734V15.6094ZM84.6734 16.7879H85.8518V17.9663H84.6734V16.7879ZM87.0303 15.6094H88.2087V16.7879H87.0303V15.6094ZM87.0303 16.7879H88.2087V17.9663H87.0303V16.7879ZM85.8518 16.7879H87.0303V17.9663H85.8518V16.7879ZM84.6734 17.9663H85.8518V19.1448H84.6734V17.9663ZM83.4949 17.9663H84.6734V19.1448H83.4949V17.9663ZM85.8518 17.9663H87.0303V19.1448H85.8518V17.9663ZM87.0303 17.9663H88.2087V19.1448H87.0303V17.9663ZM88.2087 17.9663H89.3872V19.1448H88.2087V17.9663ZM88.2087 19.1448H89.3872V20.3232H88.2087V19.1448ZM88.2087 20.3232H89.3872V21.5017H88.2087V20.3232ZM88.2087 21.5017H89.3872V22.6801H88.2087V21.5017ZM88.2087 22.6801H89.3872V23.8586H88.2087V22.6801ZM88.2087 23.8586H89.3872V25.037H88.2087V23.8586ZM88.2087 25.037H89.3872V26.2155H88.2087V25.037ZM88.2087 26.2155H89.3872V27.3939H88.2087V26.2155ZM88.2087 27.3939H89.3872V28.5724H88.2087V27.3939ZM87.0303 27.3939H88.2087V28.5724H87.0303V27.3939ZM87.0303 28.5724H88.2087V29.7508H87.0303V28.5724ZM87.0303 29.7508H88.2087V30.9293H87.0303V29.7508ZM85.8518 29.7508H87.0303V30.9293H85.8518V29.7508ZM84.6734 29.7508H85.8518V30.9293H84.6734V29.7508ZM83.4949 28.5724H84.6734V29.7508H83.4949V28.5724ZM83.4949 27.3939H84.6734V28.5724H83.4949V27.3939ZM84.6734 27.3939H85.8518V28.5724H84.6734V27.3939ZM84.6734 28.5724H85.8518V29.7508H84.6734V28.5724ZM85.8518 28.5724H87.0303V29.7508H85.8518V28.5724ZM85.8518 27.3939H87.0303V28.5724H85.8518V27.3939ZM85.8518 26.2155H87.0303V27.3939H85.8518V26.2155ZM84.6734 26.2155H85.8518V27.3939H84.6734V26.2155ZM84.6734 25.037H85.8518V26.2155H84.6734V25.037ZM84.6734 23.8586H85.8518V25.037H84.6734V23.8586ZM84.6734 22.6801H85.8518V23.8586H84.6734V22.6801ZM84.6734 21.5017H85.8518V22.6801H84.6734V21.5017ZM84.6734 20.3232H85.8518V21.5017H84.6734V20.3232ZM84.6734 19.1448H85.8518V20.3232H84.6734V19.1448ZM85.8518 19.1448H87.0303V20.3232H85.8518V19.1448ZM85.8518 20.3232H87.0303V21.5017H85.8518V20.3232ZM85.8518 21.5017H87.0303V22.6801H85.8518V21.5017ZM85.8518 22.6801H87.0303V23.8586H85.8518V22.6801ZM85.8518 23.8586H87.0303V25.037H85.8518V23.8586ZM85.8518 25.037H87.0303V26.2155H85.8518V25.037ZM87.0303 26.2155H88.2087V27.3939H87.0303V26.2155ZM87.0303 25.037H88.2087V26.2155H87.0303V25.037ZM87.0303 23.8586H88.2087V25.037H87.0303V23.8586ZM87.0303 22.6801H88.2087V23.8586H87.0303V22.6801ZM87.0303 21.5017H88.2087V22.6801H87.0303V21.5017ZM87.0303 20.3232H88.2087V21.5017H87.0303V20.3232ZM87.0303 19.1448H88.2087V20.3232H87.0303V19.1448ZM83.4949 29.7508H84.6734V30.9293H83.4949V29.7508ZM83.4949 30.9293H84.6734V32.1077H83.4949V30.9293ZM84.6734 30.9293H85.8518V32.1077H84.6734V30.9293ZM82.3165 30.9293H83.4949V32.1077H82.3165V30.9293ZM81.138 30.9293H82.3165V32.1077H81.138V30.9293ZM79.9596 30.9293H81.138V32.1077H79.9596V30.9293ZM78.7811 30.9293H79.9596V32.1077H78.7811V30.9293ZM77.6027 30.9293H78.7811V32.1077H77.6027V30.9293ZM77.6027 29.7508H78.7811V30.9293H77.6027V29.7508ZM76.4242 29.7508H77.6027V30.9293H76.4242V29.7508ZM75.2458 29.7508H76.4242V30.9293H75.2458V29.7508ZM75.2458 20.3232H76.4242V21.5017H75.2458V20.3232ZM75.2458 19.1448H76.4242V20.3232H75.2458V19.1448ZM74.0673 17.9663H75.2458V19.1448H74.0673V17.9663ZM75.2458 16.7879H76.4242V17.9663H75.2458V16.7879ZM76.4242 15.6094H77.6027V16.7879H76.4242V15.6094ZM77.6027 15.6094H78.7811V16.7879H77.6027V15.6094ZM78.7811 15.6094H79.9596V16.7879H78.7811V15.6094ZM78.7811 16.7879H79.9596V17.9663H78.7811V16.7879ZM78.7811 17.9663H79.9596V19.1448H78.7811V17.9663ZM77.6027 17.9663H78.7811V19.1448H77.6027V17.9663ZM76.4242 17.9663H77.6027V19.1448H76.4242V17.9663ZM77.6027 19.1448H78.7811V20.3232H77.6027V19.1448ZM77.6027 20.3232H78.7811V21.5017H77.6027V20.3232ZM77.6027 21.5017H78.7811V22.6801H77.6027V21.5017ZM78.7811 28.5724H79.9596V29.7508H78.7811V28.5724ZM79.9596 28.5724H81.138V29.7508H79.9596V28.5724ZM81.138 28.5724H82.3165V29.7508H81.138V28.5724ZM82.3165 28.5724H83.4949V29.7508H82.3165V28.5724ZM82.3165 29.7508H83.4949V30.9293H82.3165V29.7508ZM81.138 29.7508H82.3165V30.9293H81.138V29.7508ZM79.9596 29.7508H81.138V30.9293H79.9596V29.7508ZM78.7811 29.7508H79.9596V30.9293H78.7811V29.7508ZM77.6027 28.5724H78.7811V29.7508H77.6027V28.5724ZM76.4242 28.5724H77.6027V29.7508H76.4242V28.5724ZM76.4242 20.3232H77.6027V21.5017H76.4242V20.3232ZM76.4242 19.1448H77.6027V20.3232H76.4242V19.1448ZM76.4242 16.7879H77.6027V17.9663H76.4242V16.7879ZM77.6027 16.7879H78.7811V17.9663H77.6027V16.7879ZM79.9596 15.6094H81.138V16.7879H79.9596V15.6094ZM81.138 15.6094H82.3165V16.7879H81.138V15.6094ZM82.3165 15.6094H83.4949V16.7879H82.3165V15.6094ZM83.4949 15.6094H84.6734V16.7879H83.4949V15.6094ZM83.4949 16.7879H84.6734V17.9663H83.4949V16.7879ZM82.3165 16.7879H83.4949V17.9663H82.3165V16.7879ZM81.138 16.7879H82.3165V17.9663H81.138V16.7879ZM79.9596 16.7879H81.138V17.9663H79.9596V16.7879ZM75.2458 15.6094H76.4242V16.7879H75.2458V15.6094ZM75.2458 28.5724H76.4242V29.7508H75.2458V28.5724ZM75.2458 17.9663H76.4242V19.1448H75.2458V17.9663ZM74.0673 19.1448H75.2458V20.3232H74.0673V19.1448ZM74.0673 20.3232H75.2458V21.5017H74.0673V20.3232ZM74.0673 27.3939H75.2458V28.5724H74.0673V27.3939ZM75.2458 27.3939H76.4242V28.5724H75.2458V27.3939ZM76.4242 27.3939H77.6027V28.5724H76.4242V27.3939ZM77.6027 27.3939H78.7811V28.5724H77.6027V27.3939ZM76.4242 21.5017H77.6027V22.6801H76.4242V21.5017ZM75.2458 21.5017H76.4242V22.6801H75.2458V21.5017ZM74.0673 21.5017H75.2458V22.6801H74.0673V21.5017ZM74.0673 22.6801H75.2458V23.8586H74.0673V22.6801ZM74.0673 23.8586H75.2458V25.037H74.0673V23.8586ZM74.0673 25.037H75.2458V26.2155H74.0673V25.037ZM75.2458 25.037H76.4242V26.2155H75.2458V25.037ZM75.2458 26.2155H76.4242V27.3939H75.2458V26.2155ZM76.4242 26.2155H77.6027V27.3939H76.4242V26.2155ZM74.0673 26.2155H75.2458V27.3939H74.0673V26.2155ZM77.6027 26.2155H78.7811V27.3939H77.6027V26.2155ZM77.6027 25.037H78.7811V26.2155H77.6027V25.037ZM77.6027 23.8586H78.7811V25.037H77.6027V23.8586ZM77.6027 22.6801H78.7811V23.8586H77.6027V22.6801ZM76.4242 22.6801H77.6027V23.8586H76.4242V22.6801ZM75.2458 22.6801H76.4242V23.8586H75.2458V22.6801ZM75.2458 23.8586H76.4242V25.037H75.2458V23.8586ZM76.4242 25.037H77.6027V26.2155H76.4242V25.037ZM76.4242 23.8586H77.6027V25.037H76.4242V23.8586ZM74.0673 32.1077H75.2458V33.2862H74.0673V32.1077ZM75.2458 32.1077H76.4242V33.2862H75.2458V32.1077ZM76.4242 32.1077H77.6027V33.2862H76.4242V32.1077ZM77.6027 32.1077H78.7811V33.2862H77.6027V32.1077ZM77.6027 33.2862H78.7811V34.4646H77.6027V33.2862ZM77.6027 34.4646H78.7811V35.6431H77.6027V34.4646ZM76.4242 34.4646H77.6027V35.6431H76.4242V34.4646ZM75.2458 34.4646H76.4242V35.6431H75.2458V34.4646ZM75.2458 33.2862H76.4242V34.4646H75.2458V33.2862ZM74.0673 33.2862H75.2458V34.4646H74.0673V33.2862ZM76.4242 33.2862H77.6027V34.4646H76.4242V33.2862ZM74.0673 34.4646H75.2458V35.6431H74.0673V34.4646ZM74.0673 35.6431H75.2458V36.8215H74.0673V35.6431ZM75.2458 35.6431H76.4242V36.8215H75.2458V35.6431ZM76.4242 35.6431H77.6027V36.8215H76.4242V35.6431ZM77.6027 35.6431H78.7811V36.8215H77.6027V35.6431ZM77.6027 36.8215H78.7811V38H77.6027V36.8215ZM76.4242 36.8215H77.6027V38H76.4242V36.8215ZM75.2458 36.8215H76.4242V38H75.2458V36.8215ZM74.0673 36.8215H75.2458V38H74.0673V36.8215Z" fill="black"/>
<path d="M66.9898 15.6094H68.1682V16.7879H66.9898V15.6094ZM66.9898 16.7879H68.1682V17.9663H66.9898V16.7879ZM66.9898 17.9663H68.1682V19.1448H66.9898V17.9663ZM66.9898 19.1448H68.1682V20.3232H66.9898V19.1448ZM66.9898 20.3232H68.1682V21.5017H66.9898V20.3232ZM65.8113 20.3232H66.9898V21.5017H65.8113V20.3232ZM65.8113 19.1448H66.9898V20.3232H65.8113V19.1448ZM65.8113 17.9663H66.9898V19.1448H65.8113V17.9663ZM65.8113 16.7879H66.9898V17.9663H65.8113V16.7879ZM65.8113 15.6094H66.9898V16.7879H65.8113V15.6094ZM65.8113 27.3939H66.9898V28.5724H65.8113V27.3939ZM65.8113 26.2155H66.9898V27.3939H65.8113V26.2155ZM65.8113 25.037H66.9898V26.2155H65.8113V25.037ZM65.8113 23.8586H66.9898V25.037H65.8113V23.8586ZM66.9898 22.6801H68.1682V23.8586H66.9898V22.6801ZM66.9898 21.5017H68.1682V22.6801H66.9898V21.5017ZM65.8113 21.5017H66.9898V22.6801H65.8113V21.5017ZM65.8113 22.6801H66.9898V23.8586H65.8113V22.6801ZM65.8113 28.5724H66.9898V29.7508H65.8113V28.5724ZM65.8113 29.7508H66.9898V30.9293H65.8113V29.7508ZM65.8113 30.9293H66.9898V32.1077H65.8113V30.9293ZM69.3467 15.6094H70.5251V16.7879H69.3467V15.6094ZM69.3467 16.7879H70.5251V17.9663H69.3467V16.7879ZM69.3467 17.9663H70.5251V19.1448H69.3467V17.9663ZM69.3467 19.1448H70.5251V20.3232H69.3467V19.1448ZM69.3467 20.3232H70.5251V21.5017H69.3467V20.3232ZM69.3467 21.5017H70.5251V22.6801H69.3467V21.5017ZM69.3467 22.6801H70.5251V23.8586H69.3467V22.6801ZM69.3467 23.8586H70.5251V25.037H69.3467V23.8586ZM69.3467 25.037H70.5251V26.2155H69.3467V25.037ZM69.3467 26.2155H70.5251V27.3939H69.3467V26.2155ZM69.3467 27.3939H70.5251V28.5724H69.3467V27.3939ZM69.3467 28.5724H70.5251V29.7508H69.3467V28.5724ZM69.3467 29.7508H70.5251V30.9293H69.3467V29.7508ZM69.3467 30.9293H70.5251V32.1077H69.3467V30.9293ZM68.1682 30.9293H69.3467V32.1077H68.1682V30.9293ZM66.9898 30.9293H68.1682V32.1077H66.9898V30.9293ZM66.9898 29.7508H68.1682V30.9293H66.9898V29.7508ZM68.1682 29.7508H69.3467V30.9293H68.1682V29.7508ZM68.1682 28.5724H69.3467V29.7508H68.1682V28.5724ZM66.9898 27.3939H68.1682V28.5724H66.9898V27.3939ZM66.9898 26.2155H68.1682V27.3939H66.9898V26.2155ZM66.9898 25.037H68.1682V26.2155H66.9898V25.037ZM68.1682 25.037H69.3467V26.2155H68.1682V25.037ZM68.1682 26.2155H69.3467V27.3939H68.1682V26.2155ZM68.1682 27.3939H69.3467V28.5724H68.1682V27.3939ZM66.9898 28.5724H68.1682V29.7508H66.9898V28.5724ZM68.1682 23.8586H69.3467V25.037H68.1682V23.8586ZM68.1682 22.6801H69.3467V23.8586H68.1682V22.6801ZM68.1682 21.5017H69.3467V22.6801H68.1682V21.5017ZM66.9898 23.8586H68.1682V25.037H66.9898V23.8586ZM68.1682 20.3232H69.3467V21.5017H68.1682V20.3232ZM68.1682 19.1448H69.3467V20.3232H68.1682V19.1448ZM68.1682 17.9663H69.3467V19.1448H68.1682V17.9663ZM68.1682 16.7879H69.3467V17.9663H68.1682V16.7879ZM68.1682 15.6094H69.3467V16.7879H68.1682V15.6094ZM69.3467 8.53871H70.5251V9.71716H69.3467V8.53871ZM68.1682 9.71716H69.3467V10.8956H68.1682V9.71716ZM68.1682 7.36025H69.3467V8.53871H68.1682V7.36025ZM66.9898 8.53871H68.1682V9.71716H66.9898V8.53871ZM68.1682 8.53871H69.3467V9.71716H68.1682V8.53871ZM66.9898 7.36025H68.1682V8.53871H66.9898V7.36025ZM66.9898 9.71716H68.1682V10.8956H66.9898V9.71716ZM69.3467 9.71716H70.5251V10.8956H69.3467V9.71716ZM65.8113 8.53871H66.9898V9.71716H65.8113V8.53871ZM65.8113 9.71716H66.9898V10.8956H65.8113V9.71716ZM66.9898 10.8956H68.1682V12.0741H66.9898V10.8956ZM68.1682 10.8956H69.3467V12.0741H68.1682V10.8956ZM65.8113 7.36025H66.9898V8.53871H65.8113V7.36025ZM69.3467 7.36025H70.5251V8.53871H69.3467V7.36025ZM69.3467 10.8956H70.5251V12.0741H69.3467V10.8956ZM65.8113 10.8956H66.9898V12.0741H65.8113V10.8956Z" fill="black"/>
<path d="M70.5251 8.53871V9.71716V10.8956V12.0741H69.3467H68.1682H66.9898H65.8113V10.8956V9.71716V8.53871V7.36025H66.9898H68.1682H69.3467H70.5251V8.53871Z" fill="#F38035"/>
<path d="M51.686 14.431H52.8644V15.6094H51.686V14.431ZM52.8644 14.431H54.0429V15.6094H52.8644V14.431ZM54.0429 14.431H55.2213V15.6094H54.0429V14.431ZM51.686 16.7879H52.8644V17.9663H51.686V16.7879ZM51.686 15.6094H52.8644V16.7879H51.686V15.6094ZM54.0429 30.9293H55.2213V32.1077H54.0429V30.9293ZM52.8644 30.9293H54.0429V32.1077H52.8644V30.9293ZM51.686 29.7508H52.8644V30.9293H51.686V29.7508ZM51.686 28.5724H52.8644V29.7508H51.686V28.5724ZM51.686 30.9293H52.8644V32.1077H51.686V30.9293ZM57.5782 14.431H58.7567V15.6094H57.5782V14.431ZM55.2213 14.431H56.3998V15.6094H55.2213V14.431ZM58.7567 14.431H59.9352V15.6094H58.7567V14.431ZM59.9352 14.431H61.1136V15.6094H59.9352V14.431ZM61.1136 14.431H62.2921V15.6094H61.1136V14.431ZM62.2921 15.6094H63.4705V16.7879H62.2921V15.6094ZM62.2921 16.7879H63.4705V17.9663H62.2921V16.7879ZM63.4705 16.7879H64.649V17.9663H63.4705V16.7879ZM62.2921 17.9663H63.4705V19.1448H62.2921V17.9663ZM61.1136 17.9663H62.2921V19.1448H61.1136V17.9663ZM55.2213 30.9293H56.3998V32.1077H55.2213V30.9293ZM55.2213 29.7508H56.3998V30.9293H55.2213V29.7508ZM54.0429 29.7508H55.2213V30.9293H54.0429V29.7508ZM52.8644 29.7508H54.0429V30.9293H52.8644V29.7508ZM52.8644 20.3232H54.0429V21.5017H52.8644V20.3232ZM52.8644 19.1448H54.0429V20.3232H52.8644V19.1448ZM51.686 17.9663H52.8644V19.1448H51.686V17.9663ZM52.8644 16.7879H54.0429V17.9663H52.8644V16.7879ZM54.0429 15.6094H55.2213V16.7879H54.0429V15.6094ZM55.2213 15.6094H56.3998V16.7879H55.2213V15.6094ZM56.3998 15.6094H57.5782V16.7879H56.3998V15.6094ZM56.3998 16.7879H57.5782V17.9663H56.3998V16.7879ZM56.3998 17.9663H57.5782V19.1448H56.3998V17.9663ZM55.2213 17.9663H56.3998V19.1448H55.2213V17.9663ZM54.0429 17.9663H55.2213V19.1448H54.0429V17.9663ZM55.2213 19.1448H56.3998V20.3232H55.2213V19.1448ZM55.2213 20.3232H56.3998V21.5017H55.2213V20.3232ZM55.2213 21.5017H56.3998V22.6801H55.2213V21.5017ZM55.2213 28.5724H56.3998V29.7508H55.2213V28.5724ZM54.0429 28.5724H55.2213V29.7508H54.0429V28.5724ZM54.0429 20.3232H55.2213V21.5017H54.0429V20.3232ZM54.0429 19.1448H55.2213V20.3232H54.0429V19.1448ZM54.0429 16.7879H55.2213V17.9663H54.0429V16.7879ZM55.2213 16.7879H56.3998V17.9663H55.2213V16.7879ZM57.5782 15.6094H58.7567V16.7879H57.5782V15.6094ZM58.7567 15.6094H59.9352V16.7879H58.7567V15.6094ZM59.9352 15.6094H61.1136V16.7879H59.9352V15.6094ZM61.1136 15.6094H62.2921V16.7879H61.1136V15.6094ZM61.1136 16.7879H62.2921V17.9663H61.1136V16.7879ZM59.9352 16.7879H61.1136V17.9663H59.9352V16.7879ZM58.7567 16.7879H59.9352V17.9663H58.7567V16.7879ZM57.5782 16.7879H58.7567V17.9663H57.5782V16.7879ZM52.8644 15.6094H54.0429V16.7879H52.8644V15.6094ZM52.8644 28.5724H54.0429V29.7508H52.8644V28.5724ZM52.8644 17.9663H54.0429V19.1448H52.8644V17.9663ZM51.686 19.1448H52.8644V20.3232H51.686V19.1448ZM51.686 20.3232H52.8644V21.5017H51.686V20.3232ZM51.686 27.3939H52.8644V28.5724H51.686V27.3939ZM52.8644 27.3939H54.0429V28.5724H52.8644V27.3939ZM54.0429 27.3939H55.2213V28.5724H54.0429V27.3939ZM55.2213 27.3939H56.3998V28.5724H55.2213V27.3939ZM54.0429 21.5017H55.2213V22.6801H54.0429V21.5017ZM52.8644 21.5017H54.0429V22.6801H52.8644V21.5017ZM51.686 21.5017H52.8644V22.6801H51.686V21.5017ZM51.686 22.6801H52.8644V23.8586H51.686V22.6801ZM51.686 23.8586H52.8644V25.037H51.686V23.8586ZM51.686 25.037H52.8644V26.2155H51.686V25.037ZM52.8644 25.037H54.0429V26.2155H52.8644V25.037ZM52.8644 26.2155H54.0429V27.3939H52.8644V26.2155ZM54.0429 26.2155H55.2213V27.3939H54.0429V26.2155ZM51.686 26.2155H52.8644V27.3939H51.686V26.2155ZM55.2213 26.2155H56.3998V27.3939H55.2213V26.2155ZM55.2213 25.037H56.3998V26.2155H55.2213V25.037ZM55.2213 23.8586H56.3998V25.037H55.2213V23.8586ZM55.2213 22.6801H56.3998V23.8586H55.2213V22.6801ZM54.0429 22.6801H55.2213V23.8586H54.0429V22.6801ZM52.8644 22.6801H54.0429V23.8586H52.8644V22.6801ZM52.8644 23.8586H54.0429V25.037H52.8644V23.8586ZM54.0429 25.037H55.2213V26.2155H54.0429V25.037ZM54.0429 23.8586H55.2213V25.037H54.0429V23.8586ZM59.9352 17.9663H61.1136V19.1448H59.9352V17.9663ZM61.1136 19.1448H62.2921V20.3232H61.1136V19.1448Z" fill="black"/>
<path d="M38.7138 30.9293H39.8923V32.1077H38.7138V30.9293ZM39.8923 30.9293H41.0707V32.1077H39.8923V30.9293ZM41.0707 30.9293H42.2492V32.1077H41.0707V30.9293ZM42.2492 30.9293H43.4276V32.1077H42.2492V30.9293ZM42.2492 29.7508H43.4276V30.9293H42.2492V29.7508ZM41.0707 29.7508H42.2492V30.9293H41.0707V29.7508ZM39.8923 29.7508H41.0707V30.9293H39.8923V29.7508ZM38.7138 29.7508H39.8923V30.9293H38.7138V29.7508ZM38.7138 28.5724H39.8923V29.7508H38.7138V28.5724ZM38.7138 27.3939H39.8923V28.5724H38.7138V27.3939ZM38.7138 26.2155H39.8923V27.3939H38.7138V26.2155ZM38.7138 25.037H39.8923V26.2155H38.7138V25.037ZM38.7138 23.8586H39.8923V25.037H38.7138V23.8586ZM38.7138 22.6801H39.8923V23.8586H38.7138V22.6801ZM38.7138 21.5017H39.8923V22.6801H38.7138V21.5017ZM39.8923 21.5017H41.0707V22.6801H39.8923V21.5017ZM39.8923 20.3232H41.0707V21.5017H39.8923V20.3232ZM39.8923 19.1448H41.0707V20.3232H39.8923V19.1448ZM41.0707 19.1448H42.2492V20.3232H41.0707V19.1448ZM41.0707 20.3232H42.2492V21.5017H41.0707V20.3232ZM42.2492 20.3232H43.4276V21.5017H42.2492V20.3232ZM42.2492 21.5017H43.4276V22.6801H42.2492V21.5017ZM42.2492 22.6801H43.4276V23.8586H42.2492V22.6801ZM42.2492 23.8586H43.4276V25.037H42.2492V23.8586ZM42.2492 25.037H43.4276V26.2155H42.2492V25.037ZM42.2492 26.2155H43.4276V27.3939H42.2492V26.2155ZM42.2492 27.3939H43.4276V28.5724H42.2492V27.3939ZM42.2492 28.5724H43.4276V29.7508H42.2492V28.5724ZM41.0707 28.5724H42.2492V29.7508H41.0707V28.5724ZM41.0707 27.3939H42.2492V28.5724H41.0707V27.3939ZM41.0707 26.2155H42.2492V27.3939H41.0707V26.2155ZM41.0707 25.037H42.2492V26.2155H41.0707V25.037ZM41.0707 23.8586H42.2492V25.037H41.0707V23.8586ZM41.0707 22.6801H42.2492V23.8586H41.0707V22.6801ZM41.0707 21.5017H42.2492V22.6801H41.0707V21.5017ZM39.8923 22.6801H41.0707V23.8586H39.8923V22.6801ZM39.8923 23.8586H41.0707V25.037H39.8923V23.8586ZM39.8923 25.037H41.0707V26.2155H39.8923V25.037ZM39.8923 26.2155H41.0707V27.3939H39.8923V26.2155ZM39.8923 27.3939H41.0707V28.5724H39.8923V27.3939ZM39.8923 28.5724H41.0707V29.7508H39.8923V28.5724ZM38.7138 8.5387H39.8923V9.71715H38.7138V8.5387ZM38.7138 9.71715H39.8923V10.8956H38.7138V9.71715ZM38.7138 12.0741H39.8923V13.2525H38.7138V12.0741ZM38.7138 13.2525H39.8923V14.431H38.7138V13.2525ZM38.7138 14.431H39.8923V15.6094H38.7138V14.431ZM38.7138 15.6094H39.8923V16.7879H38.7138V15.6094ZM38.7138 16.7879H39.8923V17.9663H38.7138V16.7879ZM38.7138 17.9663H39.8923V19.1448H38.7138V17.9663ZM38.7138 19.1448H39.8923V20.3232H38.7138V19.1448ZM38.7138 20.3232H39.8923V21.5017H38.7138V20.3232ZM39.8923 15.6094H41.0707V16.7879H39.8923V15.6094ZM39.8923 14.431H41.0707V15.6094H39.8923V14.431ZM39.8923 13.2525H41.0707V14.431H39.8923V13.2525ZM39.8923 12.0741H41.0707V13.2525H39.8923V12.0741ZM39.8923 10.8956H41.0707V12.0741H39.8923V10.8956ZM38.7138 10.8956H39.8923V12.0741H38.7138V10.8956ZM39.8923 8.5387H41.0707V9.71715H39.8923V8.5387ZM41.0707 8.5387H42.2492V9.71715H41.0707V8.5387ZM41.0707 9.71715H42.2492V10.8956H41.0707V9.71715ZM42.2492 10.8956H43.4276V12.0741H42.2492V10.8956ZM42.2492 9.71715H43.4276V10.8956H42.2492V9.71715ZM42.2492 8.5387H43.4276V9.71715H42.2492V8.5387ZM42.2492 12.0741H43.4276V13.2525H42.2492V12.0741ZM42.2492 13.2525H43.4276V14.431H42.2492V13.2525ZM42.2492 14.431H43.4276V15.6094H42.2492V14.431ZM42.2492 15.6094H43.4276V16.7879H42.2492V15.6094ZM42.2492 16.7879H43.4276V17.9663H42.2492V16.7879ZM42.2492 17.9663H43.4276V19.1448H42.2492V17.9663ZM42.2492 19.1448H43.4276V20.3232H42.2492V19.1448ZM41.0707 17.9663H42.2492V19.1448H41.0707V17.9663ZM41.0707 16.7879H42.2492V17.9663H41.0707V16.7879ZM41.0707 15.6094H42.2492V16.7879H41.0707V15.6094ZM39.8923 16.7879H41.0707V17.9663H39.8923V16.7879ZM39.8923 17.9663H41.0707V19.1448H39.8923V17.9663ZM41.0707 14.431H42.2492V15.6094H41.0707V14.431ZM41.0707 10.8956H42.2492V12.0741H41.0707V10.8956ZM41.0707 12.0741H42.2492V13.2525H41.0707V12.0741ZM41.0707 13.2525H42.2492V14.431H41.0707V13.2525ZM39.8923 9.71715H41.0707V10.8956H39.8923V9.71715ZM43.4276 8.5387H44.6061V9.71715H43.4276V8.5387ZM43.4276 9.71715H44.6061V10.8956H43.4276V9.71715ZM43.4276 10.8956H44.6061V12.0741H43.4276V10.8956ZM43.4276 12.0741H44.6061V13.2525H43.4276V12.0741ZM44.6061 12.0741H45.7845V13.2525H44.6061V12.0741ZM45.7845 12.0741H46.963V13.2525H45.7845V12.0741ZM46.963 12.0741H48.1414V13.2525H46.963V12.0741ZM46.963 10.8956H48.1414V12.0741H46.963V10.8956ZM46.963 9.71715H48.1414V10.8956H46.963V9.71715ZM46.963 8.5387H48.1414V9.71715H46.963V8.5387ZM45.7845 8.5387H46.963V9.71715H45.7845V8.5387ZM44.6061 8.5387H45.7845V9.71715H44.6061V8.5387ZM44.6061 9.71715H45.7845V10.8956H44.6061V9.71715ZM45.7845 9.71715H46.963V10.8956H45.7845V9.71715ZM45.7845 10.8956H46.963V12.0741H45.7845V10.8956ZM44.6061 10.8956H45.7845V12.0741H44.6061V10.8956ZM37.5354 8.5387H38.7138V9.71715H37.5354V8.5387ZM36.3569 8.5387H37.5354V9.71715H36.3569V8.5387ZM35.1785 8.5387H36.3569V9.71715H35.1785V8.5387ZM34 8.5387H35.1785V9.71715H34V8.5387ZM34 9.71715H35.1785V10.8956H34V9.71715ZM34 10.8956H35.1785V12.0741H34V10.8956ZM35.1785 10.8956H36.3569V12.0741H35.1785V10.8956ZM36.3569 12.0741H37.5354V13.2525H36.3569V12.0741ZM35.1785 12.0741H36.3569V13.2525H35.1785V12.0741ZM34 12.0741H35.1785V13.2525H34V12.0741ZM37.5354 12.0741H38.7138V13.2525H37.5354V12.0741ZM37.5354 10.8956H38.7138V12.0741H37.5354V10.8956ZM37.5354 9.71715H38.7138V10.8956H37.5354V9.71715ZM36.3569 9.71715H37.5354V10.8956H36.3569V9.71715ZM36.3569 10.8956H37.5354V12.0741H36.3569V10.8956ZM35.1785 9.71715H36.3569V10.8956H35.1785V9.71715Z" fill="black"/>
</svg>
